Bodoni-72-Bold-Italic.ufo
<glyph name="dollar" format="2">
  <advance width="600"/>
  <unicode hex="0024"/>
  <outline>
    <contour>
      <point x="380" y="830" type="line"/>
      <point x="384" y="830" type="line"/>
      <point x="174" y="-80" type="line"/>
      <point x="170" y="-80" type="line"/>
    </contour>
    <contour>
      <point x="462" y="830" type="line"/>
      <point x="464" y="830" type="line"/>
      <point x="254" y="-80" type="line"/>
      <point x="252" y="-80" type="line"/>
    </contour>
    <contour>
      <point x="250" y="625" type="curve" smooth="yes"/>
      <point x="250" y="450"/>
      <point x="565" y="510"/>
      <point x="565" y="245" type="curve" smooth="yes"/>
      <point x="565" y="80"/>
      <point x="406" y="-15"/>
      <point x="265" y="-15" type="curve" smooth="yes"/>
      <point x="129" y="-15"/>
      <point x="30" y="72"/>
      <point x="30" y="162" type="curve" smooth="yes"/>
      <point x="30" y="213"/>
      <point x="61" y="257"/>
      <point x="115" y="257" type="curve" smooth="yes"/>
      <point x="155" y="257"/>
      <point x="194" y="227"/>
      <point x="194" y="178" type="curve" smooth="yes"/>
      <point x="194" y="123"/>
      <point x="154" y="96"/>
      <point x="110" y="96" type="curve" smooth="yes"/>
      <point x="70" y="96"/>
      <point x="44" y="123"/>
      <point x="36" y="143" type="curve"/>
      <point x="47" y="62"/>
      <point x="141" y="-12"/>
      <point x="265" y="-12" type="curve" smooth="yes"/>
      <point x="371" y="-12"/>
      <point x="435" y="71"/>
      <point x="435" y="150" type="curve" smooth="yes"/>
      <point x="435" y="345"/>
      <point x="125" y="260"/>
      <point x="125" y="515" type="curve" smooth="yes"/>
      <point x="125" y="660"/>
      <point x="276" y="760"/>
      <point x="402" y="760" type="curve" smooth="yes"/>
      <point x="510" y="760"/>
      <point x="610" y="688"/>
      <point x="610" y="602" type="curve" smooth="yes"/>
      <point x="610" y="556"/>
      <point x="580" y="512"/>
      <point x="526" y="512" type="curve" smooth="yes"/>
      <point x="486" y="512"/>
      <point x="446" y="540"/>
      <point x="446" y="592" type="curve" smooth="yes"/>
      <point x="446" y="642"/>
      <point x="491" y="669"/>
      <point x="530" y="669" type="curve" smooth="yes"/>
      <point x="572" y="669"/>
      <point x="594" y="644"/>
      <point x="602" y="624" type="curve"/>
      <point x="591" y="692"/>
      <point x="508" y="756"/>
      <point x="407" y="756" type="curve" smooth="yes"/>
      <point x="301" y="756"/>
      <point x="250" y="689"/>
    </contour>
  </outline>
</glyph>
<glyph name="ampersand" format="2">
  <advance width="3435"/>
  <unicode hex="0026"/>
  <outline>
    <contour>
      <point x="1707" y="1902" type="line"/>
      <point x="1989" y="2089"/>
      <point x="2114" y="2355"/>
      <point x="2114" y="2597" type="curve" smooth="yes"/>
      <point x="2114" y="2849"/>
      <point x="2064" y="3100"/>
      <point x="1888" y="3100" type="curve" smooth="yes"/>
      <point x="1642" y="3100"/>
      <point x="1548" y="2798"/>
      <point x="1548" y="2540" type="curve" smooth="yes"/>
      <point x="1548" y="2397"/>
      <point x="1596" y="2185"/>
      <point x="1728" y="1925" type="curve" smooth="yes"/>
      <point x="2502" y="389" type="line" smooth="yes"/>
      <point x="2586" y="217"/>
      <point x="2672" y="33"/>
      <point x="2836" y="33" type="curve" smooth="yes"/>
      <point x="2984" y="33"/>
      <point x="3130" y="123"/>
      <point x="3202" y="290" type="curve"/>
      <point x="3212" y="286" type="line"/>
      <point x="3134" y="106"/>
      <point x="2945" y="-41"/>
      <point x="2580" y="-41" type="curve" smooth="yes"/>
      <point x="2281" y="-41"/>
      <point x="2023" y="53"/>
      <point x="1806" y="434" type="curve" smooth="yes"/>
      <point x="1040" y="1925" type="line" smooth="yes"/>
      <point x="948" y="2095"/>
      <point x="914" y="2245"/>
      <point x="914" y="2388" type="curve" smooth="yes"/>
      <point x="914" y="2798"/>
      <point x="1364" y="3113"/>
      <point x="1921" y="3113" type="curve" smooth="yes"/>
      <point x="2277" y="3113"/>
      <point x="2704" y="2965"/>
      <point x="2704" y="2586" type="curve" smooth="yes"/>
      <point x="2704" y="2121"/>
      <point x="2063" y="2021"/>
      <point x="1712" y="1893" type="curve"/>
    </contour>
    <contour>
      <point x="1196" y="1659" type="curve"/>
      <point x="1199" y="1647" type="line"/>
      <point x="945" y="1477"/>
      <point x="737" y="1148"/>
      <point x="737" y="716" type="curve" smooth="yes"/>
      <point x="737" y="345"/>
      <point x="1024" y="18"/>
      <point x="1409" y="18" type="curve" smooth="yes"/>
      <point x="2310" y="18"/>
      <point x="3320" y="856"/>
      <point x="3320" y="1424" type="curve" smooth="yes"/>
      <point x="3320" y="1482" type="line"/>
      <point x="3284" y="1294"/>
      <point x="3111" y="1168"/>
      <point x="2931" y="1168" type="curve" smooth="yes"/>
      <point x="2726" y="1168"/>
      <point x="2592" y="1340"/>
      <point x="2592" y="1504" type="curve" smooth="yes"/>
      <point x="2592" y="1688"/>
      <point x="2757" y="1839"/>
      <point x="2949" y="1839" type="curve" smooth="yes"/>
      <point x="3167" y="1839"/>
      <point x="3334" y="1667"/>
      <point x="3334" y="1438" type="curve" smooth="yes"/>
      <point x="3334" y="865"/>
      <point x="2350" y="-41"/>
      <point x="1122" y="-41" type="curve" smooth="yes"/>
      <point x="556" y="-41"/>
      <point x="82" y="166"/>
      <point x="82" y="650" type="curve" smooth="yes"/>
      <point x="82" y="1255"/>
      <point x="588" y="1438"/>
    </contour>
  </outline>
</glyph>
<glyph name="parenleft" format="2">
  <advance width="2984"/>
  <unicode hex="0028"/>
  <outline>
    <contour>
      <point x="2240" y="-1344" type="curve"/>
      <point x="2240" y="-1360" type="line"/>
      <point x="1336" y="-960"/>
      <point x="672" y="96"/>
      <point x="672" y="1480" type="curve" smooth="yes"/>
      <point x="672" y="3824"/>
      <point x="2408" y="5760"/>
      <point x="3952" y="6400" type="curve"/>
      <point x="3968" y="6384" type="line"/>
      <point x="2736" y="5584"/>
      <point x="1752" y="2496"/>
      <point x="1752" y="640" type="curve" smooth="yes"/>
      <point x="1752" y="-376"/>
      <point x="1880" y="-944"/>
    </contour>
  </outline>
</glyph>
<glyph name="asterisk" format="2">
  <advance width="5080"/>
  <unicode hex="002A"/>
  <outline>
    <contour>
      <point x="2160" y="5280" type="curve" smooth="yes"/>
      <point x="2656" y="4896"/>
      <point x="2320" y="4280"/>
      <point x="3040" y="3880" type="curve"/>
      <point x="3032" y="3872" type="line"/>
      <point x="2272" y="4312"/>
      <point x="1928" y="3912"/>
      <point x="1376" y="4152" type="curve" smooth="yes"/>
      <point x="984" y="4328"/>
      <point x="888" y="4760"/>
      <point x="1080" y="5096" type="curve" smooth="yes"/>
      <point x="1288" y="5448"/>
      <point x="1792" y="5536"/>
    </contour>
    <contour>
      <point x="1144" y="3560" type="curve" smooth="yes"/>
      <point x="1720" y="3736"/>
      <point x="2272" y="3440"/>
      <point x="3032" y="3880" type="curve"/>
      <point x="3040" y="3872" type="line"/>
      <point x="2280" y="3432"/>
      <point x="2144" y="2912"/>
      <point x="1656" y="2512" type="curve" smooth="yes"/>
      <point x="1296" y="2232"/>
      <point x="864" y="2248"/>
      <point x="656" y="2584" type="curve" smooth="yes"/>
      <point x="448" y="2928"/>
      <point x="680" y="3432"/>
    </contour>
    <contour>
      <point x="2096" y="2216" type="curve" smooth="yes"/>
      <point x="2272" y="2824"/>
      <point x="2912" y="3080"/>
      <point x="3032" y="3880" type="curve"/>
      <point x="3048" y="3880" type="line"/>
      <point x="2888" y="2920"/>
      <point x="3360" y="2776"/>
      <point x="3360" y="2176" type="curve" smooth="yes"/>
      <point x="3360" y="1760"/>
      <point x="3024" y="1424"/>
      <point x="2624" y="1424" type="curve" smooth="yes"/>
      <point x="2264" y="1424"/>
      <point x="1944" y="1704"/>
    </contour>
    <contour>
      <point x="3920" y="2496" type="curve" smooth="yes"/>
      <point x="3424" y="2880"/>
      <point x="3752" y="3472"/>
      <point x="3032" y="3872" type="curve"/>
      <point x="3040" y="3880" type="line"/>
      <point x="3800" y="3440"/>
      <point x="4144" y="3848"/>
      <point x="4704" y="3608" type="curve" smooth="yes"/>
      <point x="5096" y="3432"/>
      <point x="5184" y="3000"/>
      <point x="4992" y="2664" type="curve" smooth="yes"/>
      <point x="4784" y="2312"/>
      <point x="4280" y="2240"/>
    </contour>
    <contour>
      <point x="4928" y="4200" type="curve" smooth="yes"/>
      <point x="4352" y="4024"/>
      <point x="3800" y="4312"/>
      <point x="3040" y="3872" type="curve"/>
      <point x="3032" y="3880" type="line"/>
      <point x="3792" y="4320"/>
      <point x="3928" y="4848"/>
      <point x="4416" y="5248" type="curve" smooth="yes"/>
      <point x="4776" y="5528"/>
      <point x="5208" y="5512"/>
      <point x="5416" y="5176" type="curve" smooth="yes"/>
      <point x="5624" y="4832"/>
      <point x="5392" y="4328"/>
    </contour>
    <contour>
      <point x="3984" y="5544" type="curve" smooth="yes"/>
      <point x="3840" y="4936"/>
      <point x="3168" y="4680"/>
      <point x="3048" y="3880" type="curve"/>
      <point x="3032" y="3880" type="line"/>
      <point x="3192" y="4840"/>
      <point x="2720" y="4984"/>
      <point x="2720" y="5584" type="curve" smooth="yes"/>
      <point x="2720" y="6000"/>
      <point x="3048" y="6336"/>
      <point x="3448" y="6336" type="curve" smooth="yes"/>
      <point x="3808" y="6336"/>
      <point x="4096" y="6064"/>
    </contour>
  </outline>
</glyph>
<glyph name="comma" format="2">
  <advance width="2200"/>
  <unicode hex="002C"/>
  <outline>
    <contour>
      <point x="200" y="624" type="curve" smooth="yes"/>
      <point x="200" y="1008"/>
      <point x="552" y="1344"/>
      <point x="976" y="1344" type="curve" smooth="yes"/>
      <point x="1408" y="1344"/>
      <point x="1760" y="1048"/>
      <point x="1760" y="464" type="curve" smooth="yes"/>
      <point x="1760" y="-528"/>
      <point x="688" y="-1248"/>
      <point x="-272" y="-1248" type="curve"/>
      <point x="-272" y="-1224" type="line"/>
      <point x="624" y="-1224"/>
      <point x="1760" y="-536"/>
      <point x="1728" y="520" type="curve"/>
      <point x="1680" y="192"/>
      <point x="1352" y="-80"/>
      <point x="920" y="-80" type="curve" smooth="yes"/>
      <point x="456" y="-80"/>
      <point x="200" y="256"/>
    </contour>
  </outline>
</glyph>
<glyph name="hyphen" format="1">
  <advance width="360"/>
  <unicode hex="002D"/>
  <outline>
    <contour>
      <point x="83" y="276" type="line"/>
      <point x="323" y="276" type="line"/>
      <point x="323" y="274" type="line"/>
      <point x="83" y="274" type="line"/>
    </contour>
  </outline>
</glyph>
<glyph name="slash" format="1">
  <advance width="520"/>
  <unicode hex="002F"/>
  <outline>
    <contour>
      <point x="616" y="780" type="line"/>
      <point x="620" y="780" type="line"/>
      <point x="-26" y="-150" type="line"/>
      <point x="-30" y="-150" type="line"/>
    </contour>
  </outline>
</glyph>
<glyph name="one" format="2">
  <advance width="495"/>
  <unicode hex="0031"/>
  <outline>
    <contour>
      <point x="-40" y="3" type="line"/>
      <point x="335" y="3" type="line"/>
      <point x="335" y="0" type="line"/>
      <point x="-40" y="0" type="line"/>
    </contour>
    <contour>
      <point x="239" y="747" type="line"/>
      <point x="122" y="747" type="line"/>
      <point x="122" y="750" type="line"/>
      <point x="395" y="750" type="line"/>
      <point x="225" y="0" type="line"/>
      <point x="70" y="0" type="line"/>
    </contour>
  </outline>
</glyph>
<glyph name="two" format="2">
  <advance width="605"/>
  <unicode hex="0032"/>
  <outline>
    <contour>
      <point x="98" y="536" type="curve"/>
      <point x="106" y="574"/>
      <point x="140" y="607"/>
      <point x="192" y="607" type="curve" smooth="yes"/>
      <point x="238" y="607"/>
      <point x="275" y="574"/>
      <point x="275" y="528" type="curve" smooth="yes"/>
      <point x="275" y="473"/>
      <point x="229" y="437"/>
      <point x="184" y="437" type="curve" smooth="yes"/>
      <point x="139" y="437"/>
      <point x="93" y="467"/>
      <point x="93" y="529" type="curve" smooth="yes"/>
      <point x="93" y="646"/>
      <point x="218" y="760"/>
      <point x="375" y="760" type="curve" smooth="yes"/>
      <point x="486" y="760"/>
      <point x="592" y="715"/>
      <point x="592" y="605" type="curve" smooth="yes"/>
      <point x="592" y="485"/>
      <point x="398" y="389"/>
      <point x="318" y="335" type="curve" smooth="yes"/>
      <point x="65" y="150" type="line"/>
      <point x="505" y="150" type="line"/>
      <point x="522" y="225" type="line"/>
      <point x="525" y="225" type="line"/>
      <point x="474" y="0" type="line"/>
      <point x="-41" y="0" type="line"/>
      <point x="-17" y="100" type="line"/>
      <point x="252" y="291" type="line" smooth="yes"/>
      <point x="360" y="365"/>
      <point x="431" y="485"/>
      <point x="431" y="584" type="curve" smooth="yes"/>
      <point x="431" y="678"/>
      <point x="396" y="740"/>
      <point x="313" y="740" type="curve" smooth="yes"/>
      <point x="207" y="740"/>
      <point x="100" y="638"/>
    </contour>
  </outline>
</glyph>
<glyph name="three" format="2">
  <advance width="4608"/>
  <unicode hex="0033"/>
  <outline>
    <contour>
      <point x="1136" y="4840" type="curve" smooth="yes"/>
      <point x="1136" y="5496"/>
      <point x="1912" y="6072"/>
      <point x="2888" y="6072" type="curve" smooth="yes"/>
      <point x="3776" y="6072"/>
      <point x="4688" y="5816"/>
      <point x="4688" y="4896" type="curve" smooth="yes"/>
      <point x="4688" y="3976"/>
      <point x="3712" y="3248"/>
      <point x="1864" y="3248" type="curve"/>
      <point x="1864" y="3264" type="line"/>
      <point x="3136" y="3264"/>
      <point x="3440" y="4496"/>
      <point x="3440" y="5088" type="curve" smooth="yes"/>
      <point x="3440" y="5720"/>
      <point x="3240" y="6016"/>
      <point x="2688" y="6016" type="curve" smooth="yes"/>
      <point x="2064" y="6016"/>
      <point x="1376" y="5632"/>
      <point x="1232" y="5136" type="curve"/>
      <point x="1312" y="5264"/>
      <point x="1544" y="5432"/>
      <point x="1840" y="5432" type="curve" smooth="yes"/>
      <point x="2208" y="5432"/>
      <point x="2448" y="5152"/>
      <point x="2448" y="4792" type="curve" smooth="yes"/>
      <point x="2448" y="4392"/>
      <point x="2112" y="4144"/>
      <point x="1792" y="4144" type="curve" smooth="yes"/>
      <point x="1432" y="4144"/>
      <point x="1136" y="4432"/>
    </contour>
    <contour>
      <point x="40" y="1264" type="curve" smooth="yes"/>
      <point x="40" y="1712"/>
      <point x="320" y="2008"/>
      <point x="720" y="2008" type="curve" smooth="yes"/>
      <point x="1080" y="2008"/>
      <point x="1352" y="1728"/>
      <point x="1352" y="1360" type="curve" smooth="yes"/>
      <point x="1352" y="984"/>
      <point x="1048" y="720"/>
      <point x="696" y="720" type="curve" smooth="yes"/>
      <point x="376" y="720"/>
      <point x="152" y="920"/>
      <point x="88" y="1088" type="curve"/>
      <point x="152" y="528"/>
      <point x="736" y="-48"/>
      <point x="1688" y="-48" type="curve" smooth="yes"/>
      <point x="2640" y="-48"/>
      <point x="3000" y="1208"/>
      <point x="3000" y="2040" type="curve" smooth="yes"/>
      <point x="3000" y="2672"/>
      <point x="2776" y="3240"/>
      <point x="1864" y="3240" type="curve"/>
      <point x="1864" y="3256" type="line"/>
      <point x="3552" y="3256"/>
      <point x="4248" y="2760"/>
      <point x="4248" y="1840" type="curve" smooth="yes"/>
      <point x="4248" y="680"/>
      <point x="2976" y="-80"/>
      <point x="1768" y="-80" type="curve" smooth="yes"/>
      <point x="592" y="-80"/>
      <point x="40" y="648"/>
    </contour>
  </outline>
</glyph>
<glyph name="four" format="2">
  <advance width="2704"/>
  <unicode hex="0034"/>
  <outline>
    <contour>
      <point x="2273" y="12" type="line"/>
      <point x="2273" y="0" type="line"/>
      <point x="942" y="0" type="line"/>
      <point x="942" y="12" type="line"/>
    </contour>
    <contour>
      <point x="2664" y="3072" type="line"/>
      <point x="1925" y="0" type="line"/>
      <point x="1290" y="0" type="line"/>
      <point x="1943" y="2851" type="line"/>
      <point x="209" y="884" type="line"/>
      <point x="2580" y="884" type="line"/>
      <point x="2580" y="876" type="line"/>
      <point x="183" y="876" type="line"/>
      <point x="2130" y="3072" type="line"/>
    </contour>
  </outline>
</glyph>
<glyph name="five" format="2">
  <advance width="563"/>
  <unicode hex="0035"/>
  <outline>
    <contour>
      <point x="528" y="275" type="curve" smooth="yes"/>
      <point x="528" y="105"/>
      <point x="347" y="-10"/>
      <point x="196" y="-10" type="curve" smooth="yes"/>
      <point x="74" y="-10"/>
      <point x="0" y="62"/>
      <point x="0" y="144" type="curve" smooth="yes"/>
      <point x="0" y="195"/>
      <point x="37" y="231"/>
      <point x="82" y="231" type="curve" smooth="yes"/>
      <point x="122" y="231"/>
      <point x="164" y="200"/>
      <point x="164" y="150" type="curve" smooth="yes"/>
      <point x="164" y="100"/>
      <point x="126" y="70"/>
      <point x="82" y="70" type="curve" smooth="yes"/>
      <point x="42" y="70"/>
      <point x="12" y="99"/>
      <point x="6" y="119" type="curve"/>
      <point x="18" y="51"/>
      <point x="88" y="-6"/>
      <point x="186" y="-6" type="curve" smooth="yes"/>
      <point x="315" y="-6"/>
      <point x="368" y="186"/>
      <point x="368" y="300" type="curve" smooth="yes"/>
      <point x="368" y="384"/>
      <point x="337" y="448"/>
      <point x="273" y="448" type="curve" smooth="yes"/>
      <point x="199" y="448"/>
      <point x="123" y="413"/>
      <point x="89" y="362" type="curve"/>
      <point x="86" y="362" type="line"/>
      <point x="122" y="419"/>
      <point x="209" y="455"/>
      <point x="300" y="455" type="curve" smooth="yes"/>
      <point x="431" y="455"/>
      <point x="528" y="405"/>
    </contour>
    <contour>
      <point x="573" y="600" type="line"/>
      <point x="170" y="600" type="line"/>
      <point x="88" y="362" type="line"/>
      <point x="85" y="362" type="line"/>
      <point x="217" y="750" type="line"/>
      <point x="603" y="750" type="line"/>
      <point x="616" y="805" type="line"/>
      <point x="618" y="805" type="line"/>
    </contour>
  </outline>
</glyph>
<glyph name="six" format="2">
  <advance width="610"/>
  <unicode hex="0036"/>
  <outline>
    <contour>
      <point x="430" y="345" type="curve" smooth="yes"/>
      <point x="430" y="424"/>
      <point x="416" y="472"/>
      <point x="374" y="472" type="curve" smooth="yes"/>
      <point x="244" y="472"/>
      <point x="202" y="229"/>
      <point x="202" y="125" type="curve"/>
      <point x="198" y="125" type="line"/>
      <point x="198" y="227"/>
      <point x="238" y="492"/>
      <point x="404" y="492" type="curve" smooth="yes"/>
      <point x="495" y="492"/>
      <point x="590" y="440"/>
      <point x="590" y="300" type="curve" smooth="yes"/>
      <point x="590" y="130"/>
      <point x="425" y="-10"/>
      <point x="264" y="-10" type="curve" smooth="yes"/>
      <point x="143" y="-10"/>
      <point x="50" y="60"/>
      <point x="50" y="220" type="curve" smooth="yes"/>
      <point x="50" y="453"/>
      <point x="302" y="760"/>
      <point x="615" y="760" type="curve"/>
      <point x="615" y="757" type="line"/>
      <point x="347" y="757"/>
      <point x="202" y="412"/>
      <point x="202" y="150" type="curve"/>
      <point x="202" y="125" type="line"/>
      <point x="202" y="56"/>
      <point x="221" y="-7"/>
      <point x="269" y="-7" type="curve" smooth="yes"/>
      <point x="359" y="-7"/>
      <point x="430" y="231"/>
    </contour>
  </outline>
</glyph>
<glyph name="seven" format="2">
  <advance width="556"/>
  <unicode hex="0037"/>
  <outline>
    <contour>
      <point x="142" y="86" type="curve" smooth="yes"/>
      <point x="142" y="175"/>
      <point x="271" y="277"/>
      <point x="358" y="381" type="curve" smooth="yes"/>
      <point x="414" y="447"/>
      <point x="467" y="517"/>
      <point x="529" y="595" type="curve"/>
      <point x="134" y="595" type="line"/>
      <point x="118" y="520" type="line"/>
      <point x="114" y="520" type="line"/>
      <point x="166" y="750" type="line"/>
      <point x="656" y="750" type="line"/>
      <point x="656" y="750"/>
      <point x="482" y="524"/>
      <point x="380" y="400" type="curve" smooth="yes"/>
      <point x="309" y="312"/>
      <point x="254" y="257"/>
      <point x="254" y="212" type="curve" smooth="yes"/>
      <point x="254" y="164"/>
      <point x="327" y="153"/>
      <point x="327" y="83" type="curve" smooth="yes"/>
      <point x="327" y="31"/>
      <point x="289" y="-10"/>
      <point x="230" y="-10" type="curve" smooth="yes"/>
      <point x="181" y="-10"/>
      <point x="142" y="22"/>
    </contour>
  </outline>
</glyph>
<glyph name="eight" format="1">
  <advance width="610"/>
  <unicode hex="0038"/>
  <outline>
    <contour>
      <point x="275" y="490" type="curve" smooth="yes"/>
      <point x="275" y="442"/>
      <point x="283" y="384"/>
      <point x="328" y="384" type="curve" smooth="yes"/>
      <point x="402" y="384"/>
      <point x="455" y="536"/>
      <point x="455" y="640" type="curve" smooth="yes"/>
      <point x="455" y="684"/>
      <point x="447" y="757"/>
      <point x="399" y="757" type="curve" smooth="yes"/>
      <point x="335" y="757"/>
      <point x="275" y="594"/>
    </contour>
    <contour>
      <point x="120" y="525" type="curve" smooth="yes"/>
      <point x="120" y="645"/>
      <point x="244" y="760"/>
      <point x="400" y="760" type="curve" smooth="yes"/>
      <point x="536" y="760"/>
      <point x="610" y="675"/>
      <point x="610" y="595" type="curve" smooth="yes"/>
      <point x="610" y="470"/>
      <point x="471" y="382"/>
      <point x="330" y="382" type="curve" smooth="yes"/>
      <point x="209" y="382"/>
      <point x="120" y="445"/>
    </contour>
    <contour>
      <point x="180" y="120" type="curve" smooth="yes"/>
      <point x="180" y="52"/>
      <point x="201" y="-7"/>
      <point x="255" y="-7" type="curve" smooth="yes"/>
      <point x="339" y="-7"/>
      <point x="395" y="156"/>
      <point x="395" y="260" type="curve" smooth="yes"/>
      <point x="395" y="328"/>
      <point x="374" y="382"/>
      <point x="320" y="382" type="curve" smooth="yes"/>
      <point x="236" y="382"/>
      <point x="180" y="224"/>
    </contour>
    <contour>
      <point x="30" y="150" type="curve" smooth="yes"/>
      <point x="30" y="270"/>
      <point x="124" y="384"/>
      <point x="310" y="384" type="curve" smooth="yes"/>
      <point x="466" y="384"/>
      <point x="550" y="330"/>
      <point x="550" y="230" type="curve" smooth="yes"/>
      <point x="550" y="110"/>
      <point x="456" y="-10"/>
      <point x="270" y="-10" type="curve" smooth="yes"/>
      <point x="114" y="-10"/>
      <point x="30" y="50"/>
    </contour>
  </outline>
</glyph>
<glyph name="at" format="2">
  <advance width="8080"/>
  <unicode hex="0040"/>
  <outline>
    <contour>
      <point x="4640" y="2856" type="curve" smooth="yes"/>
      <point x="4640" y="1640"/>
      <point x="4072" y="560"/>
      <point x="3152" y="560" type="curve" smooth="yes"/>
      <point x="2480" y="560"/>
      <point x="1952" y="1008"/>
      <point x="1952" y="1840" type="curve" smooth="yes"/>
      <point x="1952" y="3040"/>
      <point x="2824" y="4232"/>
      <point x="3784" y="4232" type="curve" smooth="yes"/>
      <point x="4512" y="4232"/>
      <point x="4640" y="3512"/>
    </contour>
    <contour>
      <point x="4608" y="2768" type="curve" smooth="yes"/>
      <point x="4608" y="3104"/>
      <point x="4592" y="3944"/>
      <point x="4160" y="3944" type="curve" smooth="yes"/>
      <point x="3728" y="3944"/>
      <point x="3240" y="2832"/>
      <point x="3240" y="1840" type="curve" smooth="yes"/>
      <point x="3240" y="1304"/>
      <point x="3360" y="848"/>
      <point x="3632" y="848" type="curve" smooth="yes"/>
      <point x="4112" y="848"/>
      <point x="4608" y="1776"/>
    </contour>
    <contour>
      <point x="4440" y="1680" type="curve" smooth="yes"/>
      <point x="5016" y="4160" type="line"/>
      <point x="6216" y="4160" type="line"/>
      <point x="5624" y="1624" type="line" smooth="yes"/>
      <point x="5568" y="1376"/>
      <point x="5328" y="672"/>
      <point x="5824" y="672" type="curve" smooth="yes"/>
      <point x="6784" y="672"/>
      <point x="7616" y="1832"/>
      <point x="7616" y="3208" type="curve" smooth="yes"/>
      <point x="7616" y="4656"/>
      <point x="6696" y="6296"/>
      <point x="4680" y="6296" type="curve" smooth="yes"/>
      <point x="2360" y="6296"/>
      <point x="464" y="4184"/>
      <point x="464" y="1688" type="curve" smooth="yes"/>
      <point x="464" y="-808"/>
      <point x="1904" y="-1688"/>
      <point x="3352" y="-1688" type="curve" smooth="yes"/>
      <point x="4648" y="-1688"/>
      <point x="5592" y="-1272"/>
      <point x="6256" y="-496" type="curve"/>
      <point x="6280" y="-512" type="line"/>
      <point x="5608" y="-1296"/>
      <point x="4656" y="-1712"/>
      <point x="3352" y="-1712" type="curve" smooth="yes"/>
      <point x="1888" y="-1712"/>
      <point x="440" y="-832"/>
      <point x="440" y="1688" type="curve" smooth="yes"/>
      <point x="440" y="4192"/>
      <point x="2336" y="6320"/>
      <point x="4680" y="6320" type="curve" smooth="yes"/>
      <point x="6704" y="6320"/>
      <point x="7640" y="4672"/>
      <point x="7640" y="3208" type="curve" smooth="yes"/>
      <point x="7640" y="1888"/>
      <point x="6896" y="544"/>
      <point x="5408" y="544" type="curve" smooth="yes"/>
      <point x="4456" y="544"/>
      <point x="4328" y="1184"/>
    </contour>
  </outline>
</glyph>
<glyph name="at" format="1">
  <advance width="1010"/>
  <unicode hex="0040"/>
  <outline>
    <contour>
      <point x="580" y="357" type="curve" smooth="yes"/>
      <point x="580" y="205"/>
      <point x="509" y="70"/>
      <point x="394" y="70" type="curve" smooth="yes"/>
      <point x="310" y="70"/>
      <point x="244" y="126"/>
      <point x="244" y="230" type="curve" smooth="yes"/>
      <point x="244" y="380"/>
      <point x="353" y="529"/>
      <point x="473" y="529" type="curve" smooth="yes"/>
      <point x="564" y="529"/>
      <point x="580" y="439"/>
    </contour>
    <contour>
      <point x="576" y="346" type="curve" smooth="yes"/>
      <point x="576" y="388"/>
      <point x="574" y="493"/>
      <point x="520" y="493" type="curve" smooth="yes"/>
      <point x="466" y="493"/>
      <point x="405" y="354"/>
      <point x="405" y="230" type="curve" smooth="yes"/>
      <point x="405" y="163"/>
      <point x="420" y="106"/>
      <point x="454" y="106" type="curve" smooth="yes"/>
      <point x="514" y="106"/>
      <point x="576" y="222"/>
    </contour>
    <contour>
      <point x="555" y="210" type="curve" smooth="yes"/>
      <point x="627" y="520" type="line"/>
      <point x="777" y="520" type="line"/>
      <point x="703" y="203" type="line" smooth="yes"/>
      <point x="696" y="172"/>
      <point x="666" y="84"/>
      <point x="728" y="84" type="curve" smooth="yes"/>
      <point x="848" y="84"/>
      <point x="952" y="229"/>
      <point x="952" y="401" type="curve" smooth="yes"/>
      <point x="952" y="582"/>
      <point x="837" y="787"/>
      <point x="585" y="787" type="curve" smooth="yes"/>
      <point x="295" y="787"/>
      <point x="58" y="523"/>
      <point x="58" y="211" type="curve" smooth="yes"/>
      <point x="58" y="-101"/>
      <point x="238" y="-211"/>
      <point x="419" y="-211" type="curve" smooth="yes"/>
      <point x="581" y="-211"/>
      <point x="699" y="-159"/>
      <point x="782" y="-62" type="curve"/>
      <point x="785" y="-64" type="line"/>
      <point x="701" y="-162"/>
      <point x="582" y="-214"/>
      <point x="419" y="-214" type="curve" smooth="yes"/>
      <point x="236" y="-214"/>
      <point x="55" y="-104"/>
      <point x="55" y="211" type="curve" smooth="yes"/>
      <point x="55" y="524"/>
      <point x="292" y="790"/>
      <point x="585" y="790" type="curve" smooth="yes"/>
      <point x="838" y="790"/>
      <point x="955" y="584"/>
      <point x="955" y="401" type="curve" smooth="yes"/>
      <point x="955" y="236"/>
      <point x="862" y="68"/>
      <point x="676" y="68" type="curve" smooth="yes"/>
      <point x="557" y="68"/>
      <point x="541" y="148"/>
    </contour>
  </outline>
</glyph>
<glyph name="A" format="2">
  <advance width="772"/>
  <unicode hex="0041"/>
  <outline>
    <contour>
      <point x="-48" y="3" type="line"/>
      <point x="172" y="3" type="line"/>
      <point x="172" y="0" type="line"/>
      <point x="-48" y="0" type="line"/>
    </contour>
    <contour>
      <point x="352" y="3" type="line"/>
      <point x="702" y="3" type="line"/>
      <point x="702" y="0" type="line"/>
      <point x="352" y="0" type="line"/>
    </contour>
    <contour>
      <point x="188" y="246" type="line"/>
      <point x="512" y="246" type="line"/>
      <point x="512" y="244" type="line"/>
      <point x="188" y="244" type="line"/>
    </contour>
    <contour>
      <point x="404" y="617" type="line"/>
      <point x="48" y="0" type="line"/>
      <point x="44" y="0" type="line"/>
      <point x="486" y="765" type="line"/>
      <point x="538" y="765" type="line"/>
      <point x="632" y="0" type="line"/>
      <point x="468" y="0" type="line"/>
    </contour>
  </outline>
</glyph>
<glyph name="C" format="2">
  <advance width="2847"/>
  <unicode hex="0043"/>
  <outline>
    <contour>
      <point x="1362" y="-40" type="curve" smooth="yes"/>
      <point x="674" y="-40"/>
      <point x="215" y="376"/>
      <point x="215" y="1044" type="curve" smooth="yes"/>
      <point x="215" y="2162"/>
      <point x="1043" y="3112"/>
      <point x="2038" y="3112" type="curve" smooth="yes"/>
      <point x="2563" y="3112"/>
      <point x="2889" y="2757"/>
      <point x="2909" y="2171" type="curve"/>
      <point x="2895" y="2171" type="line"/>
      <point x="2864" y="2810"/>
      <point x="2498" y="3080"/>
      <point x="2140" y="3080" type="curve" smooth="yes"/>
      <point x="1325" y="3080"/>
      <point x="891" y="1605"/>
      <point x="891" y="757" type="curve" smooth="yes"/>
      <point x="891" y="360"/>
      <point x="1013" y="-12"/>
      <point x="1439" y="-12" type="curve" smooth="yes"/>
      <point x="1926" y="-12"/>
      <point x="2374" y="383"/>
      <point x="2640" y="901" type="curve"/>
      <point x="2652" y="901" type="line"/>
      <point x="2406" y="397"/>
      <point x="1948" y="-40"/>
    </contour>
    <contour>
      <point x="2895" y="2171" type="line"/>
      <point x="2890" y="2298" type="line"/>
      <point x="2859" y="2501"/>
      <point x="2807" y="2663"/>
      <point x="2709" y="2790" type="curve"/>
      <point x="3103" y="3072" type="line"/>
      <point x="3115" y="3072" type="line"/>
      <point x="2909" y="2171" type="line"/>
    </contour>
    <contour>
      <point x="2640" y="901" type="line"/>
      <point x="2652" y="901" type="line"/>
      <point x="2427" y="0" type="line"/>
      <point x="2414" y="0" type="line"/>
      <point x="2163" y="272" type="line"/>
      <point x="2292" y="389"/>
      <point x="2434" y="533"/>
      <point x="2567" y="755" type="curve"/>
    </contour>
  </outline>
</glyph>
<glyph name="E" format="2">
  <advance width="4928"/>
  <unicode hex="0045"/>
  <outline>
    <contour>
      <point x="976" y="6000" type="line"/>
      <point x="5536" y="6000" type="line"/>
      <point x="5152" y="4360" type="line"/>
      <point x="5120" y="4360" type="line"/>
      <point x="5200" y="5216"/>
      <point x="4792" y="5976"/>
      <point x="3856" y="5976" type="curve" smooth="yes"/>
      <point x="976" y="5976" type="line"/>
    </contour>
    <contour>
      <point x="1696" y="6000" type="line"/>
      <point x="2928" y="6000" type="line"/>
      <point x="1536" y="0" type="line"/>
      <point x="304" y="0" type="line"/>
    </contour>
    <contour>
      <point x="2560" y="3096" type="curve" smooth="yes"/>
      <point x="2032" y="3096" type="line"/>
      <point x="2032" y="3112" type="line"/>
      <point x="2560" y="3112" type="line" smooth="yes"/>
      <point x="3016" y="3112"/>
      <point x="3576" y="3528"/>
      <point x="3816" y="4064" type="curve"/>
      <point x="3840" y="4064" type="line"/>
      <point x="3392" y="2104" type="line"/>
      <point x="3360" y="2104" type="line"/>
      <point x="3360" y="2640"/>
      <point x="3016" y="3096"/>
    </contour>
    <contour>
      <point x="4224" y="0" type="line"/>
      <point x="-384" y="0" type="line"/>
      <point x="-384" y="24" type="line"/>
      <point x="2464" y="24" type="line" smooth="yes"/>
      <point x="3560" y="24"/>
      <point x="4256" y="784"/>
      <point x="4608" y="1800" type="curve"/>
      <point x="4640" y="1800" type="line"/>
    </contour>
  </outline>
</glyph>
<glyph name="F" format="1">
  <advance width="591"/>
  <unicode hex="0046"/>
  <outline>
    <contour>
      <point x="302" y="372" type="curve" smooth="yes"/>
      <point x="256" y="372" type="line"/>
      <point x="256" y="374" type="line"/>
      <point x="302" y="374" type="line" smooth="yes"/>
      <point x="378" y="374"/>
      <point x="446" y="426"/>
      <point x="474" y="493" type="curve"/>
      <point x="476" y="493" type="line"/>
      <point x="420" y="248" type="line"/>
      <point x="417" y="248" type="line"/>
      <point x="417" y="315"/>
      <point x="379" y="372"/>
    </contour>
    <contour>
      <point x="-48" y="3" type="line"/>
      <point x="292" y="3" type="line"/>
      <point x="292" y="0" type="line"/>
      <point x="-48" y="0" type="line"/>
    </contour>
    <contour>
      <point x="212" y="750" type="line"/>
      <point x="366" y="750" type="line"/>
      <point x="192" y="0" type="line"/>
      <point x="38" y="0" type="line"/>
    </contour>
    <contour>
      <point x="122" y="750" type="line"/>
      <point x="676" y="750" type="line"/>
      <point x="628" y="545" type="line"/>
      <point x="626" y="545" type="line"/>
      <point x="636" y="652"/>
      <point x="589" y="747"/>
      <point x="472" y="747" type="curve" smooth="yes"/>
      <point x="122" y="747" type="line"/>
    </contour>
  </outline>
</glyph>
<glyph name="G" format="2">
  <advance width="6240"/>
  <unicode hex="0047"/>
  <outline>
    <contour>
      <point x="4288" y="2272" type="line"/>
      <point x="5600" y="2272" type="line"/>
      <point x="5360" y="1320" type="line"/>
      <point x="5000" y="816"/>
      <point x="3960" y="-80"/>
      <point x="2656" y="-80" type="curve" smooth="yes"/>
      <point x="1352" y="-80"/>
      <point x="416" y="656"/>
      <point x="416" y="2040" type="curve" smooth="yes"/>
      <point x="416" y="4304"/>
      <point x="2192" y="6080"/>
      <point x="4096" y="6080" type="curve" smooth="yes"/>
      <point x="5120" y="6080"/>
      <point x="5824" y="5384"/>
      <point x="5840" y="4240" type="curve"/>
      <point x="5808" y="4240" type="line"/>
      <point x="5792" y="5376"/>
      <point x="5104" y="6008"/>
      <point x="4304" y="6008" type="curve" smooth="yes"/>
      <point x="2672" y="6008"/>
      <point x="1744" y="3296"/>
      <point x="1744" y="1560" type="curve" smooth="yes"/>
      <point x="1744" y="744"/>
      <point x="1928" y="-56"/>
      <point x="2640" y="-56" type="curve" smooth="yes"/>
      <point x="3352" y="-56"/>
      <point x="3752" y="664"/>
      <point x="3952" y="1000" type="curve"/>
    </contour>
    <contour>
      <point x="3504" y="2288" type="line"/>
      <point x="6064" y="2288" type="line"/>
      <point x="6064" y="2272" type="line"/>
      <point x="3504" y="2272" type="line"/>
    </contour>
    <contour>
      <point x="6224" y="6000" type="line"/>
      <point x="6240" y="6000" type="line"/>
      <point x="5840" y="4240" type="line"/>
      <point x="5824" y="4240" type="line"/>
      <point x="5808" y="4480" type="line"/>
      <point x="5776" y="4784"/>
      <point x="5632" y="5224"/>
      <point x="5408" y="5496" type="curve"/>
    </contour>
  </outline>
</glyph>
<glyph name="H" format="1">
  <advance width="777"/>
  <unicode hex="0048"/>
  <outline>
    <contour>
      <point x="382" y="3" type="line"/>
      <point x="708" y="3" type="line"/>
      <point x="708" y="0" type="line"/>
      <point x="382" y="0" type="line"/>
    </contour>
    <contour>
      <point x="548" y="750" type="line"/>
      <point x="872" y="750" type="line"/>
      <point x="872" y="747" type="line"/>
      <point x="548" y="747" type="line"/>
    </contour>
    <contour>
      <point x="632" y="750" type="line"/>
      <point x="788" y="750" type="line"/>
      <point x="618" y="0" type="line"/>
      <point x="462" y="0" type="line"/>
    </contour>
    <contour>
      <point x="-42" y="3" type="line"/>
      <point x="282" y="3" type="line"/>
      <point x="282" y="0" type="line"/>
      <point x="-42" y="0" type="line"/>
    </contour>
    <contour>
      <point x="122" y="750" type="line"/>
      <point x="448" y="750" type="line"/>
      <point x="448" y="747" type="line"/>
      <point x="122" y="747" type="line"/>
    </contour>
    <contour>
      <point x="212" y="750" type="line"/>
      <point x="368" y="750" type="line"/>
      <point x="198" y="0" type="line"/>
      <point x="42" y="0" type="line"/>
    </contour>
    <contour>
      <point x="219" y="371" type="line"/>
      <point x="579" y="371" type="line"/>
      <point x="579" y="369" type="line"/>
      <point x="219" y="369" type="line"/>
    </contour>
  </outline>
</glyph>
<glyph name="J" format="2">
  <advance width="523"/>
  <unicode hex="004A"/>
  <outline>
    <contour>
      <point x="228" y="750" type="line"/>
      <point x="618" y="750" type="line"/>
      <point x="618" y="747" type="line"/>
      <point x="228" y="747" type="line"/>
    </contour>
    <contour>
      <point x="-25" y="82" type="curve"/>
      <point x="-17" y="30"/>
      <point x="36" y="-25"/>
      <point x="108" y="-25" type="curve" smooth="yes"/>
      <point x="169" y="-25"/>
      <point x="204" y="50"/>
      <point x="236" y="190" type="curve" smooth="yes"/>
      <point x="364" y="750" type="line"/>
      <point x="518" y="750" type="line"/>
      <point x="388" y="169" type="line"/>
      <point x="323" y="74"/>
      <point x="245" y="-30"/>
      <point x="124" y="-30" type="curve" smooth="yes"/>
      <point x="27" y="-30"/>
      <point x="-32" y="35"/>
      <point x="-32" y="105" type="curve" smooth="yes"/>
      <point x="-32" y="157"/>
      <point x="5" y="200"/>
      <point x="60" y="200" type="curve" smooth="yes"/>
      <point x="105" y="200"/>
      <point x="146" y="167"/>
      <point x="146" y="111" type="curve" smooth="yes"/>
      <point x="146" y="57"/>
      <point x="103" y="23"/>
      <point x="58" y="23" type="curve" smooth="yes"/>
      <point x="21" y="23"/>
      <point x="-16" y="49"/>
    </contour>
  </outline>
</glyph>
<glyph name="K" format="2">
  <advance width="3110"/>
  <unicode hex="004B"/>
  <outline>
    <contour>
      <point x="-174" y="12" type="line"/>
      <point x="1157" y="12" type="line"/>
      <point x="1157" y="0" type="line"/>
      <point x="-174" y="0" type="line"/>
    </contour>
    <contour>
      <point x="502" y="3072" type="line"/>
      <point x="1874" y="3072" type="line"/>
      <point x="1874" y="3060" type="line"/>
      <point x="502" y="3060" type="line"/>
    </contour>
    <contour>
      <point x="870" y="3072" type="line"/>
      <point x="1505" y="3072" type="line"/>
      <point x="809" y="0" type="line"/>
      <point x="174" y="0" type="line"/>
    </contour>
    <contour>
      <point x="623" y="888" type="line"/>
      <point x="602" y="888" type="line"/>
      <point x="2918" y="3068" type="line"/>
      <point x="2939" y="3068" type="line"/>
    </contour>
    <contour>
      <point x="1390" y="12" type="line"/>
      <point x="2857" y="12" type="line"/>
      <point x="2857" y="0" type="line"/>
      <point x="1390" y="0" type="line"/>
    </contour>
    <contour>
      <point x="3357" y="3060" type="line"/>
      <point x="2374" y="3060" type="line"/>
      <point x="2374" y="3072" type="line"/>
      <point x="3357" y="3072" type="line"/>
    </contour>
    <contour>
      <point x="2517" y="0" type="line"/>
      <point x="1815" y="0" type="line"/>
      <point x="1300" y="1542" type="line"/>
      <point x="1824" y="2007" type="line"/>
    </contour>
  </outline>
</glyph>
<glyph name="M" format="2">
  <advance width="7136"/>
  <unicode hex="004D"/>
  <outline>
    <contour>
      <point x="4144" y="24" type="line"/>
      <point x="6576" y="24" type="line"/>
      <point x="6576" y="0" type="line"/>
      <point x="4144" y="0" type="line"/>
    </contour>
    <contour>
      <point x="7200" y="5976" type="line"/>
      <point x="5936" y="0" type="line"/>
      <point x="4704" y="0" type="line"/>
      <point x="5984" y="6000" type="line"/>
      <point x="7696" y="6000" type="line"/>
      <point x="7696" y="5976" type="line"/>
    </contour>
    <contour>
      <point x="3552" y="1696" type="line"/>
      <point x="5968" y="6000" type="line"/>
      <point x="6000" y="6000" type="line"/>
      <point x="2584" y="-80" type="line"/>
      <point x="2544" y="-80" type="line"/>
      <point x="1600" y="6000" type="line"/>
      <point x="2848" y="6000" type="line"/>
    </contour>
    <contour>
      <point x="1600" y="5976" type="line"/>
      <point x="976" y="5976" type="line"/>
      <point x="976" y="6000" type="line"/>
      <point x="1624" y="6000" type="line"/>
      <point x="352" y="0" type="line"/>
      <point x="328" y="0" type="line"/>
    </contour>
    <contour>
      <point x="-224" y="24" type="line"/>
      <point x="1040" y="24" type="line"/>
      <point x="1040" y="0" type="line"/>
      <point x="-224" y="0" type="line"/>
    </contour>
  </outline>
</glyph>
<glyph name="N" format="2">
  <advance width="5936"/>
  <unicode hex="004E"/>
  <outline>
    <contour>
      <point x="5840" y="6000" type="line"/>
      <point x="5864" y="6000" type="line"/>
      <point x="4480" y="-80" type="line"/>
      <point x="4400" y="-80" type="line"/>
      <point x="1776" y="6000" type="line"/>
      <point x="3264" y="6000" type="line"/>
      <point x="4944" y="2064" type="line"/>
    </contour>
    <contour>
      <point x="4880" y="6000" type="line"/>
      <point x="6704" y="6000" type="line"/>
      <point x="6704" y="5976" type="line"/>
      <point x="4880" y="5976" type="line"/>
    </contour>
    <contour>
      <point x="-304" y="24" type="line"/>
      <point x="1440" y="24" type="line"/>
      <point x="1440" y="0" type="line"/>
      <point x="-304" y="0" type="line"/>
    </contour>
    <contour>
      <point x="1776" y="5976" type="line"/>
      <point x="976" y="5976" type="line"/>
      <point x="976" y="6000" type="line"/>
      <point x="1808" y="6000" type="line"/>
      <point x="480" y="0" type="line"/>
      <point x="448" y="0" type="line"/>
    </contour>
  </outline>
</glyph>
<glyph name="P" format="2">
  <advance width="2744"/>
  <unicode hex="0050"/>
  <outline>
    <contour>
      <point x="870" y="3072" type="line"/>
      <point x="1505" y="3072" type="line"/>
      <point x="788" y="0" type="line"/>
      <point x="154" y="0" type="line"/>
    </contour>
    <contour>
      <point x="-174" y="12" type="line"/>
      <point x="1198" y="12" type="line"/>
      <point x="1198" y="0" type="line"/>
      <point x="-174" y="0" type="line"/>
    </contour>
    <contour>
      <point x="1505" y="1388" type="curve" smooth="yes"/>
      <point x="1055" y="1388" type="line"/>
      <point x="1055" y="1396" type="line"/>
      <point x="1403" y="1396" type="line" smooth="yes"/>
      <point x="1920" y="1396"/>
      <point x="2175" y="2052"/>
      <point x="2175" y="2498" type="curve" smooth="yes"/>
      <point x="2175" y="2740"/>
      <point x="2104" y="3060"/>
      <point x="1813" y="3060" type="curve" smooth="yes"/>
      <point x="502" y="3060" type="line"/>
      <point x="502" y="3072" type="line"/>
      <point x="1915" y="3072" type="line" smooth="yes"/>
      <point x="2451" y="3072"/>
      <point x="2867" y="2888"/>
      <point x="2867" y="2396" type="curve" smooth="yes"/>
      <point x="2867" y="1782"/>
      <point x="2329" y="1388"/>
    </contour>
  </outline>
</glyph>
<glyph name="Q" format="2">
  <advance width="737"/>
  <unicode hex="0051"/>
  <outline>
    <contour>
      <point x="478" y="-247" type="curve"/>
      <point x="478" y="-250" type="line"/>
      <point x="255" y="-250"/>
      <point x="182" y="-169"/>
      <point x="232" y="4" type="curve"/>
      <point x="288" y="-14"/>
      <point x="350" y="-13"/>
      <point x="408" y="4" type="curve"/>
      <point x="358" y="-178"/>
      <point x="390" y="-247"/>
    </contour>
    <contour>
      <point x="488" y="757" type="curve" smooth="yes"/>
      <point x="334" y="757"/>
      <point x="212" y="397"/>
      <point x="212" y="165" type="curve" smooth="yes"/>
      <point x="212" y="63"/>
      <point x="239" y="-7"/>
      <point x="318" y="-7" type="curve" smooth="yes"/>
      <point x="482" y="-7"/>
      <point x="592" y="353"/>
      <point x="592" y="585" type="curve" smooth="yes"/>
      <point x="592" y="667"/>
      <point x="567" y="757"/>
    </contour>
    <contour>
      <point x="318" y="-10" type="curve" smooth="yes"/>
      <point x="150" y="-10"/>
      <point x="52" y="92"/>
      <point x="52" y="255" type="curve" smooth="yes"/>
      <point x="52" y="548"/>
      <point x="275" y="760"/>
      <point x="488" y="760" type="curve" smooth="yes"/>
      <point x="646" y="760"/>
      <point x="752" y="658"/>
      <point x="752" y="495" type="curve" smooth="yes"/>
      <point x="752" y="202"/>
      <point x="541" y="-10"/>
    </contour>
  </outline>
</glyph>
<glyph name="R" format="2">
  <advance width="6136"/>
  <unicode hex="0052"/>
  <outline>
    <contour>
      <point x="5536" y="96" type="line"/>
      <point x="5248" y="-16"/>
      <point x="4992" y="-64"/>
      <point x="4624" y="-64" type="curve" smooth="yes"/>
      <point x="2400" y="-64"/>
      <point x="4784" y="3072"/>
      <point x="2816" y="3072" type="curve" smooth="yes"/>
      <point x="2176" y="3072" type="line"/>
      <point x="2176" y="3088" type="line"/>
      <point x="3184" y="3088" type="line" smooth="yes"/>
      <point x="6128" y="3088"/>
      <point x="4224" y="24"/>
      <point x="5128" y="24" type="curve" smooth="yes"/>
      <point x="5256" y="24"/>
      <point x="5400" y="64"/>
      <point x="5536" y="112" type="curve"/>
    </contour>
    <contour>
      <point x="1856" y="6000" type="line"/>
      <point x="3104" y="6000" type="line"/>
      <point x="1696" y="0" type="line"/>
      <point x="464" y="0" type="line"/>
    </contour>
    <contour>
      <point x="-304" y="24" type="line"/>
      <point x="2576" y="24" type="line"/>
      <point x="2576" y="0" type="line"/>
      <point x="-304" y="0" type="line"/>
    </contour>
    <contour>
      <point x="3184" y="3072" type="curve" smooth="yes"/>
      <point x="2176" y="3072" type="line"/>
      <point x="2176" y="3088" type="line"/>
      <point x="2976" y="3088" type="line" smooth="yes"/>
      <point x="4104" y="3088"/>
      <point x="4520" y="4288"/>
      <point x="4520" y="5000" type="curve" smooth="yes"/>
      <point x="4520" y="5392"/>
      <point x="4400" y="5976"/>
      <point x="3696" y="5976" type="curve" smooth="yes"/>
      <point x="1024" y="5976" type="line"/>
      <point x="1024" y="6000" type="line"/>
      <point x="3984" y="6000" type="line" smooth="yes"/>
      <point x="5032" y="6000"/>
      <point x="5824" y="5680"/>
      <point x="5824" y="4800" type="curve" smooth="yes"/>
      <point x="5824" y="3680"/>
      <point x="4792" y="3072"/>
    </contour>
  </outline>
</glyph>
<glyph name="S" format="2">
  <advance width="4744"/>
  <unicode hex="0053"/>
  <outline>
    <contour>
      <point x="4584" y="4496" type="line"/>
      <point x="4496" y="4864"/>
      <point x="4400" y="5216"/>
      <point x="4128" y="5568" type="curve"/>
      <point x="5008" y="6080" type="line"/>
      <point x="5024" y="6080" type="line"/>
      <point x="4624" y="4280" type="line"/>
      <point x="4592" y="4280" type="line"/>
    </contour>
    <contour>
      <point x="4624" y="4280" type="curve"/>
      <point x="4592" y="4280" type="line"/>
      <point x="4464" y="5312"/>
      <point x="3984" y="6048"/>
      <point x="3024" y="6048" type="curve" smooth="yes"/>
      <point x="2456" y="6048"/>
      <point x="1888" y="5664"/>
      <point x="1888" y="5040" type="curve" smooth="yes"/>
      <point x="1888" y="3680"/>
      <point x="4384" y="4040"/>
      <point x="4384" y="2000" type="curve" smooth="yes"/>
      <point x="4384" y="880"/>
      <point x="3336" y="-120"/>
      <point x="2048" y="-120" type="curve" smooth="yes"/>
      <point x="800" y="-120"/>
      <point x="376" y="840"/>
      <point x="240" y="1800" type="curve"/>
      <point x="272" y="1800" type="line"/>
      <point x="392" y="904"/>
      <point x="800" y="-80"/>
      <point x="2000" y="-80" type="curve" smooth="yes"/>
      <point x="2808" y="-80"/>
      <point x="3360" y="408"/>
      <point x="3360" y="1120" type="curve" smooth="yes"/>
      <point x="3360" y="2720"/>
      <point x="880" y="2240"/>
      <point x="880" y="4120" type="curve" smooth="yes"/>
      <point x="880" y="5400"/>
      <point x="2088" y="6080"/>
      <point x="2976" y="6080" type="curve" smooth="yes"/>
      <point x="4000" y="6080"/>
      <point x="4504" y="5328"/>
    </contour>
    <contour>
      <point x="-160" y="-80" type="line"/>
      <point x="-176" y="-80" type="line"/>
      <point x="240" y="1800" type="line"/>
      <point x="272" y="1800" type="line"/>
      <point x="304" y="1488" type="line"/>
      <point x="408" y="1088"/>
      <point x="544" y="720"/>
      <point x="752" y="464" type="curve"/>
    </contour>
  </outline>
</glyph>
<glyph name="T" format="2">
  <advance width="2751"/>
  <unicode hex="0054"/>
  <outline>
    <contour>
      <point x="380" y="12" type="line"/>
      <point x="1917" y="12" type="line"/>
      <point x="1917" y="0" type="line"/>
      <point x="380" y="0" type="line"/>
    </contour>
    <contour>
      <point x="1524" y="3072" type="line"/>
      <point x="2159" y="3072" type="line"/>
      <point x="1446" y="0" type="line"/>
      <point x="811" y="0" type="line"/>
    </contour>
    <contour>
      <point x="2404" y="3060" type="curve" smooth="yes"/>
      <point x="1237" y="3060" type="line" smooth="yes"/>
      <point x="798" y="3060"/>
      <point x="490" y="2605"/>
      <point x="310" y="2089" type="curve"/>
      <point x="297" y="2089" type="line"/>
      <point x="520" y="3072" type="line"/>
      <point x="3162" y="3072" type="line"/>
      <point x="2939" y="2089" type="line"/>
      <point x="2927" y="2089" type="line"/>
      <point x="2984" y="2609"/>
      <point x="2843" y="3060"/>
    </contour>
  </outline>
</glyph>
<glyph name="U" format="2">
  <advance width="2909"/>
  <unicode hex="0055"/>
  <outline>
    <contour>
      <point x="2501" y="3072" type="line"/>
      <point x="3299" y="3072" type="line"/>
      <point x="3299" y="3060" type="line"/>
      <point x="2501" y="3060" type="line"/>
    </contour>
    <contour>
      <point x="494" y="3072" type="line"/>
      <point x="1907" y="3072" type="line"/>
      <point x="1907" y="3060" type="line"/>
      <point x="494" y="3060" type="line"/>
    </contour>
    <contour>
      <point x="2927" y="3072" type="line"/>
      <point x="2935" y="3072" type="line"/>
      <point x="2443" y="942" type="line" smooth="yes"/>
      <point x="2295" y="298"/>
      <point x="1961" y="-62"/>
      <point x="1313" y="-62" type="curve" smooth="yes"/>
      <point x="645" y="-62"/>
      <point x="235" y="270"/>
      <point x="391" y="942" type="curve" smooth="yes"/>
      <point x="883" y="3072" type="line"/>
      <point x="1517" y="3072" type="line"/>
      <point x="1026" y="984" type="line" smooth="yes"/>
      <point x="908" y="472"/>
      <point x="937" y="-17"/>
      <point x="1444" y="-17" type="curve" smooth="yes"/>
      <point x="1966" y="-17"/>
      <point x="2291" y="316"/>
      <point x="2435" y="942" type="curve" smooth="yes"/>
    </contour>
  </outline>
</glyph>
<glyph name="V" format="2">
  <advance width="3143"/>
  <unicode hex="0056"/>
  <outline>
    <contour>
      <point x="3553" y="3060" type="line"/>
      <point x="2652" y="3060" type="line"/>
      <point x="2652" y="3072" type="line"/>
      <point x="3553" y="3072" type="line"/>
    </contour>
    <contour>
      <point x="1915" y="3060" type="line"/>
      <point x="482" y="3060" type="line"/>
      <point x="482" y="3072" type="line"/>
      <point x="1915" y="3072" type="line"/>
    </contour>
    <contour>
      <point x="1702" y="568" type="line"/>
      <point x="3154" y="3072" type="line"/>
      <point x="3168" y="3072" type="line"/>
      <point x="1370" y="-33" type="line"/>
      <point x="1157" y="-33" type="line"/>
      <point x="768" y="3072" type="line"/>
      <point x="1444" y="3072" type="line"/>
    </contour>
  </outline>
</glyph>
<glyph name="W" format="2">
  <advance width="4486"/>
  <unicode hex="0057"/>
  <outline>
    <contour>
      <point x="1819" y="689" type="line"/>
      <point x="2489" y="1831" type="line"/>
      <point x="2501" y="1831" type="line"/>
      <point x="1403" y="-40" type="line"/>
      <point x="1221" y="-40" type="line"/>
      <point x="817" y="3072" type="line"/>
      <point x="1528" y="3072" type="line"/>
    </contour>
    <contour>
      <point x="2724" y="1708" type="line"/>
      <point x="2711" y="1708" type="line"/>
      <point x="3521" y="3072" type="line"/>
      <point x="3533" y="3072" type="line"/>
    </contour>
    <contour>
      <point x="4897" y="3060" type="line"/>
      <point x="4098" y="3060" type="line"/>
      <point x="4098" y="3072" type="line"/>
      <point x="4897" y="3072" type="line"/>
    </contour>
    <contour>
      <point x="3922" y="3060" type="line"/>
      <point x="482" y="3060" type="line"/>
      <point x="482" y="3072" type="line"/>
      <point x="3922" y="3072" type="line"/>
    </contour>
    <contour>
      <point x="3078" y="691" type="line"/>
      <point x="4489" y="3072" type="line"/>
      <point x="4501" y="3072" type="line"/>
      <point x="2657" y="-40" type="line"/>
      <point x="2535" y="-40" type="line"/>
      <point x="2132" y="3072" type="line"/>
      <point x="2777" y="3072" type="line"/>
    </contour>
  </outline>
</glyph>
<glyph name="X" format="1">
  <advance width="777"/>
  <unicode hex="0058"/>
  <outline>
    <contour>
      <point x="422" y="377" type="line"/>
      <point x="418" y="377" type="line"/>
      <point x="728" y="748" type="line"/>
      <point x="732" y="748" type="line"/>
    </contour>
    <contour>
      <point x="58" y="0" type="line"/>
      <point x="54" y="0" type="line"/>
      <point x="414" y="417" type="line"/>
      <point x="418" y="417" type="line"/>
    </contour>
    <contour>
      <point x="378" y="3" type="line"/>
      <point x="718" y="3" type="line"/>
      <point x="718" y="0" type="line"/>
      <point x="378" y="0" type="line"/>
    </contour>
    <contour>
      <point x="-52" y="3" type="line"/>
      <point x="188" y="3" type="line"/>
      <point x="188" y="0" type="line"/>
      <point x="-52" y="0" type="line"/>
    </contour>
    <contour>
      <point x="492" y="747" type="line"/>
      <point x="152" y="747" type="line"/>
      <point x="152" y="750" type="line"/>
      <point x="492" y="750" type="line"/>
    </contour>
    <contour>
      <point x="838" y="747" type="line"/>
      <point x="618" y="747" type="line"/>
      <point x="618" y="750" type="line"/>
      <point x="838" y="750" type="line"/>
    </contour>
    <contour>
      <point x="648" y="0" type="line"/>
      <point x="474" y="0" type="line"/>
      <point x="222" y="750" type="line"/>
      <point x="394" y="750" type="line"/>
    </contour>
  </outline>
</glyph>
<glyph name="Y" format="2">
  <advance width="3081"/>
  <unicode hex="0059"/>
  <outline>
    <contour>
      <point x="3492" y="3060" type="line"/>
      <point x="2632" y="3060" type="line"/>
      <point x="2632" y="3072" type="line"/>
      <point x="3492" y="3072" type="line"/>
    </contour>
    <contour>
      <point x="1897" y="3060" type="line"/>
      <point x="482" y="3060" type="line"/>
      <point x="482" y="3072" type="line"/>
      <point x="1897" y="3072" type="line"/>
    </contour>
    <contour>
      <point x="625" y="12" type="line"/>
      <point x="2038" y="12" type="line"/>
      <point x="2038" y="0" type="line"/>
      <point x="625" y="0" type="line"/>
    </contour>
    <contour>
      <point x="1968" y="1595" type="line"/>
      <point x="3131" y="3064" type="line"/>
      <point x="3147" y="3064" type="line"/>
      <point x="1972" y="1579" type="line"/>
      <point x="1628" y="0" type="line"/>
      <point x="993" y="0" type="line"/>
      <point x="1341" y="1544" type="line"/>
      <point x="768" y="3072" type="line"/>
      <point x="1466" y="3072" type="line"/>
    </contour>
  </outline>
</glyph>
<glyph name="Z" format="2">
  <advance width="4848"/>
  <unicode hex="005A"/>
  <outline>
    <contour>
      <point x="3832" y="5976" type="line"/>
      <point x="2736" y="5976" type="line" smooth="yes"/>
      <point x="1640" y="5976"/>
      <point x="1128" y="5376"/>
      <point x="768" y="4520" type="curve"/>
      <point x="744" y="4520" type="line"/>
      <point x="1088" y="6000" type="line"/>
      <point x="5376" y="6000" type="line"/>
      <point x="5376" y="5976" type="line"/>
      <point x="1120" y="24" type="line"/>
      <point x="2464" y="24" type="line" smooth="yes"/>
      <point x="3560" y="24"/>
      <point x="4024" y="632"/>
      <point x="4456" y="1640" type="curve"/>
      <point x="4480" y="1640" type="line"/>
      <point x="4096" y="0" type="line"/>
      <point x="-416" y="0" type="line"/>
      <point x="-416" y="24" type="line"/>
    </contour>
  </outline>
</glyph>
<glyph name="bracketleft" format="1">
  <advance width="370"/>
  <unicode hex="005B"/>
  <outline>
    <contour>
      <point x="200" y="780" type="line"/>
      <point x="475" y="780" type="line"/>
      <point x="475" y="777" type="line"/>
      <point x="339" y="777" type="line"/>
      <point x="131" y="-147" type="line"/>
      <point x="265" y="-147" type="line"/>
      <point x="265" y="-150" type="line"/>
      <point x="-10" y="-150" type="line"/>
    </contour>
  </outline>
</glyph>
<glyph name="grave" format="2">
  <advance width="1657"/>
  <unicode hex="0060"/>
  <outline>
    <contour>
      <point x="1041" y="2870" type="line" smooth="yes"/>
      <point x="902" y="2847"/>
      <point x="774" y="2953"/>
      <point x="774" y="3092" type="curve" smooth="yes"/>
      <point x="774" y="3231"/>
      <point x="924" y="3373"/>
      <point x="1081" y="3310" type="curve" smooth="yes"/>
      <point x="1989" y="2974" type="line"/>
      <point x="1985" y="2966" type="line"/>
    </contour>
  </outline>
</glyph>
<glyph name="a" format="2">
  <advance width="5120"/>
  <unicode hex="0061"/>
  <outline>
    <contour>
      <point x="3024" y="2512" type="curve" smooth="yes"/>
      <point x="3024" y="3016"/>
      <point x="2888" y="3504"/>
      <point x="2560" y="3504" type="curve" smooth="yes"/>
      <point x="2008" y="3504"/>
      <point x="1352" y="2072"/>
      <point x="1352" y="1000" type="curve" smooth="yes"/>
      <point x="1352" y="488"/>
      <point x="1504" y="160"/>
      <point x="1792" y="160" type="curve" smooth="yes"/>
      <point x="2488" y="160"/>
      <point x="3024" y="1640"/>
    </contour>
    <contour>
      <point x="3040" y="2512" type="curve" smooth="yes"/>
      <point x="3040" y="1648"/>
      <point x="2520" y="-80"/>
      <point x="1392" y="-80" type="curve" smooth="yes"/>
      <point x="840" y="-80"/>
      <point x="120" y="240"/>
      <point x="120" y="1280" type="curve" smooth="yes"/>
      <point x="120" y="2880"/>
      <point x="1376" y="3760"/>
      <point x="2208" y="3760" type="curve" smooth="yes"/>
      <point x="2816" y="3760"/>
      <point x="3040" y="3248"/>
    </contour>
    <contour>
      <point x="4960" y="1304" type="line"/>
      <point x="4656" y="504"/>
      <point x="4104" y="-80"/>
      <point x="3336" y="-80" type="curve" smooth="yes"/>
      <point x="2840" y="-80"/>
      <point x="2648" y="144"/>
      <point x="2648" y="544" type="curve" smooth="yes"/>
      <point x="2648" y="584"/>
      <point x="2656" y="696"/>
      <point x="2672" y="760" type="curve" smooth="yes"/>
      <point x="2848" y="1440" type="line"/>
      <point x="2992" y="1976" type="line"/>
      <point x="3024" y="2352" type="line"/>
      <point x="3376" y="3680" type="line"/>
      <point x="4464" y="3680" type="line"/>
      <point x="3616" y="376" type="line" smooth="yes"/>
      <point x="3608" y="328"/>
      <point x="3600" y="272"/>
      <point x="3600" y="232" type="curve" smooth="yes"/>
      <point x="3600" y="144"/>
      <point x="3640" y="64"/>
      <point x="3744" y="64" type="curve" smooth="yes"/>
      <point x="4192" y="64"/>
      <point x="4696" y="640"/>
      <point x="4944" y="1312" type="curve"/>
    </contour>
  </outline>
</glyph>
<glyph name="a" format="1">
  <advance width="640"/>
  <unicode hex="0061"/>
  <outline>
    <contour>
      <point x="378" y="314" type="curve" smooth="yes"/>
      <point x="378" y="377"/>
      <point x="361" y="438"/>
      <point x="320" y="438" type="curve" smooth="yes"/>
      <point x="251" y="438"/>
      <point x="169" y="259"/>
      <point x="169" y="125" type="curve" smooth="yes"/>
      <point x="169" y="61"/>
      <point x="188" y="20"/>
      <point x="224" y="20" type="curve" smooth="yes"/>
      <point x="311" y="20"/>
      <point x="378" y="205"/>
    </contour>
    <contour>
      <point x="380" y="314" type="curve" smooth="yes"/>
      <point x="380" y="206"/>
      <point x="315" y="-10"/>
      <point x="174" y="-10" type="curve" smooth="yes"/>
      <point x="105" y="-10"/>
      <point x="15" y="30"/>
      <point x="15" y="160" type="curve" smooth="yes"/>
      <point x="15" y="360"/>
      <point x="172" y="470"/>
      <point x="276" y="470" type="curve" smooth="yes"/>
      <point x="352" y="470"/>
      <point x="380" y="406"/>
    </contour>
    <contour>
      <point x="620" y="163" type="line"/>
      <point x="582" y="63"/>
      <point x="513" y="-10"/>
      <point x="417" y="-10" type="curve" smooth="yes"/>
      <point x="355" y="-10"/>
      <point x="331" y="18"/>
      <point x="331" y="68" type="curve" smooth="yes"/>
      <point x="331" y="73"/>
      <point x="332" y="87"/>
      <point x="334" y="95" type="curve" smooth="yes"/>
      <point x="356" y="180" type="line"/>
      <point x="374" y="247" type="line"/>
      <point x="378" y="294" type="line"/>
      <point x="422" y="460" type="line"/>
      <point x="558" y="460" type="line"/>
      <point x="452" y="47" type="line" smooth="yes"/>
      <point x="451" y="41"/>
      <point x="450" y="34"/>
      <point x="450" y="29" type="curve" smooth="yes"/>
      <point x="450" y="18"/>
      <point x="455" y="8"/>
      <point x="468" y="8" type="curve" smooth="yes"/>
      <point x="524" y="8"/>
      <point x="587" y="80"/>
      <point x="618" y="164" type="curve"/>
    </contour>
  </outline>
</glyph>
<glyph name="b" format="2">
  <advance width="608"/>
  <unicode hex="0062"/>
  <outline>
    <contour>
      <point x="208" y="747" type="line"/>
      <point x="131" y="747" type="line"/>
      <point x="131" y="750" type="line"/>
      <point x="349" y="750" type="line"/>
      <point x="203" y="115" type="line"/>
      <point x="203" y="56"/>
      <point x="216" y="-7"/>
      <point x="257" y="-7" type="curve" smooth="yes"/>
      <point x="336" y="-7"/>
      <point x="424" y="200"/>
      <point x="424" y="334" type="curve" smooth="yes"/>
      <point x="424" y="388"/>
      <point x="405" y="438"/>
      <point x="369" y="438" type="curve" smooth="yes"/>
      <point x="311" y="438"/>
      <point x="256" y="349"/>
      <point x="229" y="230" type="curve"/>
      <point x="227" y="230" type="line"/>
      <point x="266" y="402"/>
      <point x="340" y="469"/>
      <point x="421" y="469" type="curve" smooth="yes"/>
      <point x="488" y="469"/>
      <point x="578" y="438"/>
      <point x="578" y="310" type="curve" smooth="yes"/>
      <point x="578" y="100"/>
      <point x="420" y="-10"/>
      <point x="256" y="-10" type="curve" smooth="yes"/>
      <point x="175" y="-10"/>
      <point x="110" y="37"/>
      <point x="65" y="120" type="curve"/>
    </contour>
  </outline>
</glyph>
<glyph name="c" format="2">
  <advance width="3952"/>
  <unicode hex="0063"/>
  <outline>
    <contour>
      <point x="3776" y="2944" type="curve"/>
      <point x="3704" y="3360"/>
      <point x="3280" y="3704"/>
      <point x="2720" y="3704" type="curve" smooth="yes"/>
      <point x="1808" y="3704"/>
      <point x="1352" y="2072"/>
      <point x="1352" y="1080" type="curve" smooth="yes"/>
      <point x="1352" y="408"/>
      <point x="1488" y="40"/>
      <point x="1840" y="40" type="curve" smooth="yes"/>
      <point x="2320" y="40"/>
      <point x="2920" y="376"/>
      <point x="3368" y="1144" type="curve"/>
      <point x="3392" y="1144" type="line"/>
      <point x="2944" y="368"/>
      <point x="2280" y="-80"/>
      <point x="1472" y="-80" type="curve" smooth="yes"/>
      <point x="824" y="-80"/>
      <point x="120" y="240"/>
      <point x="120" y="1240" type="curve" smooth="yes"/>
      <point x="120" y="2760"/>
      <point x="1336" y="3760"/>
      <point x="2544" y="3760" type="curve" smooth="yes"/>
      <point x="3280" y="3760"/>
      <point x="3832" y="3368"/>
      <point x="3832" y="2752" type="curve" smooth="yes"/>
      <point x="3832" y="2304"/>
      <point x="3536" y="2032"/>
      <point x="3176" y="2032" type="curve" smooth="yes"/>
      <point x="2856" y="2032"/>
      <point x="2520" y="2240"/>
      <point x="2520" y="2640" type="curve" smooth="yes"/>
      <point x="2520" y="3040"/>
      <point x="2896" y="3264"/>
      <point x="3168" y="3264" type="curve" smooth="yes"/>
      <point x="3504" y="3264"/>
      <point x="3696" y="3128"/>
    </contour>
  </outline>
</glyph>
<glyph name="d" format="2">
  <advance width="5200"/>
  <unicode hex="0064"/>
  <outline>
    <contour>
      <point x="5040" y="1304" type="line"/>
      <point x="4736" y="504"/>
      <point x="4184" y="-80"/>
      <point x="3416" y="-80" type="curve" smooth="yes"/>
      <point x="2920" y="-80"/>
      <point x="2664" y="104"/>
      <point x="2664" y="584" type="curve" smooth="yes"/>
      <point x="2664" y="624"/>
      <point x="2680" y="712"/>
      <point x="2688" y="760" type="curve" smooth="yes"/>
      <point x="2848" y="1456" type="line"/>
      <point x="2992" y="2008" type="line"/>
      <point x="3024" y="2328" type="line"/>
      <point x="3856" y="5976" type="line"/>
      <point x="3120" y="5976" type="line"/>
      <point x="3120" y="6000" type="line"/>
      <point x="4976" y="6000" type="line"/>
      <point x="3696" y="376" type="line" smooth="yes"/>
      <point x="3688" y="328"/>
      <point x="3680" y="272"/>
      <point x="3680" y="232" type="curve" smooth="yes"/>
      <point x="3680" y="144"/>
      <point x="3712" y="64"/>
      <point x="3824" y="64" type="curve" smooth="yes"/>
      <point x="4264" y="64"/>
      <point x="4784" y="624"/>
      <point x="5024" y="1312" type="curve"/>
    </contour>
    <contour>
      <point x="3024" y="2512" type="curve" smooth="yes"/>
      <point x="3024" y="3016"/>
      <point x="2888" y="3504"/>
      <point x="2560" y="3504" type="curve" smooth="yes"/>
      <point x="2008" y="3504"/>
      <point x="1352" y="2072"/>
      <point x="1352" y="1000" type="curve" smooth="yes"/>
      <point x="1352" y="488"/>
      <point x="1504" y="160"/>
      <point x="1792" y="160" type="curve" smooth="yes"/>
      <point x="2488" y="160"/>
      <point x="3024" y="1640"/>
    </contour>
    <contour>
      <point x="3040" y="2512" type="curve" smooth="yes"/>
      <point x="3040" y="1648"/>
      <point x="2520" y="-80"/>
      <point x="1392" y="-80" type="curve" smooth="yes"/>
      <point x="840" y="-80"/>
      <point x="120" y="240"/>
      <point x="120" y="1280" type="curve" smooth="yes"/>
      <point x="120" y="2880"/>
      <point x="1376" y="3760"/>
      <point x="2208" y="3760" type="curve" smooth="yes"/>
      <point x="2816" y="3760"/>
      <point x="3040" y="3248"/>
    </contour>
  </outline>
</glyph>
<glyph name="e" format="2">
  <advance width="509"/>
  <unicode hex="0065"/>
  <outline>
    <contour>
      <point x="169" y="116" type="curve" smooth="yes"/>
      <point x="169" y="57"/>
      <point x="185" y="2"/>
      <point x="234" y="2" type="curve" smooth="yes"/>
      <point x="312" y="2"/>
      <point x="396" y="67"/>
      <point x="441" y="143" type="curve"/>
      <point x="444" y="143" type="line"/>
      <point x="400" y="66"/>
      <point x="310" y="-10"/>
      <point x="199" y="-10" type="curve" smooth="yes"/>
      <point x="103" y="-10"/>
      <point x="15" y="35"/>
      <point x="15" y="155" type="curve" smooth="yes"/>
      <point x="15" y="343"/>
      <point x="175" y="470"/>
      <point x="321" y="470" type="curve" smooth="yes"/>
      <point x="418" y="470"/>
      <point x="494" y="439"/>
      <point x="494" y="367" type="curve" smooth="yes"/>
      <point x="494" y="227"/>
      <point x="266" y="212"/>
      <point x="155" y="212" type="curve"/>
      <point x="155" y="214" type="line"/>
      <point x="229" y="214"/>
      <point x="363" y="248"/>
      <point x="363" y="387" type="curve" smooth="yes"/>
      <point x="363" y="424"/>
      <point x="356" y="467"/>
      <point x="328" y="467" type="curve" smooth="yes"/>
      <point x="259" y="467"/>
      <point x="169" y="270"/>
    </contour>
  </outline>
</glyph>
<glyph name="f" format="2">
  <advance width="3320"/>
  <unicode hex="0066"/>
  <outline>
    <contour>
      <point x="552" y="3680" type="line"/>
      <point x="3472" y="3680" type="line"/>
      <point x="3472" y="3656" type="line"/>
      <point x="552" y="3656" type="line"/>
    </contour>
    <contour>
      <point x="4528" y="5392" type="curve"/>
      <point x="4448" y="5696"/>
      <point x="4064" y="6048"/>
      <point x="3536" y="6048" type="curve" smooth="yes"/>
      <point x="2976" y="6048"/>
      <point x="2608" y="5296"/>
      <point x="2432" y="4320" type="curve" smooth="yes"/>
      <point x="1648" y="-96" type="line" smooth="yes"/>
      <point x="1424" y="-1376"/>
      <point x="544" y="-2080"/>
      <point x="-496" y="-2080" type="curve" smooth="yes"/>
      <point x="-1264" y="-2080"/>
      <point x="-1664" y="-1584"/>
      <point x="-1664" y="-1168" type="curve" smooth="yes"/>
      <point x="-1664" y="-760"/>
      <point x="-1408" y="-512"/>
      <point x="-1048" y="-512" type="curve" smooth="yes"/>
      <point x="-728" y="-512"/>
      <point x="-400" y="-704"/>
      <point x="-400" y="-1104" type="curve" smooth="yes"/>
      <point x="-400" y="-1504"/>
      <point x="-688" y="-1728"/>
      <point x="-1040" y="-1728" type="curve" smooth="yes"/>
      <point x="-1296" y="-1728"/>
      <point x="-1504" y="-1584"/>
      <point x="-1584" y="-1392" type="curve"/>
      <point x="-1504" y="-1696"/>
      <point x="-1120" y="-2048"/>
      <point x="-592" y="-2048" type="curve" smooth="yes"/>
      <point x="-32" y="-2048"/>
      <point x="336" y="-1296"/>
      <point x="512" y="-320" type="curve" smooth="yes"/>
      <point x="1296" y="4096" type="line" smooth="yes"/>
      <point x="1520" y="5376"/>
      <point x="2400" y="6080"/>
      <point x="3440" y="6080" type="curve" smooth="yes"/>
      <point x="4208" y="6080"/>
      <point x="4600" y="5584"/>
      <point x="4600" y="5168" type="curve" smooth="yes"/>
      <point x="4600" y="4760"/>
      <point x="4344" y="4512"/>
      <point x="3984" y="4512" type="curve" smooth="yes"/>
      <point x="3664" y="4512"/>
      <point x="3336" y="4704"/>
      <point x="3336" y="5104" type="curve" smooth="yes"/>
      <point x="3336" y="5504"/>
      <point x="3632" y="5728"/>
      <point x="3984" y="5728" type="curve" smooth="yes"/>
      <point x="4240" y="5728"/>
      <point x="4448" y="5584"/>
    </contour>
  </outline>
</glyph>
<glyph name="g" format="2">
  <advance width="2584"/>
  <unicode hex="0067"/>
  <outline>
    <contour>
      <point x="580" y="-123" type="line"/>
      <point x="437" y="-164"/>
      <point x="313" y="-349"/>
      <point x="313" y="-582" type="curve" smooth="yes"/>
      <point x="313" y="-840"/>
      <point x="440" y="-1050"/>
      <point x="793" y="-1050" type="curve" smooth="yes"/>
      <point x="1158" y="-1050"/>
      <point x="1728" y="-878"/>
      <point x="1728" y="-438" type="curve" smooth="yes"/>
      <point x="1728" y="-216"/>
      <point x="1598" y="-139"/>
      <point x="1372" y="-139" type="curve" smooth="yes"/>
      <point x="1286" y="-139"/>
      <point x="899" y="-139"/>
      <point x="809" y="-139" type="curve" smooth="yes"/>
      <point x="441" y="-139"/>
      <point x="142" y="-33"/>
      <point x="142" y="221" type="curve" smooth="yes"/>
      <point x="142" y="547"/>
      <point x="658" y="668"/>
      <point x="990" y="668" type="curve"/>
      <point x="990" y="656" type="line"/>
      <point x="854" y="656"/>
      <point x="532" y="626"/>
      <point x="532" y="475" type="curve" smooth="yes"/>
      <point x="532" y="385"/>
      <point x="710" y="344"/>
      <point x="936" y="344" type="curve" smooth="yes"/>
      <point x="1080" y="344"/>
      <point x="1257" y="348"/>
      <point x="1371" y="348" type="curve" smooth="yes"/>
      <point x="1740" y="348"/>
      <point x="1925" y="180"/>
      <point x="1925" y="-172" type="curve" smooth="yes"/>
      <point x="1925" y="-750"/>
      <point x="1338" y="-1064"/>
      <point x="785" y="-1064" type="curve" smooth="yes"/>
      <point x="302" y="-1064"/>
      <point x="-184" y="-960"/>
      <point x="-184" y="-632" type="curve" smooth="yes"/>
      <point x="-184" y="-239"/>
      <point x="371" y="-123"/>
      <point x="555" y="-123" type="curve" smooth="yes"/>
    </contour>
    <contour>
      <point x="2666" y="1569" type="curve" smooth="yes"/>
      <point x="2666" y="1344"/>
      <point x="2529" y="1266"/>
      <point x="2406" y="1266" type="curve" smooth="yes"/>
      <point x="2283" y="1266"/>
      <point x="2151" y="1344"/>
      <point x="2151" y="1521" type="curve" smooth="yes"/>
      <point x="2151" y="1656"/>
      <point x="2274" y="1766"/>
      <point x="2419" y="1766" type="curve" smooth="yes"/>
      <point x="2550" y="1766"/>
      <point x="2646" y="1669"/>
      <point x="2658" y="1583" type="curve"/>
      <point x="2640" y="1794"/>
      <point x="2497" y="1892"/>
      <point x="2313" y="1892" type="curve" smooth="yes"/>
      <point x="2127" y="1892"/>
      <point x="1885" y="1760"/>
      <point x="1698" y="1418" type="curve"/>
      <point x="1688" y="1422" type="line"/>
      <point x="1872" y="1774"/>
      <point x="2129" y="1904"/>
      <point x="2313" y="1904" type="curve" smooth="yes"/>
      <point x="2554" y="1904"/>
      <point x="2666" y="1739"/>
    </contour>
    <contour>
      <point x="996" y="668" type="curve" smooth="yes"/>
      <point x="1237" y="668"/>
      <point x="1422" y="1252"/>
      <point x="1422" y="1597" type="curve" smooth="yes"/>
      <point x="1422" y="1736"/>
      <point x="1381" y="1912"/>
      <point x="1262" y="1912" type="curve" smooth="yes"/>
      <point x="1021" y="1912"/>
      <point x="836" y="1328"/>
      <point x="836" y="983" type="curve" smooth="yes"/>
      <point x="836" y="844"/>
      <point x="877" y="668"/>
    </contour>
    <contour>
      <point x="986" y="656" type="curve" smooth="yes"/>
      <point x="593" y="656"/>
      <point x="276" y="800"/>
      <point x="276" y="1168" type="curve" smooth="yes"/>
      <point x="276" y="1618"/>
      <point x="756" y="1926"/>
      <point x="1272" y="1926" type="curve" smooth="yes"/>
      <point x="1665" y="1926"/>
      <point x="1980" y="1782"/>
      <point x="1980" y="1414" type="curve" smooth="yes"/>
      <point x="1980" y="964"/>
      <point x="1502" y="656"/>
    </contour>
  </outline>
</glyph>
<glyph name="h" format="2">
  <advance width="620"/>
  <unicode hex="0068"/>
  <outline>
    <contour>
      <point x="377" y="306" type="line" smooth="yes"/>
      <point x="403" y="382"/>
      <point x="412" y="456"/>
      <point x="376" y="456" type="curve" smooth="yes"/>
      <point x="299" y="456"/>
      <point x="234" y="326"/>
      <point x="198" y="173" type="curve"/>
      <point x="196" y="173" type="line"/>
      <point x="236" y="329"/>
      <point x="290" y="470"/>
      <point x="408" y="470" type="curve" smooth="yes"/>
      <point x="510" y="470"/>
      <point x="552" y="402"/>
      <point x="521" y="308" type="curve" smooth="yes"/>
      <point x="432" y="40" type="line" smooth="yes"/>
      <point x="430" y="34"/>
      <point x="429" y="27"/>
      <point x="429" y="22" type="curve" smooth="yes"/>
      <point x="429" y="11"/>
      <point x="435" y="4"/>
      <point x="448" y="4" type="curve" smooth="yes"/>
      <point x="504" y="4"/>
      <point x="564" y="70"/>
      <point x="598" y="164" type="curve"/>
      <point x="600" y="163" type="line"/>
      <point x="562" y="63"/>
      <point x="503" y="-10"/>
      <point x="407" y="-10" type="curve" smooth="yes"/>
      <point x="340" y="-10"/>
      <point x="304" y="18"/>
      <point x="304" y="71" type="curve" smooth="yes"/>
      <point x="304" y="86"/>
      <point x="307" y="98"/>
      <point x="309" y="107" type="curve" smooth="yes"/>
    </contour>
    <contour>
      <point x="192" y="747" type="line"/>
      <point x="122" y="747" type="line"/>
      <point x="122" y="750" type="line"/>
      <point x="332" y="750" type="line"/>
      <point x="158" y="0" type="line"/>
      <point x="18" y="0" type="line"/>
    </contour>
  </outline>
</glyph>
<glyph name="i" format="2">
  <advance width="2936"/>
  <unicode hex="0069"/>
  <outline>
    <contour>
      <point x="1184" y="5400" type="curve" smooth="yes"/>
      <point x="1184" y="5784"/>
      <point x="1488" y="6080"/>
      <point x="1872" y="6080" type="curve" smooth="yes"/>
      <point x="2256" y="6080"/>
      <point x="2544" y="5784"/>
      <point x="2544" y="5400" type="curve" smooth="yes"/>
      <point x="2544" y="5016"/>
      <point x="2256" y="4720"/>
      <point x="1872" y="4720" type="curve" smooth="yes"/>
      <point x="1488" y="4720"/>
      <point x="1184" y="5016"/>
    </contour>
    <contour>
      <point x="2768" y="1304" type="line"/>
      <point x="2464" y="504"/>
      <point x="1920" y="-80"/>
      <point x="1152" y="-80" type="curve" smooth="yes"/>
      <point x="656" y="-80"/>
      <point x="400" y="104"/>
      <point x="400" y="584" type="curve" smooth="yes"/>
      <point x="400" y="624"/>
      <point x="400" y="712"/>
      <point x="416" y="760" type="curve" smooth="yes"/>
      <point x="1112" y="3656" type="line"/>
      <point x="496" y="3656" type="line"/>
      <point x="496" y="3680" type="line"/>
      <point x="2240" y="3680" type="line"/>
      <point x="1432" y="376" type="line" smooth="yes"/>
      <point x="1424" y="328"/>
      <point x="1416" y="272"/>
      <point x="1416" y="232" type="curve" smooth="yes"/>
      <point x="1416" y="144"/>
      <point x="1456" y="64"/>
      <point x="1560" y="64" type="curve" smooth="yes"/>
      <point x="1976" y="64"/>
      <point x="2480" y="568"/>
      <point x="2752" y="1312" type="curve"/>
    </contour>
  </outline>
</glyph>
<glyph name="i" format="1">
  <advance width="367"/>
  <unicode hex="0069"/>
  <outline>
    <contour>
      <point x="148" y="675" type="curve" smooth="yes"/>
      <point x="148" y="723"/>
      <point x="186" y="760"/>
      <point x="234" y="760" type="curve" smooth="yes"/>
      <point x="282" y="760"/>
      <point x="318" y="723"/>
      <point x="318" y="675" type="curve" smooth="yes"/>
      <point x="318" y="627"/>
      <point x="282" y="590"/>
      <point x="234" y="590" type="curve" smooth="yes"/>
      <point x="186" y="590"/>
      <point x="148" y="627"/>
    </contour>
    <contour>
      <point x="346" y="163" type="line"/>
      <point x="308" y="63"/>
      <point x="240" y="-10"/>
      <point x="144" y="-10" type="curve" smooth="yes"/>
      <point x="82" y="-10"/>
      <point x="50" y="13"/>
      <point x="50" y="73" type="curve" smooth="yes"/>
      <point x="50" y="78"/>
      <point x="50" y="89"/>
      <point x="52" y="95" type="curve" smooth="yes"/>
      <point x="139" y="457" type="line"/>
      <point x="62" y="457" type="line"/>
      <point x="62" y="460" type="line"/>
      <point x="280" y="460" type="line"/>
      <point x="179" y="47" type="line" smooth="yes"/>
      <point x="178" y="41"/>
      <point x="177" y="34"/>
      <point x="177" y="29" type="curve" smooth="yes"/>
      <point x="177" y="18"/>
      <point x="182" y="8"/>
      <point x="195" y="8" type="curve" smooth="yes"/>
      <point x="247" y="8"/>
      <point x="310" y="71"/>
      <point x="344" y="164" type="curve"/>
    </contour>
  </outline>
</glyph>
<glyph name="j" format="2">
  <advance width="299"/>
  <unicode hex="006A"/>
  <outline>
    <contour>
      <point x="154" y="675" type="curve" smooth="yes"/>
      <point x="154" y="723"/>
      <point x="192" y="760"/>
      <point x="240" y="760" type="curve" smooth="yes"/>
      <point x="288" y="760"/>
      <point x="324" y="723"/>
      <point x="324" y="675" type="curve" smooth="yes"/>
      <point x="324" y="627"/>
      <point x="288" y="590"/>
      <point x="240" y="590" type="curve" smooth="yes"/>
      <point x="192" y="590"/>
      <point x="154" y="627"/>
    </contour>
    <contour>
      <point x="-194" y="-171" type="curve"/>
      <point x="-182" y="-213"/>
      <point x="-132" y="-256"/>
      <point x="-72" y="-256" type="curve" smooth="yes"/>
      <point x="23" y="-256"/>
      <point x="17" y="-100"/>
      <point x="45" y="20" type="curve" smooth="yes"/>
      <point x="147" y="457" type="line"/>
      <point x="53" y="457" type="line"/>
      <point x="53" y="460" type="line"/>
      <point x="286" y="460" type="line"/>
      <point x="188" y="-12" type="line" smooth="yes"/>
      <point x="162" y="-137"/>
      <point x="63" y="-260"/>
      <point x="-67" y="-260" type="curve" smooth="yes"/>
      <point x="-148" y="-260"/>
      <point x="-205" y="-198"/>
      <point x="-205" y="-146" type="curve" smooth="yes"/>
      <point x="-205" y="-95"/>
      <point x="-163" y="-59"/>
      <point x="-118" y="-59" type="curve" smooth="yes"/>
      <point x="-78" y="-59"/>
      <point x="-42" y="-88"/>
      <point x="-42" y="-130" type="curve" smooth="yes"/>
      <point x="-42" y="-177"/>
      <point x="-82" y="-210"/>
      <point x="-128" y="-210" type="curve" smooth="yes"/>
      <point x="-162" y="-210"/>
      <point x="-182" y="-191"/>
    </contour>
  </outline>
</glyph>
<glyph name="k" format="2">
  <advance width="4912"/>
  <unicode hex="006B"/>
  <outline>
    <contour>
      <point x="4736" y="1304" type="line"/>
      <point x="4432" y="504"/>
      <point x="3920" y="-80"/>
      <point x="3192" y="-80" type="curve" smooth="yes"/>
      <point x="2696" y="-80"/>
      <point x="2384" y="104"/>
      <point x="2384" y="584" type="curve" smooth="yes"/>
      <point x="2384" y="624"/>
      <point x="2392" y="712"/>
      <point x="2400" y="760" type="curve" smooth="yes"/>
      <point x="2480" y="1120" type="line" smooth="yes"/>
      <point x="2576" y="1584"/>
      <point x="2872" y="2240"/>
      <point x="2440" y="2240" type="curve" smooth="yes"/>
      <point x="2032" y="2240"/>
      <point x="1896" y="1832"/>
      <point x="1832" y="1520" type="curve"/>
      <point x="1816" y="1520" type="line"/>
      <point x="1968" y="2200"/>
      <point x="2240" y="2336"/>
      <point x="2688" y="2336" type="curve" smooth="yes"/>
      <point x="3240" y="2336"/>
      <point x="3776" y="2008"/>
      <point x="3536" y="968" type="curve" smooth="yes"/>
      <point x="3376" y="248" type="line" smooth="yes"/>
      <point x="3376" y="232"/>
      <point x="3376" y="192"/>
      <point x="3376" y="176" type="curve" smooth="yes"/>
      <point x="3376" y="88"/>
      <point x="3432" y="48"/>
      <point x="3536" y="48" type="curve" smooth="yes"/>
      <point x="3984" y="48"/>
      <point x="4464" y="616"/>
      <point x="4720" y="1312" type="curve"/>
    </contour>
    <contour>
      <point x="1784" y="2576" type="curve"/>
      <point x="1808" y="2552" type="line"/>
      <point x="1816" y="2152"/>
      <point x="1952" y="1960"/>
      <point x="2192" y="1960" type="curve" smooth="yes"/>
      <point x="2512" y="1960"/>
      <point x="2688" y="2376"/>
      <point x="2896" y="2888" type="curve" smooth="yes"/>
      <point x="3120" y="3432"/>
      <point x="3456" y="3760"/>
      <point x="3896" y="3760" type="curve" smooth="yes"/>
      <point x="4336" y="3760"/>
      <point x="4720" y="3448"/>
      <point x="4720" y="2952" type="curve" smooth="yes"/>
      <point x="4720" y="2552"/>
      <point x="4448" y="2312"/>
      <point x="4128" y="2312" type="curve" smooth="yes"/>
      <point x="3808" y="2312"/>
      <point x="3568" y="2568"/>
      <point x="3568" y="2872" type="curve" smooth="yes"/>
      <point x="3568" y="3176"/>
      <point x="3824" y="3408"/>
      <point x="4128" y="3408" type="curve" smooth="yes"/>
      <point x="4408" y="3408"/>
      <point x="4624" y="3240"/>
      <point x="4688" y="3032" type="curve"/>
      <point x="4648" y="3448"/>
      <point x="4328" y="3736"/>
      <point x="3896" y="3736" type="curve" smooth="yes"/>
      <point x="3480" y="3736"/>
      <point x="3152" y="3440"/>
      <point x="2920" y="2872" type="curve" smooth="yes"/>
      <point x="2696" y="2328"/>
      <point x="2512" y="1936"/>
      <point x="2192" y="1936" type="curve" smooth="yes"/>
      <point x="1936" y="1936"/>
      <point x="1784" y="2160"/>
    </contour>
    <contour>
      <point x="1744" y="5976" type="line"/>
      <point x="1032" y="5976" type="line"/>
      <point x="1032" y="6000" type="line"/>
      <point x="2872" y="6000" type="line"/>
      <point x="1480" y="0" type="line"/>
      <point x="360" y="0" type="line"/>
    </contour>
  </outline>
</glyph>
<glyph name="l" format="1">
  <advance width="356"/>
  <unicode hex="006C"/>
  <outline>
    <contour>
      <point x="336" y="163" type="line"/>
      <point x="298" y="63"/>
      <point x="230" y="-10"/>
      <point x="134" y="-10" type="curve" smooth="yes"/>
      <point x="72" y="-10"/>
      <point x="40" y="13"/>
      <point x="40" y="73" type="curve" smooth="yes"/>
      <point x="40" y="78"/>
      <point x="41" y="89"/>
      <point x="42" y="95" type="curve" smooth="yes"/>
      <point x="192" y="747" type="line"/>
      <point x="98" y="747" type="line"/>
      <point x="98" y="750" type="line"/>
      <point x="332" y="750" type="line"/>
      <point x="169" y="47" type="line" smooth="yes"/>
      <point x="168" y="41"/>
      <point x="167" y="34"/>
      <point x="167" y="29" type="curve" smooth="yes"/>
      <point x="167" y="18"/>
      <point x="172" y="8"/>
      <point x="185" y="8" type="curve" smooth="yes"/>
      <point x="237" y="8"/>
      <point x="300" y="74"/>
      <point x="334" y="164" type="curve"/>
    </contour>
  </outline>
</glyph>
<glyph name="m" format="2">
  <advance width="7200"/>
  <unicode hex="006D"/>
  <outline>
    <contour>
      <point x="5256" y="2448" type="line" smooth="yes"/>
      <point x="5464" y="3056"/>
      <point x="5528" y="3616"/>
      <point x="5240" y="3616" type="curve" smooth="yes"/>
      <point x="4696" y="3616"/>
      <point x="4168" y="2712"/>
      <point x="3856" y="1384" type="curve"/>
      <point x="3840" y="1384" type="line"/>
      <point x="4144" y="2600"/>
      <point x="4600" y="3760"/>
      <point x="5528" y="3760" type="curve" smooth="yes"/>
      <point x="6344" y="3760"/>
      <point x="6656" y="3216"/>
      <point x="6408" y="2464" type="curve" smooth="yes"/>
      <point x="5696" y="320" type="line" smooth="yes"/>
      <point x="5680" y="272"/>
      <point x="5672" y="216"/>
      <point x="5672" y="176" type="curve" smooth="yes"/>
      <point x="5672" y="88"/>
      <point x="5720" y="32"/>
      <point x="5824" y="32" type="curve" smooth="yes"/>
      <point x="6280" y="32"/>
      <point x="6752" y="560"/>
      <point x="7024" y="1312" type="curve"/>
      <point x="7040" y="1304" type="line"/>
      <point x="6736" y="504"/>
      <point x="6264" y="-80"/>
      <point x="5496" y="-80" type="curve" smooth="yes"/>
      <point x="4960" y="-80"/>
      <point x="4672" y="144"/>
      <point x="4672" y="568" type="curve" smooth="yes"/>
      <point x="4672" y="688"/>
      <point x="4696" y="784"/>
      <point x="4712" y="856" type="curve" smooth="yes"/>
    </contour>
    <contour>
      <point x="3520" y="0" type="line"/>
      <point x="2400" y="0" type="line"/>
      <point x="3000" y="2464" type="line" smooth="yes"/>
      <point x="3152" y="3096"/>
      <point x="3280" y="3616"/>
      <point x="2992" y="3616" type="curve" smooth="yes"/>
      <point x="2416" y="3616"/>
      <point x="1896" y="2632"/>
      <point x="1608" y="1384" type="curve"/>
      <point x="1592" y="1384" type="line"/>
      <point x="1880" y="2592"/>
      <point x="2336" y="3760"/>
      <point x="3280" y="3760" type="curve" smooth="yes"/>
      <point x="4096" y="3760"/>
      <point x="4320" y="3272"/>
      <point x="4144" y="2552" type="curve" smooth="yes"/>
    </contour>
    <contour>
      <point x="1032" y="3656" type="line"/>
      <point x="480" y="3656" type="line"/>
      <point x="480" y="3680" type="line"/>
      <point x="2160" y="3680" type="line"/>
      <point x="1280" y="0" type="line"/>
      <point x="160" y="0" type="line"/>
    </contour>
  </outline>
</glyph>
<glyph name="n" format="2">
  <advance width="625"/>
  <unicode hex="006E"/>
  <outline>
    <contour>
      <point x="127" y="457" type="line"/>
      <point x="58" y="457" type="line"/>
      <point x="58" y="460" type="line"/>
      <point x="268" y="460" type="line"/>
      <point x="158" y="0" type="line"/>
      <point x="18" y="0" type="line"/>
    </contour>
    <contour>
      <point x="377" y="306" type="line" smooth="yes"/>
      <point x="403" y="382"/>
      <point x="412" y="456"/>
      <point x="376" y="456" type="curve" smooth="yes"/>
      <point x="299" y="456"/>
      <point x="234" y="326"/>
      <point x="198" y="173" type="curve"/>
      <point x="196" y="173" type="line"/>
      <point x="236" y="329"/>
      <point x="290" y="470"/>
      <point x="408" y="470" type="curve" smooth="yes"/>
      <point x="510" y="470"/>
      <point x="552" y="402"/>
      <point x="521" y="308" type="curve" smooth="yes"/>
      <point x="432" y="40" type="line" smooth="yes"/>
      <point x="430" y="34"/>
      <point x="429" y="27"/>
      <point x="429" y="22" type="curve" smooth="yes"/>
      <point x="429" y="11"/>
      <point x="435" y="4"/>
      <point x="448" y="4" type="curve" smooth="yes"/>
      <point x="504" y="4"/>
      <point x="566" y="70"/>
      <point x="600" y="164" type="curve"/>
      <point x="602" y="163" type="line"/>
      <point x="564" y="63"/>
      <point x="503" y="-10"/>
      <point x="407" y="-10" type="curve" smooth="yes"/>
      <point x="340" y="-10"/>
      <point x="304" y="18"/>
      <point x="304" y="71" type="curve" smooth="yes"/>
      <point x="304" y="86"/>
      <point x="307" y="98"/>
      <point x="309" y="107" type="curve" smooth="yes"/>
    </contour>
  </outline>
</glyph>
<glyph name="o" format="2">
  <advance width="4416"/>
  <unicode hex="006F"/>
  <outline>
    <contour>
      <point x="1712" y="-80" type="curve" smooth="yes"/>
      <point x="944" y="-80"/>
      <point x="120" y="320"/>
      <point x="120" y="1320" type="curve" smooth="yes"/>
      <point x="120" y="2840"/>
      <point x="1336" y="3760"/>
      <point x="2584" y="3760" type="curve" smooth="yes"/>
      <point x="3352" y="3760"/>
      <point x="4176" y="3360"/>
      <point x="4176" y="2360" type="curve" smooth="yes"/>
      <point x="4176" y="840"/>
      <point x="2960" y="-80"/>
    </contour>
    <contour>
      <point x="1712" y="-48" type="curve" smooth="yes"/>
      <point x="2504" y="-48"/>
      <point x="3024" y="1848"/>
      <point x="3024" y="2840" type="curve" smooth="yes"/>
      <point x="3024" y="3392"/>
      <point x="2896" y="3728"/>
      <point x="2584" y="3728" type="curve" smooth="yes"/>
      <point x="1792" y="3728"/>
      <point x="1272" y="1832"/>
      <point x="1272" y="840" type="curve" smooth="yes"/>
      <point x="1272" y="288"/>
      <point x="1400" y="-48"/>
    </contour>
  </outline>
</glyph>
<glyph name="o" format="1">
  <advance width="552"/>
  <unicode hex="006F"/>
  <outline>
    <contour>
      <point x="214" y="-10" type="curve" smooth="yes"/>
      <point x="118" y="-10"/>
      <point x="15" y="40"/>
      <point x="15" y="165" type="curve" smooth="yes"/>
      <point x="15" y="355"/>
      <point x="167" y="470"/>
      <point x="323" y="470" type="curve" smooth="yes"/>
      <point x="419" y="470"/>
      <point x="522" y="420"/>
      <point x="522" y="295" type="curve" smooth="yes"/>
      <point x="522" y="105"/>
      <point x="370" y="-10"/>
    </contour>
    <contour>
      <point x="214" y="-6" type="curve" smooth="yes"/>
      <point x="313" y="-6"/>
      <point x="378" y="231"/>
      <point x="378" y="355" type="curve" smooth="yes"/>
      <point x="378" y="424"/>
      <point x="362" y="466"/>
      <point x="323" y="466" type="curve" smooth="yes"/>
      <point x="224" y="466"/>
      <point x="159" y="229"/>
      <point x="159" y="105" type="curve" smooth="yes"/>
      <point x="159" y="36"/>
      <point x="175" y="-6"/>
    </contour>
  </outline>
</glyph>
<glyph name="p" format="2">
  <advance width="4800"/>
  <unicode hex="0070"/>
  <outline>
    <contour>
      <point x="1688" y="1168" type="curve" smooth="yes"/>
      <point x="1688" y="664"/>
      <point x="1816" y="176"/>
      <point x="2144" y="176" type="curve" smooth="yes"/>
      <point x="2696" y="176"/>
      <point x="3368" y="1600"/>
      <point x="3368" y="2672" type="curve" smooth="yes"/>
      <point x="3368" y="3184"/>
      <point x="3200" y="3520"/>
      <point x="2912" y="3520" type="curve" smooth="yes"/>
      <point x="2216" y="3520"/>
      <point x="1688" y="2040"/>
    </contour>
    <contour>
      <point x="1672" y="1168" type="curve" smooth="yes"/>
      <point x="1672" y="2032"/>
      <point x="2184" y="3760"/>
      <point x="3312" y="3760" type="curve" smooth="yes"/>
      <point x="3864" y="3760"/>
      <point x="4600" y="3440"/>
      <point x="4600" y="2400" type="curve" smooth="yes"/>
      <point x="4600" y="800"/>
      <point x="3336" y="-80"/>
      <point x="2504" y="-80" type="curve" smooth="yes"/>
      <point x="1896" y="-80"/>
      <point x="1672" y="432"/>
    </contour>
    <contour>
      <point x="-760" y="-1976" type="line"/>
      <point x="1440" y="-1976" type="line"/>
      <point x="1440" y="-2000" type="line"/>
      <point x="-760" y="-2000" type="line"/>
    </contour>
    <contour>
      <point x="1064" y="3656" type="line"/>
      <point x="496" y="3656" type="line"/>
      <point x="496" y="3680" type="line"/>
      <point x="2192" y="3680" type="line"/>
      <point x="1856" y="2232" type="line"/>
      <point x="1760" y="1824" type="line"/>
      <point x="1712" y="1528" type="line"/>
      <point x="880" y="-2000" type="line"/>
      <point x="-240" y="-2000" type="line"/>
    </contour>
  </outline>
</glyph>
<glyph name="q" format="2">
  <advance width="2396"/>
  <unicode hex="0071"/>
  <outline>
    <contour>
      <point x="1860" y="-1012" type="line"/>
      <point x="1860" y="-1024" type="line"/>
      <point x="774" y="-1024" type="line"/>
      <point x="774" y="-1012" type="line"/>
    </contour>
    <contour>
      <point x="1573" y="-1024" type="line"/>
      <point x="1040" y="-1024" type="line"/>
      <point x="1442" y="686" type="line"/>
      <point x="1476" y="784"/>
      <point x="1506" y="907"/>
      <point x="1530" y="1030" type="curve"/>
      <point x="1550" y="1198" type="line"/>
      <point x="1704" y="1844" type="line"/>
      <point x="2252" y="1926" type="line"/>
    </contour>
    <contour>
      <point x="1546" y="1286" type="curve" smooth="yes"/>
      <point x="1546" y="1545"/>
      <point x="1480" y="1792"/>
      <point x="1313" y="1792" type="curve" smooth="yes"/>
      <point x="1030" y="1792"/>
      <point x="693" y="1060"/>
      <point x="693" y="512" type="curve" smooth="yes"/>
      <point x="693" y="250"/>
      <point x="770" y="82"/>
      <point x="917" y="82" type="curve" smooth="yes"/>
      <point x="1273" y="82"/>
      <point x="1546" y="840"/>
    </contour>
    <contour>
      <point x="1558" y="1286" type="curve" smooth="yes"/>
      <point x="1558" y="844"/>
      <point x="1290" y="-40"/>
      <point x="712" y="-40" type="curve" smooth="yes"/>
      <point x="430" y="-40"/>
      <point x="62" y="124"/>
      <point x="62" y="656" type="curve" smooth="yes"/>
      <point x="62" y="1476"/>
      <point x="704" y="1924"/>
      <point x="1130" y="1924" type="curve" smooth="yes"/>
      <point x="1442" y="1924"/>
      <point x="1558" y="1662"/>
    </contour>
  </outline>
</glyph>
<glyph name="r" format="2">
  <advance width="476"/>
  <unicode hex="0072"/>
  <outline>
    <contour>
      <point x="501" y="364" type="curve" smooth="yes"/>
      <point x="501" y="318"/>
      <point x="471" y="278"/>
      <point x="418" y="278" type="curve" smooth="yes"/>
      <point x="370" y="278"/>
      <point x="334" y="308"/>
      <point x="334" y="358" type="curve" smooth="yes"/>
      <point x="334" y="403"/>
      <point x="369" y="440"/>
      <point x="418" y="440" type="curve" smooth="yes"/>
      <point x="456" y="440"/>
      <point x="482" y="418"/>
      <point x="493" y="392" type="curve"/>
      <point x="480" y="440"/>
      <point x="434" y="467"/>
      <point x="389" y="467" type="curve" smooth="yes"/>
      <point x="273" y="467"/>
      <point x="228" y="271"/>
      <point x="204" y="173" type="curve"/>
      <point x="202" y="173" type="line"/>
      <point x="227" y="279"/>
      <point x="272" y="470"/>
      <point x="389" y="470" type="curve" smooth="yes"/>
      <point x="445" y="470"/>
      <point x="501" y="428"/>
    </contour>
    <contour>
      <point x="134" y="457" type="line"/>
      <point x="60" y="457" type="line"/>
      <point x="60" y="460" type="line"/>
      <point x="270" y="460" type="line"/>
      <point x="165" y="0" type="line"/>
      <point x="25" y="0" type="line"/>
    </contour>
  </outline>
</glyph>
<glyph name="s" format="2">
  <advance width="452"/>
  <unicode hex="0073"/>
  <outline>
    <contour>
      <point x="400" y="385" type="curve"/>
      <point x="390" y="429"/>
      <point x="334" y="466"/>
      <point x="249" y="466" type="curve" smooth="yes"/>
      <point x="191" y="466"/>
      <point x="157" y="433"/>
      <point x="157" y="397" type="curve" smooth="yes"/>
      <point x="157" y="297"/>
      <point x="382" y="285"/>
      <point x="382" y="152" type="curve" smooth="yes"/>
      <point x="382" y="58"/>
      <point x="287" y="-12"/>
      <point x="175" y="-12" type="curve" smooth="yes"/>
      <point x="46" y="-12"/>
      <point x="-5" y="55"/>
      <point x="-5" y="110" type="curve" smooth="yes"/>
      <point x="-5" y="156"/>
      <point x="31" y="182"/>
      <point x="66" y="182" type="curve" smooth="yes"/>
      <point x="96" y="182"/>
      <point x="134" y="161"/>
      <point x="134" y="116" type="curve" smooth="yes"/>
      <point x="134" y="76"/>
      <point x="101" y="51"/>
      <point x="67" y="51" type="curve" smooth="yes"/>
      <point x="33" y="51"/>
      <point x="6" y="74"/>
      <point x="2" y="94" type="curve"/>
      <point x="11" y="43"/>
      <point x="63" y="-9"/>
      <point x="175" y="-9" type="curve" smooth="yes"/>
      <point x="245" y="-9"/>
      <point x="289" y="27"/>
      <point x="289" y="73" type="curve" smooth="yes"/>
      <point x="289" y="165"/>
      <point x="61" y="171"/>
      <point x="61" y="317" type="curve" smooth="yes"/>
      <point x="61" y="416"/>
      <point x="161" y="469"/>
      <point x="249" y="469" type="curve" smooth="yes"/>
      <point x="347" y="469"/>
      <point x="407" y="420"/>
      <point x="407" y="368" type="curve" smooth="yes"/>
      <point x="407" y="327"/>
      <point x="379" y="303"/>
      <point x="344" y="303" type="curve" smooth="yes"/>
      <point x="314" y="303"/>
      <point x="280" y="324"/>
      <point x="280" y="364" type="curve" smooth="yes"/>
      <point x="280" y="399"/>
      <point x="309" y="424"/>
      <point x="342" y="424" type="curve" smooth="yes"/>
      <point x="372" y="424"/>
      <point x="390" y="409"/>
    </contour>
  </outline>
</glyph>
<glyph name="t" format="2">
  <advance width="1496"/>
  <unicode hex="0074"/>
  <outline>
    <contour>
      <point x="187" y="1884" type="line"/>
      <point x="1497" y="1884" type="line"/>
      <point x="1497" y="1872" type="line"/>
      <point x="187" y="1872" type="line"/>
    </contour>
    <contour>
      <point x="1407" y="668" type="line"/>
      <point x="1251" y="258"/>
      <point x="969" y="-40"/>
      <point x="576" y="-40" type="curve" smooth="yes"/>
      <point x="322" y="-40"/>
      <point x="186" y="54"/>
      <point x="186" y="299" type="curve" smooth="yes"/>
      <point x="186" y="319"/>
      <point x="190" y="365"/>
      <point x="196" y="389" type="curve" smooth="yes"/>
      <point x="633" y="2294" type="line"/>
      <point x="1202" y="2294" type="line"/>
      <point x="719" y="193" type="line" smooth="yes"/>
      <point x="715" y="169"/>
      <point x="711" y="139"/>
      <point x="711" y="119" type="curve" smooth="yes"/>
      <point x="711" y="73"/>
      <point x="731" y="41"/>
      <point x="785" y="41" type="curve" smooth="yes"/>
      <point x="1035" y="41"/>
      <point x="1274" y="342"/>
      <point x="1399" y="672" type="curve"/>
    </contour>
  </outline>
</glyph>
<glyph name="u" format="2">
  <advance width="2684"/>
  <unicode hex="0075"/>
  <outline>
    <contour>
      <point x="1120" y="1884" type="line"/>
      <point x="815" y="583" type="line" smooth="yes"/>
      <point x="741" y="259"/>
      <point x="723" y="49"/>
      <point x="883" y="49" type="curve" smooth="yes"/>
      <point x="1139" y="49"/>
      <point x="1415" y="527"/>
      <point x="1575" y="1176" type="curve"/>
      <point x="1588" y="1176" type="line"/>
      <point x="1414" y="519"/>
      <point x="1175" y="-40"/>
      <point x="702" y="-40" type="curve" smooth="yes"/>
      <point x="304" y="-40"/>
      <point x="174" y="242"/>
      <point x="248" y="578" type="curve" smooth="yes"/>
      <point x="538" y="1872" type="line"/>
      <point x="252" y="1872" type="line"/>
      <point x="252" y="1884" type="line"/>
    </contour>
    <contour>
      <point x="2603" y="668" type="line"/>
      <point x="2447" y="258"/>
      <point x="2165" y="-40"/>
      <point x="1772" y="-40" type="curve" smooth="yes"/>
      <point x="1518" y="-40"/>
      <point x="1384" y="54"/>
      <point x="1384" y="299" type="curve" smooth="yes"/>
      <point x="1384" y="319"/>
      <point x="1388" y="365"/>
      <point x="1392" y="389" type="curve" smooth="yes"/>
      <point x="1730" y="1884" type="line"/>
      <point x="2308" y="1884" type="line"/>
      <point x="1913" y="193" type="line" smooth="yes"/>
      <point x="1909" y="169"/>
      <point x="1905" y="139"/>
      <point x="1905" y="119" type="curve" smooth="yes"/>
      <point x="1905" y="73"/>
      <point x="1925" y="41"/>
      <point x="1979" y="41" type="curve" smooth="yes"/>
      <point x="2227" y="41"/>
      <point x="2470" y="338"/>
      <point x="2595" y="672" type="curve"/>
    </contour>
  </outline>
</glyph>
<glyph name="u" format="1">
  <advance width="655"/>
  <unicode hex="0075"/>
  <outline>
    <contour>
      <point x="274" y="460" type="line"/>
      <point x="199" y="142" type="line" smooth="yes"/>
      <point x="181" y="63"/>
      <point x="177" y="12"/>
      <point x="216" y="12" type="curve" smooth="yes"/>
      <point x="278" y="12"/>
      <point x="345" y="129"/>
      <point x="384" y="287" type="curve"/>
      <point x="388" y="287" type="line"/>
      <point x="346" y="127"/>
      <point x="288" y="-10"/>
      <point x="172" y="-10" type="curve" smooth="yes"/>
      <point x="75" y="-10"/>
      <point x="42" y="59"/>
      <point x="60" y="141" type="curve" smooth="yes"/>
      <point x="132" y="457" type="line"/>
      <point x="62" y="457" type="line"/>
      <point x="62" y="460" type="line"/>
    </contour>
    <contour>
      <point x="636" y="163" type="line"/>
      <point x="598" y="63"/>
      <point x="528" y="-10"/>
      <point x="432" y="-10" type="curve" smooth="yes"/>
      <point x="370" y="-10"/>
      <point x="338" y="13"/>
      <point x="338" y="73" type="curve" smooth="yes"/>
      <point x="338" y="78"/>
      <point x="339" y="89"/>
      <point x="340" y="95" type="curve" smooth="yes"/>
      <point x="422" y="460" type="line"/>
      <point x="564" y="460" type="line"/>
      <point x="467" y="47" type="line" smooth="yes"/>
      <point x="466" y="41"/>
      <point x="465" y="34"/>
      <point x="465" y="29" type="curve" smooth="yes"/>
      <point x="465" y="18"/>
      <point x="470" y="10"/>
      <point x="483" y="10" type="curve" smooth="yes"/>
      <point x="543" y="10"/>
      <point x="604" y="82"/>
      <point x="634" y="164" type="curve"/>
    </contour>
  </outline>
</glyph>
<glyph name="v" format="2">
  <advance width="4808"/>
  <unicode hex="0076"/>
  <outline>
    <contour>
      <point x="2144" y="1056" type="line" smooth="yes"/>
      <point x="2040" y="424"/>
      <point x="1952" y="16"/>
      <point x="2400" y="16" type="curve" smooth="yes"/>
      <point x="3264" y="16"/>
      <point x="4664" y="1424"/>
      <point x="4664" y="2752" type="curve" smooth="yes"/>
      <point x="4664" y="2944"/>
      <point x="4632" y="3056"/>
      <point x="4600" y="3120" type="curve"/>
      <point x="4592" y="2848"/>
      <point x="4304" y="2440"/>
      <point x="3864" y="2440" type="curve" smooth="yes"/>
      <point x="3400" y="2440"/>
      <point x="3176" y="2776"/>
      <point x="3176" y="3096" type="curve" smooth="yes"/>
      <point x="3176" y="3456"/>
      <point x="3472" y="3752"/>
      <point x="3888" y="3752" type="curve" smooth="yes"/>
      <point x="4432" y="3752"/>
      <point x="4688" y="3280"/>
      <point x="4688" y="2752" type="curve" smooth="yes"/>
      <point x="4688" y="1416"/>
      <point x="3280" y="-80"/>
      <point x="2136" y="-80" type="curve" smooth="yes"/>
      <point x="1240" y="-80"/>
      <point x="904" y="432"/>
      <point x="1040" y="1168" type="curve" smooth="yes"/>
      <point x="1424" y="3304" type="line" smooth="yes"/>
      <point x="1432" y="3352"/>
      <point x="1440" y="3408"/>
      <point x="1440" y="3448" type="curve" smooth="yes"/>
      <point x="1440" y="3536"/>
      <point x="1392" y="3600"/>
      <point x="1272" y="3600" type="curve" smooth="yes"/>
      <point x="752" y="3600"/>
      <point x="352" y="2968"/>
      <point x="96" y="2368" type="curve"/>
      <point x="80" y="2376" type="line"/>
      <point x="424" y="3176"/>
      <point x="856" y="3760"/>
      <point x="1704" y="3760" type="curve" smooth="yes"/>
      <point x="2240" y="3760"/>
      <point x="2464" y="3536"/>
      <point x="2464" y="3152" type="curve" smooth="yes"/>
      <point x="2464" y="3032"/>
      <point x="2448" y="2960"/>
      <point x="2432" y="2864" type="curve" smooth="yes"/>
    </contour>
  </outline>
</glyph>
<glyph name="v" format="1">
  <advance width="601"/>
  <unicode hex="0076"/>
  <outline>
    <contour>
      <point x="268" y="132" type="line" smooth="yes"/>
      <point x="255" y="53"/>
      <point x="244" y="2"/>
      <point x="300" y="2" type="curve" smooth="yes"/>
      <point x="408" y="2"/>
      <point x="583" y="178"/>
      <point x="583" y="344" type="curve" smooth="yes"/>
      <point x="583" y="368"/>
      <point x="579" y="382"/>
      <point x="575" y="390" type="curve"/>
      <point x="574" y="356"/>
      <point x="538" y="305"/>
      <point x="483" y="305" type="curve" smooth="yes"/>
      <point x="425" y="305"/>
      <point x="397" y="347"/>
      <point x="397" y="387" type="curve" smooth="yes"/>
      <point x="397" y="432"/>
      <point x="434" y="469"/>
      <point x="486" y="469" type="curve" smooth="yes"/>
      <point x="554" y="469"/>
      <point x="586" y="410"/>
      <point x="586" y="344" type="curve" smooth="yes"/>
      <point x="586" y="177"/>
      <point x="410" y="-10"/>
      <point x="267" y="-10" type="curve" smooth="yes"/>
      <point x="155" y="-10"/>
      <point x="113" y="54"/>
      <point x="130" y="146" type="curve" smooth="yes"/>
      <point x="178" y="413" type="line" smooth="yes"/>
      <point x="179" y="419"/>
      <point x="180" y="426"/>
      <point x="180" y="431" type="curve" smooth="yes"/>
      <point x="180" y="442"/>
      <point x="174" y="450"/>
      <point x="159" y="450" type="curve" smooth="yes"/>
      <point x="94" y="450"/>
      <point x="44" y="371"/>
      <point x="12" y="296" type="curve"/>
      <point x="10" y="297" type="line"/>
      <point x="53" y="397"/>
      <point x="107" y="470"/>
      <point x="213" y="470" type="curve" smooth="yes"/>
      <point x="280" y="470"/>
      <point x="308" y="442"/>
      <point x="308" y="394" type="curve" smooth="yes"/>
      <point x="308" y="379"/>
      <point x="306" y="370"/>
      <point x="304" y="358" type="curve" smooth="yes"/>
    </contour>
  </outline>
</glyph>
<glyph name="w" format="2">
  <advance width="7192"/>
  <unicode hex="0077"/>
  <outline>
    <contour>
      <point x="1840" y="1176" type="line" smooth="yes"/>
      <point x="1632" y="560"/>
      <point x="1640" y="48"/>
      <point x="2008" y="48" type="curve" smooth="yes"/>
      <point x="2688" y="48"/>
      <point x="3224" y="1096"/>
      <point x="3512" y="2296" type="curve"/>
      <point x="3536" y="2296" type="line"/>
      <point x="3232" y="1160"/>
      <point x="2784" y="-80"/>
      <point x="1696" y="-80" type="curve" smooth="yes"/>
      <point x="840" y="-80"/>
      <point x="480" y="416"/>
      <point x="720" y="1128" type="curve" smooth="yes"/>
      <point x="1448" y="3304" type="line" smooth="yes"/>
      <point x="1464" y="3352"/>
      <point x="1472" y="3408"/>
      <point x="1472" y="3448" type="curve" smooth="yes"/>
      <point x="1472" y="3536"/>
      <point x="1408" y="3600"/>
      <point x="1296" y="3600" type="curve" smooth="yes"/>
      <point x="784" y="3600"/>
      <point x="392" y="3056"/>
      <point x="96" y="2368" type="curve"/>
      <point x="80" y="2376" type="line"/>
      <point x="424" y="3176"/>
      <point x="856" y="3760"/>
      <point x="1704" y="3760" type="curve" smooth="yes"/>
      <point x="2200" y="3760"/>
      <point x="2464" y="3560"/>
      <point x="2464" y="3136" type="curve" smooth="yes"/>
      <point x="2464" y="3016"/>
      <point x="2448" y="2920"/>
      <point x="2432" y="2864" type="curve" smooth="yes"/>
    </contour>
    <contour>
      <point x="3840" y="3680" type="line"/>
      <point x="4960" y="3680" type="line"/>
      <point x="4432" y="1440" type="line" smooth="yes"/>
      <point x="4272" y="768"/>
      <point x="4296" y="16"/>
      <point x="4928" y="16" type="curve" smooth="yes"/>
      <point x="6176" y="16"/>
      <point x="7048" y="1792"/>
      <point x="7048" y="2752" type="curve" smooth="yes"/>
      <point x="7048" y="2896"/>
      <point x="7024" y="3024"/>
      <point x="7008" y="3072" type="curve"/>
      <point x="6976" y="2704"/>
      <point x="6680" y="2440"/>
      <point x="6232" y="2440" type="curve" smooth="yes"/>
      <point x="5792" y="2440"/>
      <point x="5552" y="2776"/>
      <point x="5552" y="3096" type="curve" smooth="yes"/>
      <point x="5552" y="3456"/>
      <point x="5856" y="3752"/>
      <point x="6256" y="3752" type="curve" smooth="yes"/>
      <point x="6720" y="3752"/>
      <point x="7072" y="3360"/>
      <point x="7072" y="2752" type="curve" smooth="yes"/>
      <point x="7072" y="1872"/>
      <point x="6272" y="-80"/>
      <point x="4712" y="-80" type="curve" smooth="yes"/>
      <point x="3960" y="-80"/>
      <point x="3008" y="272"/>
      <point x="3360" y="1696" type="curve"/>
    </contour>
  </outline>
</glyph>
<glyph name="x" format="2">
  <advance width="4888"/>
  <unicode hex="0078"/>
  <outline>
    <contour>
      <point x="2592" y="1936" type="line"/>
      <point x="3072" y="2720"/>
      <point x="3456" y="3760"/>
      <point x="4208" y="3760" type="curve" smooth="yes"/>
      <point x="4776" y="3760"/>
      <point x="5008" y="3328"/>
      <point x="5008" y="2992" type="curve" smooth="yes"/>
      <point x="5008" y="2624"/>
      <point x="4768" y="2352"/>
      <point x="4384" y="2352" type="curve" smooth="yes"/>
      <point x="3984" y="2352"/>
      <point x="3792" y="2688"/>
      <point x="3792" y="2968" type="curve" smooth="yes"/>
      <point x="3792" y="3264"/>
      <point x="4040" y="3568"/>
      <point x="4408" y="3568" type="curve" smooth="yes"/>
      <point x="4664" y="3568"/>
      <point x="4856" y="3408"/>
      <point x="4952" y="3184" type="curve"/>
      <point x="4872" y="3488"/>
      <point x="4608" y="3736"/>
      <point x="4208" y="3736" type="curve" smooth="yes"/>
      <point x="3472" y="3736"/>
      <point x="3104" y="2736"/>
      <point x="2608" y="1920" type="curve"/>
    </contour>
    <contour>
      <point x="2416" y="1984" type="line"/>
      <point x="1848" y="1040"/>
      <point x="1400" y="-80"/>
      <point x="648" y="-80" type="curve" smooth="yes"/>
      <point x="80" y="-80"/>
      <point x="-160" y="352"/>
      <point x="-160" y="688" type="curve" smooth="yes"/>
      <point x="-160" y="1056"/>
      <point x="80" y="1328"/>
      <point x="464" y="1328" type="curve" smooth="yes"/>
      <point x="864" y="1328"/>
      <point x="1064" y="992"/>
      <point x="1064" y="712" type="curve" smooth="yes"/>
      <point x="1064" y="416"/>
      <point x="824" y="112"/>
      <point x="440" y="112" type="curve" smooth="yes"/>
      <point x="144" y="112"/>
      <point x="-48" y="336"/>
      <point x="-112" y="560" type="curve"/>
      <point x="-40" y="176"/>
      <point x="248" y="-56"/>
      <point x="648" y="-56" type="curve" smooth="yes"/>
      <point x="1384" y="-56"/>
      <point x="1840" y="1080"/>
      <point x="2400" y="2000" type="curve"/>
    </contour>
    <contour>
      <point x="4528" y="872" type="line"/>
      <point x="4272" y="192"/>
      <point x="3856" y="-80"/>
      <point x="3280" y="-80" type="curve" smooth="yes"/>
      <point x="2664" y="-80"/>
      <point x="2416" y="200"/>
      <point x="2256" y="664" type="curve" smooth="yes"/>
      <point x="2032" y="1336"/>
      <point x="1640" y="2832"/>
      <point x="1432" y="3408" type="curve" smooth="yes"/>
      <point x="1400" y="3496"/>
      <point x="1344" y="3600"/>
      <point x="1184" y="3600" type="curve" smooth="yes"/>
      <point x="936" y="3600"/>
      <point x="680" y="3296"/>
      <point x="480" y="2784" type="curve"/>
      <point x="464" y="2792" type="line"/>
      <point x="720" y="3472"/>
      <point x="1072" y="3776"/>
      <point x="1728" y="3776" type="curve" smooth="yes"/>
      <point x="2344" y="3776"/>
      <point x="2560" y="3496"/>
      <point x="2720" y="3032" type="curve" smooth="yes"/>
      <point x="2960" y="2328"/>
      <point x="3280" y="1072"/>
      <point x="3560" y="296" type="curve" smooth="yes"/>
      <point x="3592" y="208"/>
      <point x="3680" y="96"/>
      <point x="3808" y="96" type="curve" smooth="yes"/>
      <point x="4032" y="96"/>
      <point x="4320" y="392"/>
      <point x="4512" y="880" type="curve"/>
    </contour>
  </outline>
</glyph>
<glyph name="x" format="1">
  <advance width="611"/>
  <unicode hex="0078"/>
  <outline>
    <contour>
      <point x="324" y="242" type="line"/>
      <point x="384" y="340"/>
      <point x="432" y="470"/>
      <point x="526" y="470" type="curve" smooth="yes"/>
      <point x="597" y="470"/>
      <point x="626" y="416"/>
      <point x="626" y="374" type="curve" smooth="yes"/>
      <point x="626" y="328"/>
      <point x="596" y="294"/>
      <point x="548" y="294" type="curve" smooth="yes"/>
      <point x="498" y="294"/>
      <point x="474" y="336"/>
      <point x="474" y="371" type="curve" smooth="yes"/>
      <point x="474" y="408"/>
      <point x="505" y="446"/>
      <point x="551" y="446" type="curve" smooth="yes"/>
      <point x="583" y="446"/>
      <point x="607" y="426"/>
      <point x="619" y="398" type="curve"/>
      <point x="609" y="436"/>
      <point x="576" y="467"/>
      <point x="526" y="467" type="curve" smooth="yes"/>
      <point x="434" y="467"/>
      <point x="388" y="342"/>
      <point x="326" y="240" type="curve"/>
    </contour>
    <contour>
      <point x="302" y="248" type="line"/>
      <point x="231" y="130"/>
      <point x="175" y="-10"/>
      <point x="81" y="-10" type="curve" smooth="yes"/>
      <point x="10" y="-10"/>
      <point x="-20" y="44"/>
      <point x="-20" y="86" type="curve" smooth="yes"/>
      <point x="-20" y="132"/>
      <point x="10" y="166"/>
      <point x="58" y="166" type="curve" smooth="yes"/>
      <point x="108" y="166"/>
      <point x="133" y="124"/>
      <point x="133" y="89" type="curve" smooth="yes"/>
      <point x="133" y="52"/>
      <point x="103" y="14"/>
      <point x="55" y="14" type="curve" smooth="yes"/>
      <point x="18" y="14"/>
      <point x="-6" y="42"/>
      <point x="-14" y="70" type="curve"/>
      <point x="-5" y="22"/>
      <point x="31" y="-7"/>
      <point x="81" y="-7" type="curve" smooth="yes"/>
      <point x="173" y="-7"/>
      <point x="230" y="135"/>
      <point x="300" y="250" type="curve"/>
    </contour>
    <contour>
      <point x="566" y="109" type="line"/>
      <point x="534" y="24"/>
      <point x="482" y="-10"/>
      <point x="410" y="-10" type="curve" smooth="yes"/>
      <point x="333" y="-10"/>
      <point x="302" y="25"/>
      <point x="282" y="83" type="curve" smooth="yes"/>
      <point x="254" y="167"/>
      <point x="205" y="354"/>
      <point x="179" y="426" type="curve" smooth="yes"/>
      <point x="175" y="437"/>
      <point x="168" y="450"/>
      <point x="148" y="450" type="curve" smooth="yes"/>
      <point x="117" y="450"/>
      <point x="85" y="412"/>
      <point x="60" y="348" type="curve"/>
      <point x="58" y="349" type="line"/>
      <point x="90" y="434"/>
      <point x="134" y="472"/>
      <point x="216" y="472" type="curve" smooth="yes"/>
      <point x="293" y="472"/>
      <point x="320" y="437"/>
      <point x="340" y="379" type="curve" smooth="yes"/>
      <point x="370" y="291"/>
      <point x="410" y="134"/>
      <point x="445" y="37" type="curve" smooth="yes"/>
      <point x="449" y="26"/>
      <point x="460" y="12"/>
      <point x="476" y="12" type="curve" smooth="yes"/>
      <point x="504" y="12"/>
      <point x="540" y="49"/>
      <point x="564" y="110" type="curve"/>
    </contour>
  </outline>
</glyph>
<glyph name="y" format="1">
  <advance width="631"/>
  <unicode hex="0079"/>
  <outline>
    <contour>
      <point x="345" y="-102" type="curve"/>
      <point x="261" y="42"/>
      <point x="183" y="351"/>
      <point x="156" y="423" type="curve" smooth="yes"/>
      <point x="152" y="434"/>
      <point x="144" y="448"/>
      <point x="126" y="448" type="curve" smooth="yes"/>
      <point x="96" y="448"/>
      <point x="56" y="406"/>
      <point x="36" y="346" type="curve"/>
      <point x="33" y="347" type="line"/>
      <point x="66" y="437"/>
      <point x="124" y="470"/>
      <point x="196" y="470" type="curve" smooth="yes"/>
      <point x="264" y="470"/>
      <point x="298" y="434"/>
      <point x="316" y="376" type="curve" smooth="yes"/>
      <point x="344" y="286"/>
      <point x="380" y="120"/>
      <point x="448" y="21" type="curve"/>
      <point x="428" y="-7"/>
      <point x="369" y="-80"/>
    </contour>
    <contour>
      <point x="110" y="-260" type="curve" smooth="yes"/>
      <point x="23" y="-260"/>
      <point x="-20" y="-196"/>
      <point x="-20" y="-136" type="curve" smooth="yes"/>
      <point x="-20" y="-88"/>
      <point x="14" y="-45"/>
      <point x="62" y="-45" type="curve" smooth="yes"/>
      <point x="102" y="-45"/>
      <point x="138" y="-71"/>
      <point x="138" y="-119" type="curve" smooth="yes"/>
      <point x="138" y="-162"/>
      <point x="105" y="-193"/>
      <point x="63" y="-193" type="curve" smooth="yes"/>
      <point x="21" y="-193"/>
      <point x="-8" y="-171"/>
      <point x="-16" y="-142" type="curve"/>
      <point x="-14" y="-198"/>
      <point x="27" y="-257"/>
      <point x="110" y="-257" type="curve" smooth="yes"/>
      <point x="297" y="-257"/>
      <point x="616" y="233"/>
      <point x="616" y="361" type="curve" smooth="yes"/>
      <point x="616" y="379"/>
      <point x="610" y="393"/>
      <point x="604" y="402" type="curve"/>
      <point x="606" y="342"/>
      <point x="565" y="316"/>
      <point x="524" y="316" type="curve" smooth="yes"/>
      <point x="469" y="316"/>
      <point x="440" y="358"/>
      <point x="440" y="393" type="curve" smooth="yes"/>
      <point x="440" y="433"/>
      <point x="472" y="470"/>
      <point x="524" y="470" type="curve" smooth="yes"/>
      <point x="590" y="470"/>
      <point x="618" y="412"/>
      <point x="618" y="361" type="curve" smooth="yes"/>
      <point x="618" y="231"/>
      <point x="300" y="-260"/>
    </contour>
  </outline>
</glyph>
<glyph name="z" format="1">
  <advance width="453"/>
  <unicode hex="007A"/>
  <outline>
    <contour>
      <point x="25" y="235" type="line"/>
      <point x="79" y="465" type="line"/>
      <point x="133" y="435"/>
      <point x="193" y="426"/>
      <point x="254" y="426" type="curve" smooth="yes"/>
      <point x="312" y="426"/>
      <point x="401" y="434"/>
      <point x="438" y="464" type="curve"/>
      <point x="440" y="461" type="line"/>
      <point x="355" y="391"/>
      <point x="252" y="300"/>
      <point x="172" y="300" type="curve" smooth="yes"/>
      <point x="128" y="300"/>
      <point x="79" y="316"/>
      <point x="53" y="338" type="curve"/>
      <point x="28" y="235" type="line"/>
    </contour>
    <contour>
      <point x="-16" y="-0" type="line"/>
      <point x="-28" y="-8" type="line"/>
      <point x="435" y="460" type="line"/>
      <point x="440" y="461" type="line"/>
    </contour>
    <contour>
      <point x="441" y="178" type="curve"/>
      <point x="431" y="146"/>
      <point x="406" y="121"/>
      <point x="366" y="121" type="curve" smooth="yes"/>
      <point x="332" y="121"/>
      <point x="297" y="151"/>
      <point x="297" y="191" type="curve" smooth="yes"/>
      <point x="297" y="236"/>
      <point x="334" y="262"/>
      <point x="369" y="262" type="curve" smooth="yes"/>
      <point x="409" y="262"/>
      <point x="444" y="233"/>
      <point x="444" y="182" type="curve" smooth="yes"/>
      <point x="444" y="122"/>
      <point x="379" y="-10"/>
      <point x="267" y="-10" type="curve" smooth="yes"/>
      <point x="196" y="-10"/>
      <point x="163" y="39"/>
      <point x="97" y="39" type="curve" smooth="yes"/>
      <point x="49" y="39"/>
      <point x="6" y="22"/>
      <point x="-26" y="-10" type="curve"/>
      <point x="-28" y="-8" type="line"/>
      <point x="41" y="52"/>
      <point x="137" y="135"/>
      <point x="207" y="135" type="curve" smooth="yes"/>
      <point x="276" y="135"/>
      <point x="283" y="77"/>
      <point x="360" y="77" type="curve" smooth="yes"/>
      <point x="410" y="77"/>
      <point x="436" y="125"/>
    </contour>
  </outline>
</glyph>
<glyph name="braceleft" format="2">
  <advance width="2576"/>
  <unicode hex="007B"/>
  <outline>
    <contour>
      <point x="3456" y="6240" type="curve"/>
      <point x="3456" y="6144" type="line"/>
      <point x="2840" y="6144"/>
      <point x="2384" y="5640"/>
      <point x="2384" y="4936" type="curve" smooth="yes"/>
      <point x="2384" y="4488"/>
      <point x="2472" y="4248"/>
      <point x="2472" y="3688" type="curve" smooth="yes"/>
      <point x="2472" y="2904"/>
      <point x="1392" y="2576"/>
      <point x="680" y="2496" type="curve"/>
      <point x="680" y="2568" type="line"/>
      <point x="920" y="2648"/>
      <point x="1400" y="2848"/>
      <point x="1400" y="3256" type="curve" smooth="yes"/>
      <point x="1400" y="3720"/>
      <point x="1216" y="3872"/>
      <point x="1216" y="4568" type="curve" smooth="yes"/>
      <point x="1216" y="5600"/>
      <point x="2136" y="6240"/>
    </contour>
    <contour>
      <point x="1776" y="-1200" type="line"/>
      <point x="616" y="-1200"/>
      <point x="40" y="-952"/>
      <point x="40" y="-200" type="curve" smooth="yes"/>
      <point x="40" y="776"/>
      <point x="1080" y="1456"/>
      <point x="1080" y="1960" type="curve" smooth="yes"/>
      <point x="1080" y="2288"/>
      <point x="920" y="2400"/>
      <point x="680" y="2480" type="curve"/>
      <point x="680" y="2544" type="line"/>
      <point x="1392" y="2464"/>
      <point x="1936" y="2304"/>
      <point x="1936" y="1680" type="curve" smooth="yes"/>
      <point x="1936" y="880"/>
      <point x="1184" y="240"/>
      <point x="1184" y="-368" type="curve" smooth="yes"/>
      <point x="1184" y="-752"/>
      <point x="1280" y="-1104"/>
      <point x="1776" y="-1104" type="curve"/>
    </contour>
  </outline>
</glyph>
<glyph name="sterling" format="2">
  <advance width="2566"/>
  <unicode hex="00A3"/>
  <outline>
    <contour>
      <point x="2629" y="889" type="line"/>
      <point x="2547" y="275"/>
      <point x="2175" y="-122"/>
      <point x="1688" y="-122" type="curve" smooth="yes"/>
      <point x="1126" y="-122"/>
      <point x="827" y="122"/>
      <point x="569" y="122" type="curve" smooth="yes"/>
      <point x="381" y="122"/>
      <point x="209" y="40"/>
      <point x="148" y="-82" type="curve"/>
      <point x="136" y="-82" type="line"/>
      <point x="279" y="303"/>
      <point x="695" y="643"/>
      <point x="1096" y="643" type="curve" smooth="yes"/>
      <point x="1506" y="643"/>
      <point x="1585" y="504"/>
      <point x="1956" y="504" type="curve" smooth="yes"/>
      <point x="2274" y="504"/>
      <point x="2535" y="553"/>
      <point x="2617" y="889" type="curve"/>
    </contour>
    <contour>
      <point x="2315" y="1658" type="line"/>
      <point x="2315" y="1646" type="line"/>
      <point x="266" y="1646" type="line"/>
      <point x="266" y="1658" type="line"/>
    </contour>
    <contour>
      <point x="730" y="2109" type="curve" smooth="yes"/>
      <point x="730" y="2723"/>
      <point x="1365" y="3112"/>
      <point x="2107" y="3112" type="curve" smooth="yes"/>
      <point x="2709" y="3112"/>
      <point x="2968" y="2778"/>
      <point x="2968" y="2401" type="curve" smooth="yes"/>
      <point x="2968" y="2172"/>
      <point x="2797" y="2024"/>
      <point x="2613" y="2024" type="curve" smooth="yes"/>
      <point x="2429" y="2024"/>
      <point x="2257" y="2150"/>
      <point x="2257" y="2375" type="curve" smooth="yes"/>
      <point x="2257" y="2580"/>
      <point x="2433" y="2703"/>
      <point x="2613" y="2703" type="curve" smooth="yes"/>
      <point x="2799" y="2703"/>
      <point x="2932" y="2566"/>
      <point x="2956" y="2443" type="curve"/>
      <point x="2942" y="2807"/>
      <point x="2652" y="3086"/>
      <point x="2210" y="3086" type="curve" smooth="yes"/>
      <point x="1722" y="3086"/>
      <point x="1471" y="2618"/>
      <point x="1471" y="2314" type="curve" smooth="yes"/>
      <point x="1471" y="2052"/>
      <point x="1557" y="1926"/>
      <point x="1557" y="1598" type="curve" smooth="yes"/>
      <point x="1557" y="779"/>
      <point x="111" y="675"/>
      <point x="144" y="-82" type="curve"/>
      <point x="132" y="-82" type="line"/>
      <point x="75" y="488"/>
      <point x="856" y="787"/>
      <point x="856" y="1274" type="curve" smooth="yes"/>
      <point x="856" y="1516"/>
      <point x="730" y="1761"/>
    </contour>
  </outline>
</glyph>
<glyph name="section" format="2">
  <advance width="3792"/>
  <unicode hex="00A7"/>
  <outline>
    <contour>
      <point x="1808" y="5152" type="curve" smooth="yes"/>
      <point x="1808" y="4264"/>
      <point x="3784" y="4464"/>
      <point x="3784" y="3280" type="curve" smooth="yes"/>
      <point x="3784" y="2664"/>
      <point x="3064" y="2344"/>
      <point x="2648" y="2072" type="curve"/>
      <point x="2640" y="2072" type="line"/>
      <point x="2912" y="2248"/>
      <point x="3088" y="2424"/>
      <point x="3088" y="2744" type="curve" smooth="yes"/>
      <point x="3088" y="3592"/>
      <point x="1120" y="3264"/>
      <point x="1120" y="4640" type="curve" smooth="yes"/>
      <point x="1120" y="5472"/>
      <point x="2024" y="6080"/>
      <point x="2864" y="6080" type="curve" smooth="yes"/>
      <point x="3648" y="6080"/>
      <point x="4144" y="5576"/>
      <point x="4144" y="5048" type="curve" smooth="yes"/>
      <point x="4144" y="4560"/>
      <point x="3896" y="4320"/>
      <point x="3536" y="4320" type="curve" smooth="yes"/>
      <point x="3216" y="4320"/>
      <point x="2984" y="4520"/>
      <point x="2984" y="4888" type="curve" smooth="yes"/>
      <point x="2984" y="5184"/>
      <point x="3240" y="5408"/>
      <point x="3560" y="5408" type="curve" smooth="yes"/>
      <point x="3880" y="5408"/>
      <point x="4072" y="5208"/>
      <point x="4128" y="5096" type="curve"/>
      <point x="4096" y="5552"/>
      <point x="3680" y="6048"/>
      <point x="2864" y="6048" type="curve" smooth="yes"/>
      <point x="2280" y="6048"/>
      <point x="1808" y="5648"/>
    </contour>
    <contour>
      <point x="3360" y="1416" type="curve" smooth="yes"/>
      <point x="3360" y="584"/>
      <point x="2440" y="-80"/>
      <point x="1440" y="-80" type="curve" smooth="yes"/>
      <point x="736" y="-80"/>
      <point x="-32" y="256"/>
      <point x="-32" y="1024" type="curve" smooth="yes"/>
      <point x="-32" y="1392"/>
      <point x="240" y="1712"/>
      <point x="640" y="1712" type="curve" smooth="yes"/>
      <point x="960" y="1712"/>
      <point x="1200" y="1528"/>
      <point x="1200" y="1200" type="curve" smooth="yes"/>
      <point x="1200" y="864"/>
      <point x="936" y="624"/>
      <point x="584" y="624" type="curve" smooth="yes"/>
      <point x="296" y="624"/>
      <point x="72" y="784"/>
      <point x="0" y="992" type="curve"/>
      <point x="32" y="248"/>
      <point x="752" y="-48"/>
      <point x="1440" y="-48" type="curve" smooth="yes"/>
      <point x="2264" y="-48"/>
      <point x="2648" y="480"/>
      <point x="2648" y="848" type="curve" smooth="yes"/>
      <point x="2648" y="1728"/>
      <point x="552" y="1536"/>
      <point x="552" y="2680" type="curve" smooth="yes"/>
      <point x="552" y="3256"/>
      <point x="1224" y="3792"/>
      <point x="1616" y="3960" type="curve"/>
      <point x="1632" y="3960" type="line"/>
      <point x="1480" y="3864"/>
      <point x="1320" y="3712"/>
      <point x="1320" y="3376" type="curve" smooth="yes"/>
      <point x="1320" y="2448"/>
      <point x="3360" y="2712"/>
    </contour>
  </outline>
</glyph>
<glyph name="section" format="1">
  <advance width="474"/>
  <unicode hex="00A7"/>
  <outline>
    <contour>
      <point x="226" y="644" type="curve" smooth="yes"/>
      <point x="226" y="533"/>
      <point x="473" y="558"/>
      <point x="473" y="410" type="curve" smooth="yes"/>
      <point x="473" y="333"/>
      <point x="383" y="293"/>
      <point x="331" y="259" type="curve"/>
      <point x="330" y="259" type="line"/>
      <point x="364" y="281"/>
      <point x="386" y="303"/>
      <point x="386" y="343" type="curve" smooth="yes"/>
      <point x="386" y="449"/>
      <point x="140" y="408"/>
      <point x="140" y="580" type="curve" smooth="yes"/>
      <point x="140" y="684"/>
      <point x="253" y="760"/>
      <point x="358" y="760" type="curve" smooth="yes"/>
      <point x="456" y="760"/>
      <point x="518" y="697"/>
      <point x="518" y="631" type="curve" smooth="yes"/>
      <point x="518" y="570"/>
      <point x="487" y="540"/>
      <point x="442" y="540" type="curve" smooth="yes"/>
      <point x="402" y="540"/>
      <point x="373" y="565"/>
      <point x="373" y="611" type="curve" smooth="yes"/>
      <point x="373" y="648"/>
      <point x="405" y="676"/>
      <point x="445" y="676" type="curve" smooth="yes"/>
      <point x="485" y="676"/>
      <point x="509" y="651"/>
      <point x="516" y="637" type="curve"/>
      <point x="512" y="694"/>
      <point x="460" y="756"/>
      <point x="358" y="756" type="curve" smooth="yes"/>
      <point x="285" y="756"/>
      <point x="226" y="706"/>
    </contour>
    <contour>
      <point x="420" y="177" type="curve" smooth="yes"/>
      <point x="420" y="73"/>
      <point x="305" y="-10"/>
      <point x="180" y="-10" type="curve" smooth="yes"/>
      <point x="92" y="-10"/>
      <point x="-4" y="32"/>
      <point x="-4" y="128" type="curve" smooth="yes"/>
      <point x="-4" y="174"/>
      <point x="30" y="214"/>
      <point x="80" y="214" type="curve" smooth="yes"/>
      <point x="120" y="214"/>
      <point x="150" y="191"/>
      <point x="150" y="150" type="curve" smooth="yes"/>
      <point x="150" y="108"/>
      <point x="117" y="78"/>
      <point x="73" y="78" type="curve" smooth="yes"/>
      <point x="37" y="78"/>
      <point x="9" y="98"/>
      <point x="-0" y="124" type="curve"/>
      <point x="4" y="31"/>
      <point x="94" y="-6"/>
      <point x="180" y="-6" type="curve" smooth="yes"/>
      <point x="283" y="-6"/>
      <point x="331" y="60"/>
      <point x="331" y="106" type="curve" smooth="yes"/>
      <point x="331" y="216"/>
      <point x="69" y="192"/>
      <point x="69" y="335" type="curve" smooth="yes"/>
      <point x="69" y="407"/>
      <point x="153" y="474"/>
      <point x="202" y="495" type="curve"/>
      <point x="204" y="495" type="line"/>
      <point x="185" y="483"/>
      <point x="165" y="464"/>
      <point x="165" y="422" type="curve" smooth="yes"/>
      <point x="165" y="306"/>
      <point x="420" y="339"/>
    </contour>
  </outline>
</glyph>
<glyph name="logicalnot" format="2">
  <advance width="3888"/>
  <unicode hex="00AC"/>
  <outline>
    <contour>
      <point x="4096" y="4896" type="line"/>
      <point x="1200" y="4896" type="line"/>
      <point x="1200" y="4920" type="line"/>
      <point x="4128" y="4920" type="line"/>
      <point x="3768" y="3304" type="line"/>
      <point x="3744" y="3304" type="line"/>
    </contour>
  </outline>
</glyph>
<glyph name="acute" format="2">
  <advance width="1657"/>
  <unicode hex="00B4"/>
  <outline>
    <contour>
      <point x="1884" y="2849" type="curve" smooth="yes"/>
      <point x="940" y="2946" type="line"/>
      <point x="936" y="2954" type="line"/>
      <point x="1843" y="3289" type="line" smooth="yes"/>
      <point x="2000" y="3352"/>
      <point x="2150" y="3211"/>
      <point x="2150" y="3072" type="curve" smooth="yes"/>
      <point x="2150" y="2933"/>
      <point x="2023" y="2826"/>
    </contour>
  </outline>
</glyph>
<glyph name="germandbls" format="2">
  <advance width="6128"/>
  <unicode hex="00DF"/>
  <outline>
    <contour>
      <point x="5888" y="1720" type="curve" smooth="yes"/>
      <point x="5888" y="400"/>
      <point x="4696" y="-80"/>
      <point x="3768" y="-80" type="curve" smooth="yes"/>
      <point x="2976" y="-80"/>
      <point x="2624" y="472"/>
      <point x="2624" y="1088" type="curve" smooth="yes"/>
      <point x="2624" y="1576"/>
      <point x="2920" y="1928"/>
      <point x="3320" y="1928" type="curve" smooth="yes"/>
      <point x="3680" y="1928"/>
      <point x="3952" y="1688"/>
      <point x="3952" y="1320" type="curve" smooth="yes"/>
      <point x="3952" y="984"/>
      <point x="3584" y="720"/>
      <point x="3272" y="720" type="curve" smooth="yes"/>
      <point x="2952" y="720"/>
      <point x="2720" y="920"/>
      <point x="2656" y="1152" type="curve"/>
      <point x="2616" y="496"/>
      <point x="3000" y="-40"/>
      <point x="3688" y="-40" type="curve" smooth="yes"/>
      <point x="4400" y="-40"/>
      <point x="4640" y="1008"/>
      <point x="4640" y="1760" type="curve" smooth="yes"/>
      <point x="4640" y="2512"/>
      <point x="4336" y="3232"/>
      <point x="3624" y="3232" type="curve"/>
      <point x="3624" y="3248" type="line"/>
      <point x="5072" y="3248"/>
      <point x="5888" y="2760"/>
    </contour>
    <contour>
      <point x="-200" y="24" type="line"/>
      <point x="2440" y="24" type="line"/>
      <point x="2440" y="0" type="line"/>
      <point x="-200" y="0" type="line"/>
    </contour>
    <contour>
      <point x="3624" y="3240" type="curve"/>
      <point x="3624" y="3256" type="line"/>
      <point x="4656" y="3256"/>
      <point x="5120" y="4256"/>
      <point x="5120" y="4928" type="curve" smooth="yes"/>
      <point x="5120" y="5504"/>
      <point x="4896" y="6056"/>
      <point x="4304" y="6056" type="curve" smooth="yes"/>
      <point x="3152" y="6056"/>
      <point x="2848" y="4928"/>
      <point x="2600" y="3848" type="curve" smooth="yes"/>
      <point x="1720" y="0" type="line"/>
      <point x="520" y="0" type="line"/>
      <point x="1424" y="3928" type="line" smooth="yes"/>
      <point x="1744" y="5352"/>
      <point x="2760" y="6080"/>
      <point x="4344" y="6080" type="curve" smooth="yes"/>
      <point x="5408" y="6080"/>
      <point x="6384" y="5712"/>
      <point x="6384" y="4808" type="curve" smooth="yes"/>
      <point x="6384" y="3848"/>
      <point x="5232" y="3240"/>
    </contour>
  </outline>
</glyph>
<glyph name="germandbls" format="1">
  <advance width="766"/>
  <unicode hex="00DF"/>
  <outline>
    <contour>
      <point x="736" y="215" type="curve" smooth="yes"/>
      <point x="736" y="50"/>
      <point x="587" y="-10"/>
      <point x="471" y="-10" type="curve" smooth="yes"/>
      <point x="372" y="-10"/>
      <point x="328" y="59"/>
      <point x="328" y="136" type="curve" smooth="yes"/>
      <point x="328" y="197"/>
      <point x="365" y="241"/>
      <point x="415" y="241" type="curve" smooth="yes"/>
      <point x="460" y="241"/>
      <point x="494" y="211"/>
      <point x="494" y="165" type="curve" smooth="yes"/>
      <point x="494" y="123"/>
      <point x="448" y="90"/>
      <point x="409" y="90" type="curve" smooth="yes"/>
      <point x="369" y="90"/>
      <point x="340" y="115"/>
      <point x="332" y="144" type="curve"/>
      <point x="327" y="62"/>
      <point x="375" y="-5"/>
      <point x="461" y="-5" type="curve" smooth="yes"/>
      <point x="550" y="-5"/>
      <point x="580" y="126"/>
      <point x="580" y="220" type="curve" smooth="yes"/>
      <point x="580" y="314"/>
      <point x="542" y="404"/>
      <point x="453" y="404" type="curve"/>
      <point x="453" y="406" type="line"/>
      <point x="634" y="406"/>
      <point x="736" y="345"/>
    </contour>
    <contour>
      <point x="-25" y="3" type="line"/>
      <point x="305" y="3" type="line"/>
      <point x="305" y="0" type="line"/>
      <point x="-25" y="0" type="line"/>
    </contour>
    <contour>
      <point x="453" y="405" type="curve"/>
      <point x="453" y="407" type="line"/>
      <point x="582" y="407"/>
      <point x="640" y="532"/>
      <point x="640" y="616" type="curve" smooth="yes"/>
      <point x="640" y="688"/>
      <point x="612" y="757"/>
      <point x="538" y="757" type="curve" smooth="yes"/>
      <point x="394" y="757"/>
      <point x="356" y="616"/>
      <point x="325" y="481" type="curve" smooth="yes"/>
      <point x="215" y="0" type="line"/>
      <point x="65" y="0" type="line"/>
      <point x="178" y="491" type="line" smooth="yes"/>
      <point x="218" y="669"/>
      <point x="345" y="760"/>
      <point x="543" y="760" type="curve" smooth="yes"/>
      <point x="676" y="760"/>
      <point x="798" y="714"/>
      <point x="798" y="601" type="curve" smooth="yes"/>
      <point x="798" y="481"/>
      <point x="654" y="405"/>
    </contour>
  </outline>
</glyph>
<glyph name="ae" format="2">
  <advance width="6704"/>
  <unicode hex="00E6"/>
  <outline>
    <contour>
      <point x="2192" y="2016" type="curve" smooth="yes"/>
      <point x="2864" y="2016" type="line"/>
      <point x="2864" y="2000" type="line"/>
      <point x="2432" y="2000" type="line" smooth="yes"/>
      <point x="1864" y="2000"/>
      <point x="1328" y="1360"/>
      <point x="1328" y="624" type="curve" smooth="yes"/>
      <point x="1328" y="208"/>
      <point x="1480" y="-40"/>
      <point x="1680" y="-40" type="curve" smooth="yes"/>
      <point x="2096" y="-40"/>
      <point x="2448" y="664"/>
      <point x="2624" y="1448" type="curve" smooth="yes"/>
      <point x="2848" y="2440" type="line" smooth="yes"/>
      <point x="2960" y="2952"/>
      <point x="2944" y="3712"/>
      <point x="2344" y="3712" type="curve" smooth="yes"/>
      <point x="1920" y="3712"/>
      <point x="1392" y="3568"/>
      <point x="1152" y="3280" type="curve"/>
      <point x="1680" y="3584"/>
      <point x="2192" y="3320"/>
      <point x="2192" y="2944" type="curve" smooth="yes"/>
      <point x="2192" y="2584"/>
      <point x="1880" y="2328"/>
      <point x="1520" y="2328" type="curve" smooth="yes"/>
      <point x="1120" y="2328"/>
      <point x="904" y="2520"/>
      <point x="904" y="2848" type="curve" smooth="yes"/>
      <point x="904" y="3344"/>
      <point x="1616" y="3744"/>
      <point x="2424" y="3744" type="curve" smooth="yes"/>
      <point x="3464" y="3744"/>
      <point x="3896" y="3288"/>
      <point x="3768" y="2440" type="curve"/>
      <point x="3464" y="1448" type="line"/>
      <point x="3280" y="456"/>
      <point x="2408" y="-80"/>
      <point x="1440" y="-80" type="curve" smooth="yes"/>
      <point x="728" y="-80"/>
      <point x="144" y="152"/>
      <point x="144" y="744" type="curve" smooth="yes"/>
      <point x="144" y="1496"/>
      <point x="896" y="2016"/>
    </contour>
    <contour>
      <point x="5584" y="3056" type="curve" smooth="yes"/>
      <point x="5584" y="3392"/>
      <point x="5512" y="3728"/>
      <point x="5288" y="3728" type="curve" smooth="yes"/>
      <point x="4776" y="3728"/>
      <point x="4032" y="2352"/>
      <point x="4032" y="1040" type="curve" smooth="yes"/>
      <point x="4032" y="488"/>
      <point x="4200" y="16"/>
      <point x="4632" y="16" type="curve" smooth="yes"/>
      <point x="5216" y="16"/>
      <point x="5896" y="520"/>
      <point x="6248" y="1144" type="curve"/>
      <point x="6272" y="1144" type="line"/>
      <point x="5920" y="528"/>
      <point x="5240" y="-80"/>
      <point x="4232" y="-80" type="curve" smooth="yes"/>
      <point x="3584" y="-80"/>
      <point x="3000" y="320"/>
      <point x="3000" y="1280" type="curve"/>
      <point x="3160" y="1240" type="line"/>
      <point x="3176" y="2760"/>
      <point x="4208" y="3760"/>
      <point x="5368" y="3760" type="curve" smooth="yes"/>
      <point x="6024" y="3760"/>
      <point x="6672" y="3552"/>
      <point x="6672" y="2936" type="curve" smooth="yes"/>
      <point x="6672" y="1736"/>
      <point x="4528" y="1728"/>
      <point x="3960" y="1728" type="curve"/>
      <point x="3960" y="1736" type="line"/>
      <point x="4512" y="1736"/>
      <point x="5584" y="1984"/>
    </contour>
  </outline>
</glyph>
<glyph name="eth" format="2">
  <advance width="4880"/>
  <unicode hex="00F0"/>
  <outline>
    <contour>
      <point x="1880" y="5040" type="line"/>
      <point x="5400" y="5040" type="line"/>
      <point x="5400" y="5016" type="line"/>
      <point x="1880" y="5016" type="line"/>
    </contour>
    <contour>
      <point x="4856" y="3120" type="curve" smooth="yes"/>
      <point x="4856" y="1440"/>
      <point x="3496" y="-80"/>
      <point x="2088" y="-80" type="curve" smooth="yes"/>
      <point x="1000" y="-80"/>
      <point x="320" y="400"/>
      <point x="320" y="1440" type="curve" smooth="yes"/>
      <point x="320" y="3040"/>
      <point x="1744" y="3920"/>
      <point x="2712" y="3920" type="curve" smooth="yes"/>
      <point x="3416" y="3920"/>
      <point x="3536" y="3480"/>
      <point x="3496" y="2544" type="curve"/>
      <point x="3472" y="2960" type="line"/>
      <point x="3472" y="3400"/>
      <point x="3328" y="3824"/>
      <point x="2968" y="3824" type="curve" smooth="yes"/>
      <point x="2216" y="3824"/>
      <point x="1552" y="2072"/>
      <point x="1552" y="960" type="curve" smooth="yes"/>
      <point x="1552" y="408"/>
      <point x="1648" y="-56"/>
      <point x="2080" y="-56" type="curve" smooth="yes"/>
      <point x="2752" y="-56"/>
      <point x="3472" y="1848"/>
      <point x="3472" y="2960" type="curve"/>
      <point x="3480" y="2960" type="line"/>
      <point x="3528" y="4720"/>
      <point x="3472" y="6056"/>
      <point x="1920" y="6056" type="curve"/>
      <point x="1920" y="6080" type="line"/>
      <point x="3904" y="6080"/>
      <point x="4856" y="4784"/>
    </contour>
  </outline>
</glyph>
<glyph name="thorn" format="2">
  <advance width="4888"/>
  <unicode hex="00FE"/>
  <outline>
    <contour>
      <point x="1760" y="1168" type="curve" smooth="yes"/>
      <point x="1760" y="664"/>
      <point x="1880" y="176"/>
      <point x="2208" y="176" type="curve" smooth="yes"/>
      <point x="2760" y="176"/>
      <point x="3440" y="1608"/>
      <point x="3440" y="2680" type="curve" smooth="yes"/>
      <point x="3440" y="3192"/>
      <point x="3272" y="3520"/>
      <point x="2984" y="3520" type="curve" smooth="yes"/>
      <point x="2288" y="3520"/>
      <point x="1760" y="2040"/>
    </contour>
    <contour>
      <point x="1744" y="1168" type="curve" smooth="yes"/>
      <point x="1744" y="2032"/>
      <point x="2256" y="3760"/>
      <point x="3384" y="3760" type="curve" smooth="yes"/>
      <point x="3936" y="3760"/>
      <point x="4672" y="3440"/>
      <point x="4672" y="2400" type="curve" smooth="yes"/>
      <point x="4672" y="800"/>
      <point x="3400" y="-80"/>
      <point x="2568" y="-80" type="curve" smooth="yes"/>
      <point x="1960" y="-80"/>
      <point x="1744" y="432"/>
    </contour>
    <contour>
      <point x="-680" y="-1976" type="line"/>
      <point x="1520" y="-1976" type="line"/>
      <point x="1520" y="-2000" type="line"/>
      <point x="-680" y="-2000" type="line"/>
    </contour>
    <contour>
      <point x="1672" y="5976" type="line"/>
      <point x="1104" y="5976" type="line"/>
      <point x="1104" y="6000" type="line"/>
      <point x="2800" y="6000" type="line"/>
      <point x="1952" y="2304" type="line"/>
      <point x="1816" y="1792" type="line"/>
      <point x="1760" y="1392" type="line"/>
      <point x="960" y="-2000" type="line"/>
      <point x="-160" y="-2000" type="line"/>
    </contour>
  </outline>
</glyph>
<glyph name="dotlessi" format="2">
  <advance width="366"/>
  <unicode hex="0131"/>
  <outline>
    <contour>
      <point x="346" y="163" type="line"/>
      <point x="308" y="63"/>
      <point x="240" y="-10"/>
      <point x="144" y="-10" type="curve" smooth="yes"/>
      <point x="82" y="-10"/>
      <point x="50" y="13"/>
      <point x="50" y="73" type="curve" smooth="yes"/>
      <point x="50" y="78"/>
      <point x="50" y="89"/>
      <point x="52" y="95" type="curve" smooth="yes"/>
      <point x="139" y="457" type="line"/>
      <point x="62" y="457" type="line"/>
      <point x="62" y="460" type="line"/>
      <point x="280" y="460" type="line"/>
      <point x="179" y="47" type="line" smooth="yes"/>
      <point x="178" y="41"/>
      <point x="177" y="34"/>
      <point x="177" y="29" type="curve" smooth="yes"/>
      <point x="177" y="18"/>
      <point x="182" y="8"/>
      <point x="195" y="8" type="curve" smooth="yes"/>
      <point x="247" y="8"/>
      <point x="310" y="71"/>
      <point x="344" y="164" type="curve"/>
    </contour>
  </outline>
</glyph>
<glyph name="Lslash" format="2">
  <advance width="607"/>
  <unicode hex="0141"/>
  <outline>
    <contour>
      <point x="40" y="360" type="line"/>
      <point x="435" y="580" type="line"/>
      <point x="435" y="577" type="line"/>
      <point x="40" y="357" type="line"/>
    </contour>
    <component base="L"/>
  </outline>
</glyph>
<glyph name="lslash" format="2">
  <advance width="2848"/>
  <unicode hex="0142"/>
  <outline>
    <contour>
      <point x="240" y="3040" type="line"/>
      <point x="3000" y="4640" type="line"/>
      <point x="3000" y="4616" type="line"/>
      <point x="240" y="3016" type="line"/>
    </contour>
    <component base="l"/>
  </outline>
</glyph>
<glyph name="lslash" format="1">
  <advance width="356"/>
  <unicode hex="0142"/>
  <outline>
    <contour>
      <point x="30" y="380" type="line"/>
      <point x="375" y="580" type="line"/>
      <point x="375" y="577" type="line"/>
      <point x="30" y="377" type="line"/>
    </contour>
    <component base="l"/>
  </outline>
</glyph>
<glyph name="uni0212" format="2">
  <advance width="767"/>
  <unicode hex="0212"/>
  <outline>
    <contour>
      <point x="600" y="820" type="line"/>
      <point x="608" y="863"/>
      <point x="556" y="884"/>
      <point x="502" y="884" type="curve" smooth="yes"/>
      <point x="448" y="884"/>
      <point x="379" y="869"/>
      <point x="366" y="820" type="curve"/>
      <point x="362" y="820" type="line"/>
      <point x="372" y="881"/>
      <point x="407" y="979"/>
      <point x="512" y="979" type="curve" smooth="yes"/>
      <point x="612" y="979"/>
      <point x="612" y="881"/>
      <point x="602" y="820" type="curve"/>
    </contour>
    <component base="R"/>
  </outline>
</glyph>
<glyph name="uni0237" format="2">
  <advance width="1226"/>
  <unicode hex="0237"/>
  <outline>
    <contour>
      <point x="-796" y="-701" type="curve"/>
      <point x="-749" y="-875"/>
      <point x="-542" y="-1048"/>
      <point x="-295" y="-1048" type="curve" smooth="yes"/>
      <point x="94" y="-1048"/>
      <point x="70" y="-410"/>
      <point x="184" y="82" type="curve" smooth="yes"/>
      <point x="602" y="1872" type="line"/>
      <point x="218" y="1872" type="line"/>
      <point x="218" y="1884" type="line"/>
      <point x="1169" y="1884" type="line"/>
      <point x="768" y="-50" type="line" smooth="yes"/>
      <point x="662" y="-562"/>
      <point x="258" y="-1064"/>
      <point x="-274" y="-1064" type="curve" smooth="yes"/>
      <point x="-605" y="-1064"/>
      <point x="-839" y="-811"/>
      <point x="-839" y="-598" type="curve" smooth="yes"/>
      <point x="-839" y="-389"/>
      <point x="-667" y="-241"/>
      <point x="-483" y="-241" type="curve" smooth="yes"/>
      <point x="-319" y="-241"/>
      <point x="-172" y="-361"/>
      <point x="-172" y="-533" type="curve" smooth="yes"/>
      <point x="-172" y="-726"/>
      <point x="-336" y="-859"/>
      <point x="-526" y="-859" type="curve" smooth="yes"/>
      <point x="-665" y="-859"/>
      <point x="-749" y="-781"/>
    </contour>
  </outline>
</glyph>
<glyph name="caron" format="2">
  <advance width="3480"/>
  <unicode hex="02C7"/>
  <outline>
    <contour>
      <point x="2512" y="5800" type="line"/>
      <point x="4000" y="6328" type="line"/>
      <point x="4008" y="6320" type="line"/>
      <point x="2840" y="5240" type="line"/>
      <point x="2160" y="5240" type="line"/>
      <point x="1328" y="6320" type="line"/>
      <point x="1336" y="6328" type="line"/>
    </contour>
  </outline>
</glyph>
<glyph name="ogonek" format="2">
  <advance width="550"/>
  <unicode hex="02DB"/>
  <outline>
    <contour>
      <point x="353" y="-113" type="line"/>
      <point x="338" y="-141"/>
      <point x="299" y="-196"/>
      <point x="213" y="-196" type="curve" smooth="yes"/>
      <point x="152" y="-196"/>
      <point x="99" y="-175"/>
      <point x="99" y="-120" type="curve" smooth="yes"/>
      <point x="99" y="-40"/>
      <point x="228" y="18"/>
      <point x="309" y="43" type="curve"/>
      <point x="310" y="42" type="line"/>
      <point x="279" y="23"/>
      <point x="236" y="-37"/>
      <point x="236" y="-110" type="curve" smooth="yes"/>
      <point x="236" y="-152"/>
      <point x="248" y="-176"/>
      <point x="270" y="-176" type="curve" smooth="yes"/>
      <point x="308" y="-176"/>
      <point x="338" y="-136"/>
      <point x="350" y="-112" type="curve"/>
    </contour>
  </outline>
</glyph>
<glyph name="tilde" format="2">
  <advance width="448"/>
  <unicode hex="02DC"/>
  <outline>
    <contour>
      <point x="224" y="654" type="curve" smooth="yes"/>
      <point x="191" y="654"/>
      <point x="168" y="642"/>
      <point x="148" y="600" type="curve"/>
      <point x="145" y="600" type="line"/>
      <point x="165" y="685"/>
      <point x="210" y="742"/>
      <point x="274" y="742" type="curve" smooth="yes"/>
      <point x="344" y="742"/>
      <point x="388" y="663"/>
      <point x="444" y="663" type="curve" smooth="yes"/>
      <point x="477" y="663"/>
      <point x="500" y="675"/>
      <point x="520" y="717" type="curve"/>
      <point x="523" y="717" type="line"/>
      <point x="503" y="622"/>
      <point x="468" y="575"/>
      <point x="404" y="575" type="curve" smooth="yes"/>
      <point x="327" y="575"/>
      <point x="287" y="654"/>
    </contour>
  </outline>
</glyph>
<glyph name="uni1E9E" format="2">
  <advance width="6848"/>
  <unicode hex="1E9E"/>
  <outline>
    <contour>
      <point x="2688" y="1168" type="curve" smooth="yes"/>
      <point x="2688" y="1600"/>
      <point x="2960" y="1928"/>
      <point x="3360" y="1928" type="curve" smooth="yes"/>
      <point x="3720" y="1928"/>
      <point x="3992" y="1688"/>
      <point x="3992" y="1320" type="curve" smooth="yes"/>
      <point x="3992" y="984"/>
      <point x="3648" y="720"/>
      <point x="3336" y="720" type="curve" smooth="yes"/>
      <point x="2976" y="720"/>
      <point x="2800" y="936"/>
      <point x="2720" y="1104" type="curve"/>
      <point x="2744" y="448"/>
      <point x="3232" y="-32"/>
      <point x="4032" y="-32" type="curve" smooth="yes"/>
      <point x="4944" y="-32"/>
      <point x="5344" y="1088"/>
      <point x="5344" y="1920" type="curve" smooth="yes"/>
      <point x="5344" y="2592"/>
      <point x="5096" y="3232"/>
      <point x="4344" y="3232" type="curve"/>
      <point x="4344" y="3248" type="line"/>
      <point x="5872" y="3248"/>
      <point x="6608" y="2840"/>
      <point x="6608" y="1880" type="curve" smooth="yes"/>
      <point x="6608" y="520"/>
      <point x="5352" y="-80"/>
      <point x="4144" y="-80" type="curve" smooth="yes"/>
      <point x="3080" y="-80"/>
      <point x="2688" y="520"/>
    </contour>
    <contour>
      <point x="-200" y="24" type="line"/>
      <point x="2480" y="24" type="line"/>
      <point x="2480" y="0" type="line"/>
      <point x="-200" y="0" type="line"/>
    </contour>
    <contour>
      <point x="4344" y="3240" type="curve"/>
      <point x="4344" y="3256" type="line"/>
      <point x="5576" y="3256"/>
      <point x="5824" y="4416"/>
      <point x="5824" y="5008" type="curve" smooth="yes"/>
      <point x="5824" y="5504"/>
      <point x="5576" y="6056"/>
      <point x="4744" y="6056" type="curve" smooth="yes"/>
      <point x="3392" y="6056"/>
      <point x="2872" y="4840"/>
      <point x="2600" y="3648" type="curve" smooth="yes"/>
      <point x="1760" y="0" type="line"/>
      <point x="520" y="0" type="line"/>
      <point x="1376" y="3728" type="line" smooth="yes"/>
      <point x="1728" y="5264"/>
      <point x="2960" y="6080"/>
      <point x="4784" y="6080" type="curve" smooth="yes"/>
      <point x="6208" y="6080"/>
      <point x="7104" y="5672"/>
      <point x="7104" y="4848" type="curve" smooth="yes"/>
      <point x="7104" y="4008"/>
      <point x="6152" y="3240"/>
    </contour>
  </outline>
</glyph>
<glyph name="perthousand" format="2">
  <advance width="6122"/>
  <unicode hex="2030"/>
  <outline>
    <contour>
      <point x="5018" y="-40" type="curve" smooth="yes"/>
      <point x="4597" y="-40"/>
      <point x="4300" y="152"/>
      <point x="4300" y="574" type="curve" smooth="yes"/>
      <point x="4300" y="1242"/>
      <point x="4801" y="1762"/>
      <point x="5386" y="1762" type="curve" smooth="yes"/>
      <point x="5807" y="1762"/>
      <point x="6103" y="1568"/>
      <point x="6103" y="1146" type="curve" smooth="yes"/>
      <point x="6103" y="478"/>
      <point x="5603" y="-40"/>
    </contour>
    <contour>
      <point x="5407" y="1751" type="curve" smooth="yes"/>
      <point x="5165" y="1751"/>
      <point x="4854" y="758"/>
      <point x="4854" y="320" type="curve" smooth="yes"/>
      <point x="4854" y="128"/>
      <point x="4899" y="-28"/>
      <point x="4998" y="-28" type="curve" smooth="yes"/>
      <point x="5240" y="-28"/>
      <point x="5540" y="939"/>
      <point x="5540" y="1377" type="curve" smooth="yes"/>
      <point x="5540" y="1569"/>
      <point x="5506" y="1751"/>
    </contour>
    <contour>
      <point x="2990" y="-40" type="curve" smooth="yes"/>
      <point x="2569" y="-40"/>
      <point x="2273" y="152"/>
      <point x="2273" y="574" type="curve" smooth="yes"/>
      <point x="2273" y="1242"/>
      <point x="2773" y="1762"/>
      <point x="3358" y="1762" type="curve" smooth="yes"/>
      <point x="3779" y="1762"/>
      <point x="4076" y="1568"/>
      <point x="4076" y="1146" type="curve" smooth="yes"/>
      <point x="4076" y="478"/>
      <point x="3575" y="-40"/>
    </contour>
    <contour>
      <point x="3379" y="1751" type="curve" smooth="yes"/>
      <point x="3137" y="1751"/>
      <point x="2827" y="758"/>
      <point x="2827" y="320" type="curve" smooth="yes"/>
      <point x="2827" y="128"/>
      <point x="2871" y="-28"/>
      <point x="2970" y="-28" type="curve" smooth="yes"/>
      <point x="3212" y="-28"/>
      <point x="3513" y="939"/>
      <point x="3513" y="1377" type="curve" smooth="yes"/>
      <point x="3513" y="1569"/>
      <point x="3478" y="1751"/>
    </contour>
    <contour>
      <point x="3654" y="3072" type="line"/>
      <point x="3666" y="3072" type="line"/>
      <point x="802" y="0" type="line"/>
      <point x="790" y="0" type="line"/>
    </contour>
    <contour>
      <point x="1126" y="1310" type="curve" smooth="yes"/>
      <point x="705" y="1310"/>
      <point x="410" y="1504"/>
      <point x="410" y="1926" type="curve" smooth="yes"/>
      <point x="410" y="2594"/>
      <point x="911" y="3112"/>
      <point x="1496" y="3112" type="curve" smooth="yes"/>
      <point x="1917" y="3112"/>
      <point x="2212" y="2920"/>
      <point x="2212" y="2498" type="curve" smooth="yes"/>
      <point x="2212" y="1830"/>
      <point x="1711" y="1310"/>
    </contour>
    <contour>
      <point x="1516" y="3100" type="curve" smooth="yes"/>
      <point x="1274" y="3100"/>
      <point x="963" y="2110"/>
      <point x="963" y="1672" type="curve" smooth="yes"/>
      <point x="963" y="1480"/>
      <point x="1007" y="1324"/>
      <point x="1106" y="1324" type="curve" smooth="yes"/>
      <point x="1348" y="1324"/>
      <point x="1649" y="2325"/>
      <point x="1649" y="2763" type="curve" smooth="yes"/>
      <point x="1649" y="2955"/>
      <point x="1615" y="3100"/>
    </contour>
  </outline>
</glyph>
<glyph name="uni203D" format="2">
  <advance width="4800"/>
  <unicode hex="203D"/>
  <outline>
    <contour>
      <point x="3504" y="4352" type="curve" smooth="yes"/>
      <point x="3360" y="3504"/>
      <point x="2560" y="3144"/>
      <point x="2240" y="1944" type="curve"/>
      <point x="2224" y="1944" type="line"/>
      <point x="2464" y="3144"/>
      <point x="2320" y="3464"/>
      <point x="2320" y="4072" type="curve" smooth="yes"/>
      <point x="2320" y="4600"/>
      <point x="2480" y="4984"/>
      <point x="2952" y="4984" type="curve" smooth="yes"/>
      <point x="3312" y="4984"/>
      <point x="3568" y="4720"/>
    </contour>
    <contour>
      <point x="4032" y="4880" type="curve" smooth="yes"/>
      <point x="4032" y="5472"/>
      <point x="3800" y="6048"/>
      <point x="3048" y="6048" type="curve" smooth="yes"/>
      <point x="2104" y="6048"/>
      <point x="1200" y="5392"/>
      <point x="1024" y="4848" type="curve"/>
      <point x="1120" y="4960"/>
      <point x="1336" y="5128"/>
      <point x="1576" y="5128" type="curve" smooth="yes"/>
      <point x="1848" y="5128"/>
      <point x="2152" y="4928"/>
      <point x="2152" y="4544" type="curve" smooth="yes"/>
      <point x="2152" y="4104"/>
      <point x="1776" y="3912"/>
      <point x="1496" y="3912" type="curve" smooth="yes"/>
      <point x="1176" y="3912"/>
      <point x="920" y="4160"/>
      <point x="920" y="4568" type="curve" smooth="yes"/>
      <point x="920" y="5304"/>
      <point x="1992" y="6080"/>
      <point x="3128" y="6080" type="curve" smooth="yes"/>
      <point x="4176" y="6080"/>
      <point x="5160" y="5720"/>
      <point x="5160" y="4720" type="curve" smooth="yes"/>
      <point x="5160" y="3520"/>
      <point x="3728" y="2680"/>
      <point x="2480" y="2680" type="curve"/>
      <point x="2480" y="2696" type="line"/>
      <point x="3296" y="2944"/>
      <point x="4032" y="3896"/>
    </contour>
    <component base="period" xOffset="1072"/>
  </outline>
</glyph>
<glyph name="uniFB00" format="2">
  <advance width="2969"/>
  <unicode hex="FB00"/>
  <outline>
    <contour>
      <point x="282" y="1884" type="line"/>
      <point x="3047" y="1884" type="line"/>
      <point x="3047" y="1872" type="line"/>
      <point x="282" y="1872" type="line"/>
    </contour>
    <contour>
      <point x="3586" y="2760" type="curve"/>
      <point x="3545" y="2918"/>
      <point x="3346" y="3096"/>
      <point x="3078" y="3096" type="curve" smooth="yes"/>
      <point x="2792" y="3096"/>
      <point x="2603" y="2712"/>
      <point x="2515" y="2212" type="curve" smooth="yes"/>
      <point x="2153" y="156" type="line" smooth="yes"/>
      <point x="2036" y="-499"/>
      <point x="1587" y="-860"/>
      <point x="1034" y="-860" type="curve" smooth="yes"/>
      <point x="621" y="-860"/>
      <point x="420" y="-606"/>
      <point x="420" y="-393" type="curve" smooth="yes"/>
      <point x="420" y="-184"/>
      <point x="550" y="-57"/>
      <point x="734" y="-57" type="curve" smooth="yes"/>
      <point x="898" y="-57"/>
      <point x="1067" y="-156"/>
      <point x="1067" y="-361" type="curve" smooth="yes"/>
      <point x="1067" y="-566"/>
      <point x="917" y="-678"/>
      <point x="737" y="-678" type="curve" smooth="yes"/>
      <point x="608" y="-678"/>
      <point x="500" y="-604"/>
      <point x="461" y="-508" type="curve"/>
      <point x="502" y="-666"/>
      <point x="698" y="-844"/>
      <point x="987" y="-844" type="curve" smooth="yes"/>
      <point x="1294" y="-844"/>
      <point x="1483" y="-460"/>
      <point x="1571" y="40" type="curve" smooth="yes"/>
      <point x="1933" y="2098" type="line" smooth="yes"/>
      <point x="2050" y="2753"/>
      <point x="2499" y="3112"/>
      <point x="3031" y="3112" type="curve" smooth="yes"/>
      <point x="3424" y="3112"/>
      <point x="3625" y="2859"/>
      <point x="3625" y="2646" type="curve" smooth="yes"/>
      <point x="3625" y="2437"/>
      <point x="3496" y="2310"/>
      <point x="3312" y="2310" type="curve" smooth="yes"/>
      <point x="3148" y="2310"/>
      <point x="2978" y="2408"/>
      <point x="2978" y="2613" type="curve" smooth="yes"/>
      <point x="2978" y="2818"/>
      <point x="3128" y="2931"/>
      <point x="3308" y="2931" type="curve" smooth="yes"/>
      <point x="3437" y="2931"/>
      <point x="3545" y="2856"/>
    </contour>
    <contour>
      <point x="2316" y="2556" type="curve"/>
      <point x="2275" y="2714"/>
      <point x="2077" y="2892"/>
      <point x="1788" y="2892" type="curve" smooth="yes"/>
      <point x="1481" y="2892"/>
      <point x="1292" y="2512"/>
      <point x="1204" y="2012" type="curve" smooth="yes"/>
      <point x="842" y="-50" type="line" smooth="yes"/>
      <point x="725" y="-705"/>
      <point x="276" y="-1064"/>
      <point x="-256" y="-1064" type="curve" smooth="yes"/>
      <point x="-649" y="-1064"/>
      <point x="-850" y="-811"/>
      <point x="-850" y="-598" type="curve" smooth="yes"/>
      <point x="-850" y="-389"/>
      <point x="-720" y="-262"/>
      <point x="-536" y="-262" type="curve" smooth="yes"/>
      <point x="-372" y="-262"/>
      <point x="-203" y="-360"/>
      <point x="-203" y="-565" type="curve" smooth="yes"/>
      <point x="-203" y="-770"/>
      <point x="-353" y="-883"/>
      <point x="-533" y="-883" type="curve" smooth="yes"/>
      <point x="-662" y="-883"/>
      <point x="-770" y="-808"/>
      <point x="-809" y="-712" type="curve"/>
      <point x="-768" y="-870"/>
      <point x="-571" y="-1048"/>
      <point x="-303" y="-1048" type="curve" smooth="yes"/>
      <point x="-17" y="-1048"/>
      <point x="172" y="-664"/>
      <point x="260" y="-164" type="curve" smooth="yes"/>
      <point x="622" y="1892" type="line" smooth="yes"/>
      <point x="739" y="2547"/>
      <point x="1187" y="2908"/>
      <point x="1740" y="2908" type="curve" smooth="yes"/>
      <point x="2153" y="2908"/>
      <point x="2355" y="2654"/>
      <point x="2355" y="2441" type="curve" smooth="yes"/>
      <point x="2355" y="2232"/>
      <point x="2226" y="2105"/>
      <point x="2042" y="2105" type="curve" smooth="yes"/>
      <point x="1878" y="2105"/>
      <point x="1708" y="2204"/>
      <point x="1708" y="2409" type="curve" smooth="yes"/>
      <point x="1708" y="2614"/>
      <point x="1858" y="2726"/>
      <point x="2038" y="2726" type="curve" smooth="yes"/>
      <point x="2167" y="2726"/>
      <point x="2275" y="2652"/>
    </contour>
  </outline>
</glyph>
<glyph name="uniFB01" format="2">
  <advance width="2819"/>
  <unicode hex="FB01"/>
  <outline>
    <contour>
      <point x="2739" y="668" type="line"/>
      <point x="2583" y="258"/>
      <point x="2300" y="-40"/>
      <point x="1907" y="-40" type="curve" smooth="yes"/>
      <point x="1653" y="-40"/>
      <point x="1524" y="54"/>
      <point x="1524" y="299" type="curve" smooth="yes"/>
      <point x="1524" y="319"/>
      <point x="1526" y="365"/>
      <point x="1532" y="389" type="curve" smooth="yes"/>
      <point x="1889" y="1872" type="line"/>
      <point x="285" y="1872" type="line"/>
      <point x="285" y="1884" type="line"/>
      <point x="2464" y="1884" type="line"/>
      <point x="2052" y="193" type="line" smooth="yes"/>
      <point x="2048" y="169"/>
      <point x="2044" y="139"/>
      <point x="2044" y="119" type="curve" smooth="yes"/>
      <point x="2044" y="73"/>
      <point x="2064" y="31"/>
      <point x="2118" y="31" type="curve" smooth="yes"/>
      <point x="2333" y="31"/>
      <point x="2588" y="291"/>
      <point x="2730" y="672" type="curve"/>
    </contour>
    <contour>
      <point x="2504" y="2760" type="curve"/>
      <point x="2453" y="2941"/>
      <point x="2240" y="3096"/>
      <point x="1931" y="3096" type="curve" smooth="yes"/>
      <point x="1563" y="3096"/>
      <point x="1338" y="2730"/>
      <point x="1246" y="2212" type="curve" smooth="yes"/>
      <point x="842" y="-50" type="line" smooth="yes"/>
      <point x="725" y="-705"/>
      <point x="276" y="-1064"/>
      <point x="-256" y="-1064" type="curve" smooth="yes"/>
      <point x="-649" y="-1064"/>
      <point x="-850" y="-811"/>
      <point x="-850" y="-598" type="curve" smooth="yes"/>
      <point x="-850" y="-389"/>
      <point x="-720" y="-262"/>
      <point x="-536" y="-262" type="curve" smooth="yes"/>
      <point x="-372" y="-262"/>
      <point x="-203" y="-360"/>
      <point x="-203" y="-565" type="curve" smooth="yes"/>
      <point x="-203" y="-770"/>
      <point x="-353" y="-883"/>
      <point x="-533" y="-883" type="curve" smooth="yes"/>
      <point x="-662" y="-883"/>
      <point x="-770" y="-808"/>
      <point x="-809" y="-712" type="curve"/>
      <point x="-768" y="-870"/>
      <point x="-571" y="-1048"/>
      <point x="-303" y="-1048" type="curve" smooth="yes"/>
      <point x="-17" y="-1048"/>
      <point x="172" y="-664"/>
      <point x="260" y="-164" type="curve" smooth="yes"/>
      <point x="664" y="2098" type="line" smooth="yes"/>
      <point x="781" y="2753"/>
      <point x="1270" y="3112"/>
      <point x="1884" y="3112" type="curve" smooth="yes"/>
      <point x="2335" y="3112"/>
      <point x="2540" y="2879"/>
      <point x="2540" y="2646" type="curve" smooth="yes"/>
      <point x="2540" y="2437"/>
      <point x="2410" y="2310"/>
      <point x="2226" y="2310" type="curve" smooth="yes"/>
      <point x="2062" y="2310"/>
      <point x="1892" y="2408"/>
      <point x="1892" y="2613" type="curve" smooth="yes"/>
      <point x="1892" y="2818"/>
      <point x="2042" y="2931"/>
      <point x="2222" y="2931" type="curve" smooth="yes"/>
      <point x="2351" y="2931"/>
      <point x="2463" y="2856"/>
    </contour>
  </outline>
</glyph>
<glyph name="uniFB02" format="2">
  <advance width="5832"/>
  <unicode hex="FB02"/>
  <outline>
    <contour>
      <point x="5672" y="1304" type="line"/>
      <point x="5368" y="504"/>
      <point x="4816" y="-80"/>
      <point x="4048" y="-80" type="curve" smooth="yes"/>
      <point x="3552" y="-80"/>
      <point x="3296" y="104"/>
      <point x="3296" y="584" type="curve" smooth="yes"/>
      <point x="3296" y="624"/>
      <point x="3304" y="712"/>
      <point x="3312" y="760" type="curve" smooth="yes"/>
      <point x="4480" y="5840" type="line"/>
      <point x="5672" y="6160" type="line"/>
      <point x="4336" y="376" type="line" smooth="yes"/>
      <point x="4328" y="328"/>
      <point x="4320" y="272"/>
      <point x="4320" y="232" type="curve" smooth="yes"/>
      <point x="4320" y="144"/>
      <point x="4360" y="64"/>
      <point x="4464" y="64" type="curve" smooth="yes"/>
      <point x="4880" y="64"/>
      <point x="5384" y="592"/>
      <point x="5656" y="1312" type="curve"/>
    </contour>
    <contour>
      <point x="552" y="3680" type="line"/>
      <point x="3472" y="3680" type="line"/>
      <point x="3472" y="3656" type="line"/>
      <point x="552" y="3656" type="line"/>
    </contour>
    <contour>
      <point x="4840" y="5168" type="curve" smooth="yes"/>
      <point x="4840" y="4760"/>
      <point x="4584" y="4512"/>
      <point x="4224" y="4512" type="curve" smooth="yes"/>
      <point x="3904" y="4512"/>
      <point x="3576" y="4704"/>
      <point x="3576" y="5104" type="curve" smooth="yes"/>
      <point x="3576" y="5504"/>
      <point x="3872" y="5728"/>
      <point x="4224" y="5728" type="curve" smooth="yes"/>
      <point x="4480" y="5728"/>
      <point x="4688" y="5584"/>
      <point x="4768" y="5392" type="curve"/>
      <point x="4688" y="5696"/>
      <point x="4336" y="6048"/>
      <point x="3776" y="6048" type="curve" smooth="yes"/>
      <point x="3104" y="6048"/>
      <point x="2608" y="5296"/>
      <point x="2432" y="4320" type="curve" smooth="yes"/>
      <point x="1648" y="-96" type="line" smooth="yes"/>
      <point x="1424" y="-1376"/>
      <point x="544" y="-2080"/>
      <point x="-496" y="-2080" type="curve" smooth="yes"/>
      <point x="-1264" y="-2080"/>
      <point x="-1664" y="-1584"/>
      <point x="-1664" y="-1168" type="curve" smooth="yes"/>
      <point x="-1664" y="-760"/>
      <point x="-1408" y="-512"/>
      <point x="-1048" y="-512" type="curve" smooth="yes"/>
      <point x="-728" y="-512"/>
      <point x="-400" y="-704"/>
      <point x="-400" y="-1104" type="curve" smooth="yes"/>
      <point x="-400" y="-1504"/>
      <point x="-688" y="-1728"/>
      <point x="-1040" y="-1728" type="curve" smooth="yes"/>
      <point x="-1296" y="-1728"/>
      <point x="-1504" y="-1584"/>
      <point x="-1584" y="-1392" type="curve"/>
      <point x="-1504" y="-1696"/>
      <point x="-1120" y="-2048"/>
      <point x="-592" y="-2048" type="curve" smooth="yes"/>
      <point x="-32" y="-2048"/>
      <point x="336" y="-1296"/>
      <point x="512" y="-320" type="curve" smooth="yes"/>
      <point x="1296" y="4096" type="line" smooth="yes"/>
      <point x="1520" y="5376"/>
      <point x="2520" y="6080"/>
      <point x="3680" y="6080" type="curve" smooth="yes"/>
      <point x="4456" y="6080"/>
      <point x="4840" y="5616"/>
    </contour>
  </outline>
</glyph>
<glyph name="uniFB03" format="2">
  <advance width="998"/>
  <unicode hex="FB03"/>
  <outline>
    <contour>
      <point x="978" y="163" type="line"/>
      <point x="940" y="63"/>
      <point x="872" y="-10"/>
      <point x="776" y="-10" type="curve" smooth="yes"/>
      <point x="714" y="-10"/>
      <point x="682" y="13"/>
      <point x="682" y="73" type="curve" smooth="yes"/>
      <point x="682" y="78"/>
      <point x="682" y="89"/>
      <point x="684" y="95" type="curve" smooth="yes"/>
      <point x="771" y="457" type="line"/>
      <point x="69" y="457" type="line"/>
      <point x="69" y="460" type="line"/>
      <point x="912" y="460" type="line"/>
      <point x="811" y="47" type="line" smooth="yes"/>
      <point x="810" y="41"/>
      <point x="809" y="34"/>
      <point x="809" y="29" type="curve" smooth="yes"/>
      <point x="809" y="18"/>
      <point x="814" y="8"/>
      <point x="827" y="8" type="curve" smooth="yes"/>
      <point x="879" y="8"/>
      <point x="942" y="71"/>
      <point x="976" y="164" type="curve"/>
    </contour>
    <contour>
      <point x="924" y="666" type="curve"/>
      <point x="914" y="673"/>
      <point x="865" y="677"/>
      <point x="820" y="677" type="curve" smooth="yes"/>
      <point x="762" y="677"/>
      <point x="716" y="642"/>
      <point x="704" y="596" type="curve"/>
      <point x="704" y="616"/>
      <point x="677" y="374"/>
      <point x="691" y="374" type="curve"/>
      <point x="684" y="277"/>
      <point x="628" y="242"/>
      <point x="566" y="234" type="curve"/>
      <point x="508" y="250"/>
      <point x="460" y="307"/>
      <point x="414" y="338" type="curve" smooth="yes"/>
      <point x="369" y="368"/>
      <point x="363" y="341"/>
      <point x="382" y="280" type="curve"/>
      <point x="410" y="280"/>
      <point x="390" y="12"/>
      <point x="390" y="-18" type="curve"/>
      <point x="378" y="-111"/>
      <point x="316" y="-191"/>
      <point x="216" y="-191" type="curve" smooth="yes"/>
      <point x="149" y="-191"/>
      <point x="116" y="-152"/>
      <point x="110" y="-116" type="curve"/>
      <point x="118" y="-118"/>
      <point x="163" y="-127"/>
      <point x="208" y="-127" type="curve" smooth="yes"/>
      <point x="256" y="-127"/>
      <point x="294" y="-87"/>
      <point x="304" y="-46" type="curve"/>
      <point x="304" y="-66"/>
      <point x="330" y="176"/>
      <point x="316" y="176" type="curve"/>
      <point x="323" y="273"/>
      <point x="390" y="307"/>
      <point x="462" y="316" type="curve"/>
      <point x="524" y="300"/>
      <point x="574" y="248"/>
      <point x="614" y="212" type="curve" smooth="yes"/>
      <point x="654" y="182"/>
      <point x="661" y="209"/>
      <point x="642" y="270" type="curve"/>
      <point x="614" y="270"/>
      <point x="633" y="538"/>
      <point x="633" y="568" type="curve"/>
      <point x="645" y="661"/>
      <point x="708" y="741"/>
      <point x="812" y="741" type="curve" smooth="yes"/>
      <point x="882" y="741"/>
      <point x="917" y="705"/>
    </contour>
    <contour>
      <point x="566" y="624" type="curve"/>
      <point x="556" y="662"/>
      <point x="506" y="706"/>
      <point x="436" y="706" type="curve" smooth="yes"/>
      <point x="361" y="706"/>
      <point x="316" y="613"/>
      <point x="294" y="491" type="curve" smooth="yes"/>
      <point x="206" y="-12" type="line" smooth="yes"/>
      <point x="178" y="-172"/>
      <point x="68" y="-260"/>
      <point x="-62" y="-260" type="curve" smooth="yes"/>
      <point x="-158" y="-260"/>
      <point x="-208" y="-198"/>
      <point x="-208" y="-146" type="curve" smooth="yes"/>
      <point x="-208" y="-95"/>
      <point x="-176" y="-64"/>
      <point x="-131" y="-64" type="curve" smooth="yes"/>
      <point x="-91" y="-64"/>
      <point x="-50" y="-88"/>
      <point x="-50" y="-138" type="curve" smooth="yes"/>
      <point x="-50" y="-188"/>
      <point x="-86" y="-216"/>
      <point x="-130" y="-216" type="curve" smooth="yes"/>
      <point x="-162" y="-216"/>
      <point x="-188" y="-198"/>
      <point x="-198" y="-174" type="curve"/>
      <point x="-188" y="-212"/>
      <point x="-140" y="-256"/>
      <point x="-74" y="-256" type="curve" smooth="yes"/>
      <point x="-4" y="-256"/>
      <point x="42" y="-162"/>
      <point x="64" y="-40" type="curve" smooth="yes"/>
      <point x="152" y="462" type="line" smooth="yes"/>
      <point x="180" y="622"/>
      <point x="290" y="710"/>
      <point x="425" y="710" type="curve" smooth="yes"/>
      <point x="526" y="710"/>
      <point x="575" y="648"/>
      <point x="575" y="596" type="curve" smooth="yes"/>
      <point x="575" y="545"/>
      <point x="543" y="514"/>
      <point x="498" y="514" type="curve" smooth="yes"/>
      <point x="458" y="514"/>
      <point x="417" y="538"/>
      <point x="417" y="588" type="curve" smooth="yes"/>
      <point x="417" y="638"/>
      <point x="454" y="666"/>
      <point x="498" y="666" type="curve" smooth="yes"/>
      <point x="530" y="666"/>
      <point x="556" y="648"/>
    </contour>
  </outline>
</glyph>
<glyph name="uniFB04" format="2">
  <advance width="8312"/>
  <unicode hex="FB04"/>
  <outline>
    <contour>
      <point x="8152" y="1304" type="line"/>
      <point x="7848" y="504"/>
      <point x="7296" y="-80"/>
      <point x="6528" y="-80" type="curve" smooth="yes"/>
      <point x="6032" y="-80"/>
      <point x="5776" y="104"/>
      <point x="5776" y="584" type="curve" smooth="yes"/>
      <point x="5776" y="624"/>
      <point x="5784" y="712"/>
      <point x="5792" y="760" type="curve" smooth="yes"/>
      <point x="6960" y="5840" type="line"/>
      <point x="8152" y="6160" type="line"/>
      <point x="6816" y="376" type="line" smooth="yes"/>
      <point x="6808" y="328"/>
      <point x="6800" y="272"/>
      <point x="6800" y="232" type="curve" smooth="yes"/>
      <point x="6800" y="144"/>
      <point x="6840" y="64"/>
      <point x="6944" y="64" type="curve" smooth="yes"/>
      <point x="7360" y="64"/>
      <point x="7864" y="592"/>
      <point x="8136" y="1312" type="curve"/>
    </contour>
    <contour>
      <point x="552" y="3680" type="line"/>
      <point x="5952" y="3680" type="line"/>
      <point x="5952" y="3656" type="line"/>
      <point x="552" y="3656" type="line"/>
    </contour>
    <contour>
      <point x="7248" y="5392" type="curve"/>
      <point x="7168" y="5696"/>
      <point x="6816" y="6048"/>
      <point x="6256" y="6048" type="curve" smooth="yes"/>
      <point x="5584" y="6048"/>
      <point x="5088" y="5296"/>
      <point x="4912" y="4320" type="curve" smooth="yes"/>
      <point x="4208" y="304" type="line" smooth="yes"/>
      <point x="3984" y="-976"/>
      <point x="3120" y="-1680"/>
      <point x="2040" y="-1680" type="curve" smooth="yes"/>
      <point x="1232" y="-1680"/>
      <point x="840" y="-1184"/>
      <point x="840" y="-768" type="curve" smooth="yes"/>
      <point x="840" y="-360"/>
      <point x="1096" y="-112"/>
      <point x="1456" y="-112" type="curve" smooth="yes"/>
      <point x="1776" y="-112"/>
      <point x="2104" y="-304"/>
      <point x="2104" y="-704" type="curve" smooth="yes"/>
      <point x="2104" y="-1104"/>
      <point x="1808" y="-1328"/>
      <point x="1456" y="-1328" type="curve" smooth="yes"/>
      <point x="1200" y="-1328"/>
      <point x="992" y="-1184"/>
      <point x="912" y="-992" type="curve"/>
      <point x="992" y="-1296"/>
      <point x="1392" y="-1648"/>
      <point x="1952" y="-1648" type="curve" smooth="yes"/>
      <point x="2552" y="-1648"/>
      <point x="2912" y="-896"/>
      <point x="3088" y="80" type="curve" smooth="yes"/>
      <point x="3776" y="4096" type="line" smooth="yes"/>
      <point x="4000" y="5376"/>
      <point x="5000" y="6080"/>
      <point x="6160" y="6080" type="curve" smooth="yes"/>
      <point x="6968" y="6080"/>
      <point x="7320" y="5584"/>
      <point x="7320" y="5168" type="curve" smooth="yes"/>
      <point x="7320" y="4760"/>
      <point x="7064" y="4512"/>
      <point x="6704" y="4512" type="curve" smooth="yes"/>
      <point x="6384" y="4512"/>
      <point x="6056" y="4704"/>
      <point x="6056" y="5104" type="curve" smooth="yes"/>
      <point x="6056" y="5504"/>
      <point x="6352" y="5728"/>
      <point x="6704" y="5728" type="curve" smooth="yes"/>
      <point x="6960" y="5728"/>
      <point x="7168" y="5584"/>
    </contour>
    <contour>
      <point x="4528" y="4992" type="curve"/>
      <point x="4448" y="5296"/>
      <point x="4048" y="5648"/>
      <point x="3488" y="5648" type="curve" smooth="yes"/>
      <point x="2888" y="5648"/>
      <point x="2528" y="4904"/>
      <point x="2352" y="3928" type="curve" smooth="yes"/>
      <point x="1648" y="-96" type="line" smooth="yes"/>
      <point x="1424" y="-1376"/>
      <point x="544" y="-2080"/>
      <point x="-496" y="-2080" type="curve" smooth="yes"/>
      <point x="-1264" y="-2080"/>
      <point x="-1664" y="-1584"/>
      <point x="-1664" y="-1168" type="curve" smooth="yes"/>
      <point x="-1664" y="-760"/>
      <point x="-1408" y="-512"/>
      <point x="-1048" y="-512" type="curve" smooth="yes"/>
      <point x="-728" y="-512"/>
      <point x="-400" y="-704"/>
      <point x="-400" y="-1104" type="curve" smooth="yes"/>
      <point x="-400" y="-1504"/>
      <point x="-688" y="-1728"/>
      <point x="-1040" y="-1728" type="curve" smooth="yes"/>
      <point x="-1296" y="-1728"/>
      <point x="-1504" y="-1584"/>
      <point x="-1584" y="-1392" type="curve"/>
      <point x="-1504" y="-1696"/>
      <point x="-1120" y="-2048"/>
      <point x="-592" y="-2048" type="curve" smooth="yes"/>
      <point x="-32" y="-2048"/>
      <point x="336" y="-1296"/>
      <point x="512" y="-320" type="curve" smooth="yes"/>
      <point x="1216" y="3696" type="line" smooth="yes"/>
      <point x="1440" y="4976"/>
      <point x="2320" y="5680"/>
      <point x="3400" y="5680" type="curve" smooth="yes"/>
      <point x="4208" y="5680"/>
      <point x="4600" y="5184"/>
      <point x="4600" y="4768" type="curve" smooth="yes"/>
      <point x="4600" y="4360"/>
      <point x="4344" y="4112"/>
      <point x="3984" y="4112" type="curve" smooth="yes"/>
      <point x="3664" y="4112"/>
      <point x="3336" y="4304"/>
      <point x="3336" y="4704" type="curve" smooth="yes"/>
      <point x="3336" y="5104"/>
      <point x="3632" y="5328"/>
      <point x="3984" y="5328" type="curve" smooth="yes"/>
      <point x="4240" y="5328"/>
      <point x="4448" y="5184"/>
    </contour>
  </outline>
</glyph>
<glyph name="J.alt" format="1">
  <advance width="628"/>
  <outline>
    <contour>
      <point x="366" y="750" type="line"/>
      <point x="744" y="750" type="line"/>
      <point x="744" y="747" type="line"/>
      <point x="366" y="747" type="line"/>
    </contour>
    <contour>
      <point x="486" y="750" type="line"/>
      <point x="644" y="750" type="line"/>
      <point x="534" y="280" type="line" smooth="yes"/>
      <point x="498" y="128"/>
      <point x="342" y="-10"/>
      <point x="181" y="-10" type="curve" smooth="yes"/>
      <point x="74" y="-10"/>
      <point x="5" y="65"/>
      <point x="5" y="160" type="curve" smooth="yes"/>
      <point x="5" y="242"/>
      <point x="52" y="290"/>
      <point x="112" y="290" type="curve" smooth="yes"/>
      <point x="167" y="290"/>
      <point x="208" y="257"/>
      <point x="208" y="196" type="curve" smooth="yes"/>
      <point x="208" y="146"/>
      <point x="166" y="103"/>
      <point x="107" y="103" type="curve" smooth="yes"/>
      <point x="55" y="103"/>
      <point x="19" y="140"/>
      <point x="10" y="166" type="curve"/>
      <point x="4" y="68"/>
      <point x="78" y="-7"/>
      <point x="181" y="-7" type="curve" smooth="yes"/>
      <point x="302" y="-7"/>
      <point x="347" y="116"/>
      <point x="376" y="250" type="curve" smooth="yes"/>
    </contour>
  </outline>
</glyph>
<glyph name="fj.lig" format="2">
  <advance width="658"/>
  <outline>
    <contour>
      <point x="377" y="40" type="curve" smooth="yes"/>
      <point x="464" y="456" type="line"/>
      <point x="69" y="457" type="line"/>
      <point x="69" y="460" type="line"/>
      <point x="603" y="460" type="line"/>
      <point x="520" y="38" type="line" smooth="yes"/>
      <point x="496" y="-88"/>
      <point x="383" y="-210"/>
      <point x="248" y="-210" type="curve" smooth="yes"/>
      <point x="157" y="-210"/>
      <point x="100" y="-152"/>
      <point x="100" y="-98" type="curve" smooth="yes"/>
      <point x="100" y="-47"/>
      <point x="139" y="-14"/>
      <point x="184" y="-14" type="curve" smooth="yes"/>
      <point x="224" y="-14"/>
      <point x="263" y="-41"/>
      <point x="263" y="-85" type="curve" smooth="yes"/>
      <point x="263" y="-133"/>
      <point x="224" y="-164"/>
      <point x="182" y="-164" type="curve" smooth="yes"/>
      <point x="147" y="-164"/>
      <point x="116" y="-144"/>
      <point x="111" y="-124" type="curve"/>
      <point x="123" y="-168"/>
      <point x="175" y="-206"/>
      <point x="246" y="-206" type="curve" smooth="yes"/>
      <point x="336" y="-206"/>
      <point x="351" y="-80"/>
    </contour>
    <contour>
      <point x="614" y="670" type="curve"/>
      <point x="603" y="716"/>
      <point x="553" y="756"/>
      <point x="472" y="756" type="curve" smooth="yes"/>
      <point x="387" y="756"/>
      <point x="326" y="662"/>
      <point x="304" y="540" type="curve" smooth="yes"/>
      <point x="206" y="-12" type="line" smooth="yes"/>
      <point x="178" y="-172"/>
      <point x="70" y="-260"/>
      <point x="-60" y="-260" type="curve" smooth="yes"/>
      <point x="-156" y="-260"/>
      <point x="-205" y="-198"/>
      <point x="-205" y="-146" type="curve" smooth="yes"/>
      <point x="-205" y="-95"/>
      <point x="-173" y="-64"/>
      <point x="-128" y="-64" type="curve" smooth="yes"/>
      <point x="-88" y="-64"/>
      <point x="-47" y="-88"/>
      <point x="-47" y="-138" type="curve" smooth="yes"/>
      <point x="-47" y="-188"/>
      <point x="-86" y="-216"/>
      <point x="-130" y="-216" type="curve" smooth="yes"/>
      <point x="-168" y="-216"/>
      <point x="-192" y="-184"/>
      <point x="-198" y="-170" type="curve"/>
      <point x="-190" y="-207"/>
      <point x="-145" y="-255"/>
      <point x="-72" y="-255" type="curve" smooth="yes"/>
      <point x="-2" y="-255"/>
      <point x="45" y="-162"/>
      <point x="66" y="-40" type="curve" smooth="yes"/>
      <point x="162" y="512" type="line" smooth="yes"/>
      <point x="190" y="672"/>
      <point x="310" y="760"/>
      <point x="460" y="760" type="curve" smooth="yes"/>
      <point x="576" y="760"/>
      <point x="620" y="698"/>
      <point x="620" y="646" type="curve" smooth="yes"/>
      <point x="620" y="595"/>
      <point x="589" y="564"/>
      <point x="544" y="564" type="curve" smooth="yes"/>
      <point x="504" y="564"/>
      <point x="462" y="588"/>
      <point x="462" y="638" type="curve" smooth="yes"/>
      <point x="462" y="688"/>
      <point x="501" y="716"/>
      <point x="545" y="716" type="curve" smooth="yes"/>
      <point x="582" y="716"/>
      <point x="604" y="689"/>
    </contour>
  </outline>
</glyph>
<glyph name="v.alt" format="2">
  <advance width="4248"/>
  <outline>
    <contour>
      <point x="1720" y="3800" type="curve"/>
      <point x="1728" y="3784" type="line"/>
      <point x="1400" y="3600"/>
      <point x="1320" y="3384"/>
      <point x="1320" y="3104" type="curve" smooth="yes"/>
      <point x="1320" y="2400"/>
      <point x="2192" y="2072"/>
      <point x="2192" y="1080" type="curve" smooth="yes"/>
      <point x="2192" y="944"/>
      <point x="2152" y="504"/>
      <point x="2136" y="320" type="curve"/>
      <point x="3384" y="976"/>
      <point x="4184" y="1696"/>
      <point x="4184" y="2752" type="curve" smooth="yes"/>
      <point x="4184" y="2864"/>
      <point x="4168" y="3016"/>
      <point x="4128" y="3072" type="curve"/>
      <point x="4096" y="2816"/>
      <point x="3880" y="2440"/>
      <point x="3384" y="2440" type="curve" smooth="yes"/>
      <point x="2944" y="2440"/>
      <point x="2696" y="2776"/>
      <point x="2696" y="3096" type="curve" smooth="yes"/>
      <point x="2696" y="3456"/>
      <point x="2968" y="3752"/>
      <point x="3384" y="3752" type="curve" smooth="yes"/>
      <point x="4008" y="3752"/>
      <point x="4208" y="3240"/>
      <point x="4208" y="2752" type="curve" smooth="yes"/>
      <point x="4208" y="1400"/>
      <point x="2936" y="664"/>
      <point x="1376" y="-96" type="curve"/>
      <point x="992" y="-16" type="line"/>
      <point x="1008" y="160"/>
      <point x="1064" y="688"/>
      <point x="1064" y="848" type="curve" smooth="yes"/>
      <point x="1064" y="1464"/>
      <point x="240" y="1992"/>
      <point x="240" y="2584" type="curve" smooth="yes"/>
      <point x="240" y="3224"/>
      <point x="1000" y="3568"/>
    </contour>
  </outline>
</glyph>
